<svg width="40" height="40" viewBox="0 0 40 40" fill="none" xmlns="http://www.w3.org/2000/svg">
<path d="M12.8004 2.3999C7.06637 2.3999 2.40039 7.06589 2.40039 12.7999V27.1999C2.40039 32.9339 7.06637 37.5999 12.8004 37.5999H27.2004C32.9344 37.5999 37.6004 32.9339 37.6004 27.1999V12.7999C37.6004 7.06589 32.9344 2.3999 27.2004 2.3999H12.8004ZM12.8004 3.9999H27.2004C32.0696 3.9999 36.0004 7.93072 36.0004 12.7999V27.1999C36.0004 32.0691 32.0696 35.9999 27.2004 35.9999H12.8004C7.93121 35.9999 4.00039 32.0691 4.00039 27.1999V12.7999C4.00039 7.93072 7.93121 3.9999 12.8004 3.9999ZM29.6004 8.7999C28.7167 8.7999 28.0004 9.51625 28.0004 10.3999C28.0004 11.2836 28.7167 11.9999 29.6004 11.9999C30.484 11.9999 31.2004 11.2836 31.2004 10.3999C31.2004 9.51625 30.484 8.7999 29.6004 8.7999ZM20.0004 11.1999C15.1498 11.1999 11.2004 15.1493 11.2004 19.9999C11.2004 24.8505 15.1498 28.7999 20.0004 28.7999C24.851 28.7999 28.8004 24.8505 28.8004 19.9999C28.8004 15.1493 24.851 11.1999 20.0004 11.1999ZM20.0004 12.7999C23.9863 12.7999 27.2004 16.014 27.2004 19.9999C27.2004 23.9858 23.9863 27.1999 20.0004 27.1999C16.0145 27.1999 12.8004 23.9858 12.8004 19.9999C12.8004 16.014 16.0145 12.7999 20.0004 12.7999Z" fill="white"/>
</svg>
