<svg width="111" height="44" viewBox="0 0 111 44" fill="none" xmlns="http://www.w3.org/2000/svg">
<path d="M23.5664 24.6094C23.5664 24.7656 23.5664 24.9531 23.5664 25.1719C23.5977 25.3594 23.582 25.5312 23.5195 25.6875C23.6133 26 23.6133 26.2969 23.5195 26.5781C23.457 26.8281 23.3945 27.125 23.332 27.4688C23.457 27.6875 23.4727 27.8906 23.3789 28.0781C23.2852 28.2656 23.1602 28.4219 23.0039 28.5469C23.0039 28.7344 22.957 28.875 22.8633 28.9688C22.8008 29.0625 22.7383 29.1719 22.6758 29.2969C22.6445 29.7031 22.5664 29.9844 22.4414 30.1406C22.3164 30.2656 22.1914 30.4062 22.0664 30.5625C22.0352 30.8125 22.0039 31.0469 21.9727 31.2656C21.9414 31.4844 21.8633 31.6719 21.7383 31.8281C21.707 31.9844 21.6914 32.125 21.6914 32.25C21.7227 32.375 21.6914 32.4688 21.5977 32.5312C21.5039 32.5625 21.4102 32.5938 21.3164 32.625C21.2539 32.625 21.1602 32.6094 21.0352 32.5781C20.8789 32.6406 20.7539 32.7344 20.6602 32.8594C20.5664 32.9531 20.4414 33.0469 20.2852 33.1406C20.3164 33.4844 20.2852 33.6719 20.1914 33.7031C20.1289 33.7344 20.0508 33.7812 19.957 33.8438C19.8945 33.9688 19.8164 34.0781 19.7227 34.1719C19.6289 34.2656 19.582 34.4062 19.582 34.5938C19.4883 34.6562 19.3945 34.7344 19.3008 34.8281C19.2383 34.9219 19.1602 35 19.0664 35.0625C18.9727 35.3125 18.832 35.5 18.6445 35.625C18.3008 35.625 18.1133 35.6562 18.082 35.7188C18.0508 35.75 18.0039 35.7969 17.9414 35.8594C17.7852 35.9219 17.6133 35.9844 17.4258 36.0469C17.2383 36.1094 17.0352 36.1562 16.8164 36.1875C16.5664 36.1875 16.3789 36.2344 16.2539 36.3281C16.1289 36.4531 15.9414 36.5156 15.6914 36.5156C15.5352 36.3281 15.4258 36.25 15.3633 36.2812C15.332 36.3438 15.2695 36.4062 15.1758 36.4688C14.9258 36.4688 14.7383 36.5469 14.6133 36.7031C14.5195 36.8594 14.3633 36.9688 14.1445 37.0312C13.9883 37.0312 13.8789 36.9844 13.8164 36.8906C13.7852 36.8281 13.7383 36.7656 13.6758 36.7031C13.332 36.8906 13.1602 37.0625 13.1602 37.2188C13.1914 37.375 13.1289 37.4844 12.9727 37.5469C12.7539 37.5156 12.582 37.4375 12.457 37.3125C12.332 37.2188 12.1914 37.1406 12.0352 37.0781C11.8477 37.1094 11.6758 37.1562 11.5195 37.2188C11.3945 37.3125 11.207 37.3438 10.957 37.3125C10.5195 37.1562 10.2539 37.125 10.1602 37.2188C10.0977 37.3125 10.0039 37.3438 9.87891 37.3125C9.72266 37.3125 9.61328 37.25 9.55078 37.125C9.48828 37.0312 9.37891 36.9375 9.22266 36.8438C8.81641 36.875 8.56641 36.7656 8.47266 36.5156C8.34766 36.5156 8.23828 36.5156 8.14453 36.5156C8.08203 36.5469 8.01953 36.5625 7.95703 36.5625C7.58203 36.4062 7.25391 36.2969 6.97266 36.2344C6.69141 36.2031 6.42578 36.1406 6.17578 36.0469C6.01953 35.8906 5.89453 35.6875 5.80078 35.4375C5.73828 35.1875 5.67578 34.9375 5.61328 34.6875C5.45703 34.4062 5.33203 34.3125 5.23828 34.4062C5.14453 34.4688 5.01953 34.5 4.86328 34.5C4.70703 34.4688 4.56641 34.3281 4.44141 34.0781C4.12891 33.7969 3.91016 33.5 3.78516 33.1875C3.66016 32.875 3.45703 32.5938 3.17578 32.3438C2.98828 31.9688 2.73828 31.6406 2.42578 31.3594C2.14453 31.0469 1.84766 30.7344 1.53516 30.4219C1.41016 30.1719 1.36328 29.8906 1.39453 29.5781C1.39453 29.2344 1.26953 28.9844 1.01953 28.8281C0.894531 28.6406 1.00391 28.4844 1.34766 28.3594C1.66016 28.2031 1.87891 28 2.00391 27.75C2.34766 27.5312 2.61328 27.4375 2.80078 27.4688C3.01953 27.5 3.22266 27.4531 3.41016 27.3281C3.50391 26.9844 3.59766 26.8125 3.69141 26.8125C3.81641 26.7812 3.92578 26.7188 4.01953 26.625C4.23828 26.2188 4.37891 25.9688 4.44141 25.875C4.53516 25.75 4.61328 25.6406 4.67578 25.5469C4.86328 25.2969 5.08203 25.0781 5.33203 24.8906C5.61328 24.5469 5.83203 24.2812 5.98828 24.0938C6.14453 23.9062 6.30078 23.7188 6.45703 23.5312C6.73828 23.3438 6.98828 23.2344 7.20703 23.2031C7.36328 23.3594 7.48828 23.4375 7.58203 23.4375C7.70703 23.4375 7.84766 23.5156 8.00391 23.6719C7.87891 24.1719 7.61328 24.4688 7.20703 24.5625C7.20703 24.6875 7.17578 24.8125 7.11328 24.9375C7.08203 25.0625 7.09766 25.1875 7.16016 25.3125C7.22266 25.4062 7.26953 25.5156 7.30078 25.6406C7.33203 25.7344 7.37891 25.8281 7.44141 25.9219C7.41016 26.0156 7.37891 26.1094 7.34766 26.2031C7.31641 26.2969 7.22266 26.375 7.06641 26.4375C7.09766 26.5938 7.06641 26.7188 6.97266 26.8125C6.91016 26.9062 6.89453 27.0312 6.92578 27.1875C6.98828 27.3438 7.05078 27.4844 7.11328 27.6094C7.20703 27.7344 7.28516 27.875 7.34766 28.0312C7.47266 28.4688 7.47266 28.7812 7.34766 28.9688C7.25391 29.125 7.17578 29.2656 7.11328 29.3906C7.17578 29.5156 7.25391 29.625 7.34766 29.7188C7.44141 29.7812 7.51953 29.8594 7.58203 29.9531C7.67578 30.0781 7.84766 30.2344 8.09766 30.4219C8.62891 30.3906 8.98828 30.5 9.17578 30.75C9.36328 31 9.48828 31.3438 9.55078 31.7812C9.61328 31.8125 9.69141 31.8125 9.78516 31.7812C9.87891 31.7188 10.0039 31.6875 10.1602 31.6875C10.4727 31.6562 10.7695 31.6875 11.0508 31.7812C11.5508 31.6875 11.832 31.6875 11.8945 31.7812C11.9883 31.8438 12.1133 31.8906 12.2695 31.9219C12.457 31.8594 12.582 31.7656 12.6445 31.6406C12.7383 31.5156 12.8633 31.4219 13.0195 31.3594C13.1758 31.3594 13.2852 31.375 13.3477 31.4062C13.4102 31.4375 13.5195 31.4688 13.6758 31.5C13.832 31.5312 13.9102 31.5781 13.9102 31.6406C13.9102 31.7031 13.9883 31.7344 14.1445 31.7344C14.3008 31.7031 14.4258 31.6562 14.5195 31.5938C14.6445 31.5312 14.7852 31.4844 14.9414 31.4531C15.0977 31.3906 15.2227 31.3125 15.3164 31.2188C15.4102 31.125 15.5508 31.0781 15.7383 31.0781C15.832 30.6719 15.8945 30.375 15.9258 30.1875C15.957 30 16.0352 29.875 16.1602 29.8125C16.4102 29.5625 16.5664 29.3594 16.6289 29.2031C16.6914 29.0156 16.7539 28.8438 16.8164 28.6875C17.1602 28.4062 17.3477 28.1406 17.3789 27.8906C17.4414 27.6094 17.4727 27.3438 17.4727 27.0938C17.5977 26.7812 17.6914 26.4688 17.7539 26.1562C17.8477 25.8438 17.9258 25.5156 17.9883 25.1719C17.957 24.8594 17.9727 24.6094 18.0352 24.4219C17.8477 24.2344 17.7852 23.9688 17.8477 23.625C17.5977 23.4375 17.4727 23.2656 17.4727 23.1094C17.4727 22.9531 17.457 22.8281 17.4258 22.7344C17.2695 22.5781 17.1133 22.4219 16.957 22.2656C16.832 22.1094 16.7383 21.9219 16.6758 21.7031C16.3633 21.6094 16.1289 21.4219 15.9727 21.1406C15.8477 21.2344 15.6914 21.2812 15.5039 21.2812C15.3477 21.25 15.2227 21.1719 15.1289 21.0469C14.8789 20.9844 14.6758 20.9219 14.5195 20.8594C14.3633 20.7656 14.1289 20.75 13.8164 20.8125C13.6602 20.6875 13.5664 20.5781 13.5352 20.4844C13.5352 20.3906 13.5195 20.2656 13.4883 20.1094C13.3633 20.0469 13.1914 20.0312 12.9727 20.0625C12.7852 20.0938 12.582 20.0781 12.3633 20.0156C12.2383 19.9531 12.1133 19.9062 11.9883 19.875C11.8945 19.8125 11.7695 19.7812 11.6133 19.7812C11.457 19.625 11.2539 19.5312 11.0039 19.5C10.7852 19.4375 10.6133 19.3281 10.4883 19.1719C10.1133 18.8906 9.80078 18.7188 9.55078 18.6562C9.30078 18.5938 9.05078 18.5312 8.80078 18.4688C8.61328 18.3438 8.45703 18.25 8.33203 18.1875C7.92578 18.3125 7.67578 18.3594 7.58203 18.3281C7.51953 18.2969 7.42578 18.2656 7.30078 18.2344C7.20703 18.1719 7.12891 18.125 7.06641 18.0938C7.00391 18.0312 6.92578 17.9844 6.83203 17.9531C6.67578 17.7344 6.47266 17.5469 6.22266 17.3906C6.00391 17.2031 5.81641 16.9844 5.66016 16.7344C5.56641 16.6719 5.47266 16.6094 5.37891 16.5469C5.31641 16.4531 5.25391 16.375 5.19141 16.3125C4.84766 16.2188 4.55078 16.0938 4.30078 15.9375C4.20703 15.4688 4.12891 15.125 4.06641 14.9062C4.00391 14.6875 3.98828 14.4375 4.01953 14.1562C3.92578 14.0625 3.81641 13.9844 3.69141 13.9219C3.56641 13.8594 3.47266 13.75 3.41016 13.5938C3.44141 13.3125 3.37891 13.1094 3.22266 12.9844C3.09766 12.8281 3.00391 12.6562 2.94141 12.4688C3.00391 12.375 3.05078 12.2812 3.08203 12.1875C3.11328 12.0625 3.14453 11.9531 3.17578 11.8594C3.08203 11.6094 3.01953 11.3438 2.98828 11.0625C2.95703 10.7812 2.98828 10.4844 3.08203 10.1719C3.08203 9.85938 3.08203 9.67188 3.08203 9.60938C3.08203 9.54688 3.11328 9.48438 3.17578 9.42188C3.17578 9.29688 3.16016 9.1875 3.12891 9.09375C3.12891 8.96875 3.12891 8.85938 3.12891 8.76562C3.12891 8.60938 3.14453 8.45312 3.17578 8.29688C3.20703 8.14062 3.25391 7.98438 3.31641 7.82812C3.62891 7.45312 3.81641 7.125 3.87891 6.84375C3.97266 6.5625 4.11328 6.34375 4.30078 6.1875C4.45703 5.78125 4.64453 5.4375 4.86328 5.15625C5.11328 4.84375 5.36328 4.54688 5.61328 4.26562C5.89453 4.14063 6.06641 4 6.12891 3.84375C6.22266 3.6875 6.36328 3.57813 6.55078 3.51562C6.89453 3.48438 7.08203 3.40625 7.11328 3.28125C7.17578 3.125 7.28516 3 7.44141 2.90625C7.69141 2.96875 7.89453 2.95312 8.05078 2.85938C8.20703 2.76562 8.41016 2.70312 8.66016 2.67188C8.97266 2.48438 9.25391 2.25 9.50391 1.96875C9.66016 1.96875 9.78516 2 9.87891 2.0625C10.0039 2.09375 10.1133 2.125 10.207 2.15625C10.457 1.96875 10.5977 1.875 10.6289 1.875C10.6914 1.84375 10.7383 1.8125 10.7695 1.78125C10.9883 1.625 11.1758 1.53125 11.332 1.5C11.5195 1.46875 11.6602 1.45312 11.7539 1.45312C12.0352 1.48437 12.207 1.46875 12.2695 1.40625C12.332 1.34375 12.4258 1.3125 12.5508 1.3125C12.6758 1.34375 12.7539 1.375 12.7852 1.40625C12.8477 1.40625 12.957 1.375 13.1133 1.3125C13.457 1.375 13.707 1.4375 13.8633 1.5C14.0195 1.53125 14.207 1.53125 14.4258 1.5C14.5195 1.59375 14.6602 1.70313 14.8477 1.82812C14.9727 1.76562 15.082 1.70313 15.1758 1.64062C15.3008 1.54688 15.4258 1.45312 15.5508 1.35938C15.6758 1.29687 15.8008 1.21875 15.9258 1.125C16.0508 1.03125 16.1914 1.0625 16.3477 1.21875C16.4102 1.34375 16.4102 1.46875 16.3477 1.59375C16.2852 1.6875 16.2695 1.8125 16.3008 1.96875C16.5508 2.15625 16.7695 2.29688 16.957 2.39062C17.1445 2.45313 17.3164 2.5625 17.4727 2.71875C17.7539 2.84375 17.9102 2.95312 17.9414 3.04688C18.0039 3.14062 18.0664 3.21875 18.1289 3.28125C18.2852 3.25 18.4102 3.21875 18.5039 3.1875C18.6289 3.15625 18.7695 3.125 18.9258 3.09375C19.3008 3.125 19.457 3.39063 19.3945 3.89062C19.5508 3.98438 19.6914 4.07812 19.8164 4.17188C19.9414 4.23438 20.0664 4.32813 20.1914 4.45312C20.7539 4.51563 21.1133 4.6875 21.2695 4.96875C21.207 5.28125 21.1758 5.45313 21.1758 5.48438C21.5195 5.60937 21.7227 5.70312 21.7852 5.76562C21.8477 5.79687 21.9102 5.84375 21.9727 5.90625C21.9727 6.125 21.9414 6.26562 21.8789 6.32812C21.8477 6.35937 21.8164 6.42188 21.7852 6.51562L22.2539 6.89062C22.4102 6.98438 22.5039 7.07812 22.5352 7.17188C22.5977 7.23438 22.6914 7.26562 22.8164 7.26562C22.9727 7.54688 23.0352 7.71875 23.0039 7.78125C23.0039 7.8125 23.0352 7.85938 23.0977 7.92188C22.6289 8.14062 22.2383 8.42188 21.9258 8.76562C21.7695 8.98438 21.6758 9.14062 21.6445 9.23438C21.6445 9.29688 21.6133 9.35938 21.5508 9.42188C21.3945 9.60938 21.3164 9.73438 21.3164 9.79688C21.3164 9.85938 21.332 9.92188 21.3633 9.98438C21.2695 10.1406 21.1758 10.2656 21.082 10.3594C20.9883 10.4531 20.9102 10.5625 20.8477 10.6875C20.7852 10.9375 20.707 11.125 20.6133 11.25C20.457 11.3125 20.3164 11.3906 20.1914 11.4844C20.0664 11.5781 19.9258 11.6406 19.7695 11.6719C19.7695 11.8281 19.7695 11.9688 19.7695 12.0938C19.8008 12.1875 19.7695 12.3125 19.6758 12.4688C19.4258 12.625 19.2383 12.8906 19.1133 13.2656C18.832 13.4531 18.6758 13.5938 18.6445 13.6875C18.6445 13.7812 18.6133 13.8906 18.5508 14.0156C18.2383 14.2344 18.0039 14.3438 17.8477 14.3438C17.6914 14.3125 17.5664 14.2344 17.4727 14.1094C17.4727 13.7656 17.4727 13.5156 17.4727 13.3594C17.6914 13.1094 17.832 12.8906 17.8945 12.7031C17.7695 12.4531 17.7539 12.25 17.8477 12.0938C17.8477 11.8125 17.8789 11.6719 17.9414 11.6719C18.0039 11.6406 18.0352 11.6094 18.0352 11.5781C17.8789 11.2344 17.7852 11.0469 17.7539 11.0156C17.7227 10.9844 17.6758 10.9531 17.6133 10.9219C17.5195 10.6719 17.4414 10.5312 17.3789 10.5C17.3477 10.4688 17.332 10.4062 17.332 10.3125C17.2695 10 17.207 9.8125 17.1445 9.75C17.1133 9.65625 17.0977 9.5625 17.0977 9.46875C17.1602 9.21875 17.1914 9.0625 17.1914 9C17.1914 8.90625 17.1602 8.82812 17.0977 8.76562C17.0039 8.70312 16.9102 8.6875 16.8164 8.71875C16.7539 8.75 16.6758 8.73438 16.582 8.67188C16.457 8.54688 16.3945 8.4375 16.3945 8.34375C16.4258 8.25 16.4102 8.15625 16.3477 8.0625C16.5039 7.90625 16.582 7.75 16.582 7.59375C16.457 7.53125 16.3477 7.51562 16.2539 7.54688C16.1914 7.54688 16.1289 7.51562 16.0664 7.45312C15.7852 7.14062 15.6289 6.90625 15.5977 6.75C15.5039 6.75 15.4258 6.78125 15.3633 6.84375C15.3008 6.875 15.207 6.875 15.082 6.84375C14.7695 6.625 14.5508 6.53125 14.4258 6.5625C14.332 6.5625 14.207 6.5625 14.0508 6.5625C13.6445 6.46875 13.332 6.375 13.1133 6.28125C12.8945 6.1875 12.8008 6 12.832 5.71875C12.7695 5.75 12.707 5.82813 12.6445 5.95312C12.582 6.04688 12.5195 6.125 12.457 6.1875C12.2383 6.21875 12.0195 6.23438 11.8008 6.23438C11.6133 6.23438 11.3945 6.25 11.1445 6.28125C11.0195 6.34375 10.9102 6.42188 10.8164 6.51562C10.7227 6.57813 10.6133 6.64062 10.4883 6.70312C10.3633 6.82812 10.2539 6.96875 10.1602 7.125C10.0977 7.25 10.0039 7.35938 9.87891 7.45312C9.62891 7.51562 9.44141 7.57812 9.31641 7.64062C9.31641 7.76562 9.31641 7.89062 9.31641 8.01562C9.34766 8.10938 9.31641 8.1875 9.22266 8.25C8.81641 8.40625 8.62891 8.64062 8.66016 8.95312C8.72266 9.26562 8.72266 9.54688 8.66016 9.79688C8.53516 9.98438 8.48828 10.1094 8.51953 10.1719C8.55078 10.2031 8.55078 10.2812 8.51953 10.4062C8.33203 10.625 8.23828 10.8125 8.23828 10.9688C8.26953 11.1875 8.37891 11.3594 8.56641 11.4844C8.69141 11.5156 8.84766 11.5938 9.03516 11.7188C9.00391 11.875 9.00391 12.0469 9.03516 12.2344C9.06641 12.3906 9.09766 12.5625 9.12891 12.75C9.34766 12.875 9.48828 13.1094 9.55078 13.4531C9.80078 13.4844 9.95703 13.5938 10.0195 13.7812C10.082 13.9375 10.1758 14.0781 10.3008 14.2031C10.7383 14.2344 11.0352 14.2969 11.1914 14.3906C11.3477 14.4844 11.5195 14.5781 11.707 14.6719C11.8633 14.6719 11.9727 14.6562 12.0352 14.625C12.1289 14.5625 12.2383 14.5312 12.3633 14.5312C12.5195 14.6875 12.6914 14.8125 12.8789 14.9062C13.0664 14.9688 13.2383 15.0781 13.3945 15.2344C13.6758 15.2969 13.9414 15.3594 14.1914 15.4219C14.4727 15.4844 14.7227 15.5781 14.9414 15.7031C15.0352 15.7031 15.1133 15.7031 15.1758 15.7031C15.2695 15.6719 15.3633 15.6719 15.457 15.7031C15.6133 15.7344 15.7383 15.8125 15.832 15.9375C15.9258 16.0312 16.0195 16.1094 16.1133 16.1719C16.457 16.1406 16.6758 16.2031 16.7695 16.3594C16.8945 16.4844 17.0352 16.6094 17.1914 16.7344C17.3164 16.7656 17.5195 16.7812 17.8008 16.7812C18.1445 17 18.3789 17.1094 18.5039 17.1094C18.6289 17.0781 18.7383 17.0781 18.832 17.1094C18.9258 17.1719 19.0039 17.2344 19.0664 17.2969C19.1289 17.3281 19.1914 17.375 19.2539 17.4375C19.5977 17.5625 19.7852 17.6719 19.8164 17.7656C19.8477 17.8281 19.8945 17.8906 19.957 17.9531C20.207 17.9531 20.4258 18.0469 20.6133 18.2344C20.6445 18.3906 20.6914 18.5156 20.7539 18.6094C20.8477 18.7031 20.9258 18.8125 20.9883 18.9375C21.1445 18.9375 21.2539 18.9844 21.3164 19.0781C21.4102 19.1719 21.4883 19.25 21.5508 19.3125C21.582 19.4375 21.6133 19.5469 21.6445 19.6406C21.6758 19.7344 21.6914 19.8594 21.6914 20.0156C21.7539 20.1719 21.832 20.3125 21.9258 20.4375C22.0508 20.5312 22.1445 20.6719 22.207 20.8594C22.332 21.0156 22.457 21.1406 22.582 21.2344C22.707 21.3281 22.7852 21.4844 22.8164 21.7031C22.9727 22.1406 23.0977 22.4219 23.1914 22.5469C23.3164 22.6406 23.3477 22.8438 23.2852 23.1562C23.3164 23.4688 23.3164 23.7031 23.2852 23.8594C23.2852 24.0156 23.2539 24.1719 23.1914 24.3281L23.5664 24.6094ZM43.6758 35.2031C43.6445 35.3594 43.6602 35.5 43.7227 35.625C43.8164 35.7188 43.8633 35.8438 43.8633 36C43.9883 36.2812 44.0195 36.4219 43.957 36.4219C43.9258 36.4219 43.9102 36.4531 43.9102 36.5156C43.7852 36.5156 43.6914 36.4844 43.6289 36.4219C43.5977 36.3906 43.5195 36.3906 43.3945 36.4219C43.0508 36.2031 42.8164 36.125 42.6914 36.1875C42.5664 36.25 42.4414 36.2344 42.3164 36.1406C41.9727 36.2031 41.7695 36.1875 41.707 36.0938C41.6758 36.0312 41.6289 35.9688 41.5664 35.9062C41.1289 36.125 40.6602 36.2344 40.1602 36.2344C39.8789 36.1406 39.6914 36.0938 39.5977 36.0938C39.5039 36.125 39.3945 36.1406 39.2695 36.1406C38.832 36.2656 38.6133 36.2188 38.6133 36C38.6133 35.8125 38.6289 35.6406 38.6602 35.4844C38.5039 35.1406 38.4414 34.9531 38.4727 34.9219C38.5039 34.8906 38.5195 34.8438 38.5195 34.7812C38.457 34.625 38.3945 34.5 38.332 34.4062C38.2695 34.3125 38.2383 34.1875 38.2383 34.0312C38.1758 33.9375 38.1289 33.8594 38.0977 33.7969C38.0664 33.7031 38.0352 33.6094 38.0039 33.5156C37.8477 33.1406 37.7852 32.9219 37.8164 32.8594C37.8789 32.7969 37.9102 32.7188 37.9102 32.625C37.7852 32.2812 37.6914 32.0781 37.6289 32.0156C37.5977 31.9219 37.582 31.8438 37.582 31.7812C37.5508 31.4688 37.5039 31.3281 37.4414 31.3594C37.3789 31.3594 37.3164 31.3281 37.2539 31.2656C37.1914 31.0156 37.1914 30.8594 37.2539 30.7969C37.3164 30.7031 37.3633 30.6094 37.3945 30.5156C37.332 30.4531 37.2852 30.375 37.2539 30.2812C37.2539 30.1875 37.2227 30.1094 37.1602 30.0469C37.0039 29.9219 36.8789 29.7969 36.7852 29.6719C36.6914 29.5469 36.6289 29.3594 36.5977 29.1094C36.5664 28.7344 36.5352 28.4844 36.5039 28.3594C36.5039 28.2344 36.5352 28.1094 36.5977 27.9844C36.4414 27.9844 36.2852 28.0156 36.1289 28.0781C36.0039 28.1094 35.832 28.125 35.6133 28.125C35.207 28.0938 34.9258 28.0781 34.7695 28.0781C34.6133 28.0781 34.4102 28.0781 34.1602 28.0781C33.8789 28.0469 33.6758 28.0312 33.5508 28.0312C33.4258 28.0312 33.332 27.9844 33.2695 27.8906C33.1133 27.9531 32.9727 28 32.8477 28.0312C32.7227 28.0625 32.582 28.0625 32.4258 28.0312C32.1133 28.1875 31.9414 28.25 31.9102 28.2188C31.8789 28.1875 31.832 28.1719 31.7695 28.1719C31.707 28.2344 31.6602 28.3125 31.6289 28.4062C31.5977 28.5 31.5508 28.5781 31.4883 28.6406C31.5508 28.7656 31.5664 28.8906 31.5352 29.0156C31.5039 29.1406 31.4727 29.25 31.4414 29.3438C31.5039 29.625 31.5352 29.7969 31.5352 29.8594C31.5352 29.9219 31.5195 29.9844 31.4883 30.0469C31.4258 30.3906 31.3789 30.625 31.3477 30.75C31.1289 30.9688 30.9727 31.2344 30.8789 31.5469C30.8164 31.7031 30.7695 31.8438 30.7383 31.9688C30.707 32.0938 30.6602 32.2344 30.5977 32.3906C30.5352 32.8281 30.457 33.25 30.3633 33.6562C30.3008 34.0625 30.2695 34.4688 30.2695 34.875C30.1758 35.1562 30.0977 35.3125 30.0352 35.3438C30.0039 35.3438 29.9727 35.375 29.9414 35.4375C29.9102 35.5938 29.8789 35.6875 29.8477 35.7188C29.8164 35.7188 29.8164 35.7969 29.8477 35.9531C29.5977 36.1719 29.4727 36.2812 29.4727 36.2812C29.5039 36.3125 29.5039 36.3594 29.4727 36.4219C29.2539 36.6094 29.1289 36.7656 29.0977 36.8906C29.0977 37.0156 29.0508 37.1094 28.957 37.1719C28.8008 37.2031 28.6914 37.1719 28.6289 37.0781C28.5977 36.9844 28.5352 36.9375 28.4414 36.9375C28.2227 37 28.0508 37.125 27.9258 37.3125C27.8008 37.5 27.6133 37.5625 27.3633 37.5C27.3008 37.5938 27.2383 37.7969 27.1758 38.1094C26.9258 38.2344 26.6602 38.3281 26.3789 38.3906C26.1289 38.4844 25.8945 38.6094 25.6758 38.7656C25.6133 38.7344 25.5195 38.7188 25.3945 38.7188C25.3008 38.75 25.2227 38.7656 25.1602 38.7656C25.0977 38.8281 25.0664 38.9062 25.0664 39C25.0977 39.125 25.1133 39.25 25.1133 39.375C24.832 39.5 24.5977 39.5312 24.4102 39.4688C24.1914 39.5625 24.1133 39.8125 24.1758 40.2188C23.957 40.5312 23.6289 40.6562 23.1914 40.5938C23.0352 40.875 22.9258 41.0469 22.8633 41.1094C22.8008 41.1719 22.6914 41.1875 22.5352 41.1562C22.3789 41.25 22.2695 41.3594 22.207 41.4844C22.1133 41.6406 21.9883 41.7656 21.832 41.8594C21.6445 41.8906 21.5352 41.9375 21.5039 42C21.4727 42.0625 21.4258 42.125 21.3633 42.1875C21.207 42.3125 21.0664 42.4219 20.9414 42.5156C20.7852 42.6406 20.6289 42.75 20.4727 42.8438C20.1914 43.1875 20.0352 43.3906 20.0039 43.4531C19.9727 43.5469 19.9102 43.625 19.8164 43.6875C19.5977 43.4375 19.5352 43.2656 19.6289 43.1719C19.6914 43.0781 19.7539 42.9688 19.8164 42.8438C20.0352 42.5 20.1758 42.3125 20.2383 42.2812C20.2695 42.25 20.3008 42.2031 20.332 42.1406C20.3945 42.0781 20.4414 41.9844 20.4727 41.8594C20.4727 41.7656 20.5039 41.6719 20.5664 41.5781C20.9727 41.2031 21.2695 40.8438 21.457 40.5C21.6445 40.1562 21.7852 39.7656 21.8789 39.3281C22.0352 38.8281 22.1758 38.5312 22.3008 38.4375C22.3945 38 22.5039 37.7344 22.6289 37.6406C22.7227 37.5469 22.8008 37.4375 22.8633 37.3125V36.6562C23.0195 36.5938 23.1758 36.5312 23.332 36.4688C23.457 36.4375 23.5977 36.3906 23.7539 36.3281C23.8789 36.0781 24.0195 35.8438 24.1758 35.625C24.3633 35.375 24.5039 35.0781 24.5977 34.7344C24.7539 34.5781 24.8789 34.4062 24.9727 34.2188C25.0352 34.0625 25.0039 33.9375 24.8789 33.8438C24.7539 33.75 24.7227 33.625 24.7852 33.4688C24.7852 33.3438 24.8477 33.2656 24.9727 33.2344C25.1289 33.1719 25.2539 33.1094 25.3477 33.0469C25.4414 32.7656 25.5195 32.5938 25.582 32.5312C25.582 32.3438 25.5977 32.1562 25.6289 31.9688C25.6602 31.7812 25.7383 31.625 25.8633 31.5C25.832 31.3125 25.8633 31.125 25.957 30.9375C25.957 30.375 25.9727 29.875 26.0039 29.4375C26.0664 28.9688 26.207 28.6094 26.4258 28.3594C26.3945 27.7969 26.4414 27.4219 26.5664 27.2344C26.7227 27.0469 26.832 26.8438 26.8945 26.625C26.8945 26.5 26.8633 26.4062 26.8008 26.3438C26.7695 26.25 26.7383 26.1719 26.707 26.1094C26.7695 25.8594 26.8945 25.6719 27.082 25.5469C27.2695 25.3906 27.4258 25.2188 27.5508 25.0312C27.5195 24.75 27.5664 24.5156 27.6914 24.3281C27.8477 24.1094 27.9414 23.875 27.9727 23.625C27.9102 23.1562 27.8945 22.8438 27.9258 22.6875C27.9883 22.5 28.0195 22.3125 28.0195 22.125C28.2383 21.8438 28.332 21.6875 28.3008 21.6562C28.3008 21.625 28.3008 21.5781 28.3008 21.5156C28.3945 21.3906 28.457 21.2344 28.4883 21.0469C28.5195 20.8281 28.582 20.6406 28.6758 20.4844C28.707 20.1094 28.6914 19.7656 28.6289 19.4531C28.7539 19.3281 28.8633 19.1719 28.957 18.9844C29.0508 18.7969 29.1445 18.6094 29.2383 18.4219C28.957 18.2656 28.8633 18.0156 28.957 17.6719C29.082 17.6094 29.1758 17.5312 29.2383 17.4375C29.3008 17.3125 29.3633 17.2031 29.4258 17.1094C29.3633 16.8594 29.3789 16.6875 29.4727 16.5938C29.5664 16.5 29.582 16.375 29.5195 16.2188C29.582 16.0625 29.6445 15.9219 29.707 15.7969C29.7695 15.6406 29.7852 15.4531 29.7539 15.2344C29.7852 15.0781 29.832 14.9531 29.8945 14.8594C29.957 14.7344 29.9727 14.5781 29.9414 14.3906C30.0039 14.3281 30.0664 14.2656 30.1289 14.2031C30.2227 14.1094 30.2695 13.9844 30.2695 13.8281C30.2383 13.7344 30.207 13.6562 30.1758 13.5938C30.1445 13.5 30.1133 13.3906 30.082 13.2656C30.207 12.8906 30.2383 12.6875 30.1758 12.6562C30.1133 12.5938 30.082 12.5312 30.082 12.4688C30.1445 12.375 30.1914 12.2969 30.2227 12.2344C30.2539 12.1719 30.2383 12.0625 30.1758 11.9062C30.082 11.8438 29.9727 11.7812 29.8477 11.7188C29.7539 11.6562 29.6602 11.5938 29.5664 11.5312C29.5039 11.3438 29.5039 11.1875 29.5664 11.0625C29.6602 10.9375 29.7383 10.7969 29.8008 10.6406C29.6133 10.3594 29.4883 10.2188 29.4258 10.2188C29.3945 10.1875 29.3477 10.1719 29.2852 10.1719C29.0039 9.95312 28.832 9.73438 28.7695 9.51562C28.457 9.45312 28.207 9.39062 28.0195 9.32812C28.1445 9.04688 28.3008 8.90625 28.4883 8.90625C28.707 8.90625 28.8789 8.84375 29.0039 8.71875C29.6602 8.53125 30.4258 8.46875 31.3008 8.53125C31.4883 8.65625 31.6445 8.73438 31.7695 8.76562C31.9258 8.79688 32.0508 8.79688 32.1445 8.76562C32.2383 8.70312 32.3633 8.64062 32.5195 8.57812C32.7383 8.64062 32.9258 8.625 33.082 8.53125C33.2383 8.40625 33.4414 8.375 33.6914 8.4375C33.9414 8.625 34.0977 8.70312 34.1602 8.67188C34.2227 8.60938 34.2852 8.5625 34.3477 8.53125C34.6289 8.59375 34.832 8.625 34.957 8.625C35.1133 8.625 35.2227 8.65625 35.2852 8.71875C35.3789 8.65625 35.4727 8.60938 35.5664 8.57812C35.6914 8.51562 35.8164 8.45312 35.9414 8.39062C36.0977 8.45312 36.207 8.53125 36.2695 8.625C36.3633 8.71875 36.4727 8.79688 36.5977 8.85938C36.5352 9.10938 36.5352 9.29688 36.5977 9.42188C36.6914 9.54688 36.7695 9.6875 36.832 9.84375C36.8008 9.96875 36.7695 10.0625 36.7383 10.125C36.707 10.1875 36.6758 10.2656 36.6445 10.3594C36.8633 10.6094 37.0352 10.7969 37.1602 10.9219C37.1602 11.1719 37.1133 11.3594 37.0195 11.4844C37.1445 11.7031 37.2227 11.9531 37.2539 12.2344C37.2852 12.5156 37.3789 12.7344 37.5352 12.8906C37.5352 13.0469 37.5508 13.1719 37.582 13.2656C37.6445 13.3594 37.6758 13.4688 37.6758 13.5938C37.707 13.9062 37.707 14.0781 37.6758 14.1094C37.6445 14.1094 37.6289 14.1406 37.6289 14.2031C37.7227 14.3281 37.8008 14.4688 37.8633 14.625C37.9258 14.75 37.957 14.9375 37.957 15.1875C38.2383 15.5312 38.3477 15.7344 38.2852 15.7969C38.3164 16.0469 38.3477 16.2656 38.3789 16.4531C38.4414 16.6406 38.5352 16.8125 38.6602 16.9688C38.6602 17.2812 38.6914 17.5469 38.7539 17.7656C38.8164 17.9844 38.8789 18.2031 38.9414 18.4219C39.1602 18.3906 39.2852 18.3594 39.3164 18.3281C39.3789 18.2656 39.4414 18.2344 39.5039 18.2344C39.6602 18.4844 39.6914 18.6406 39.5977 18.7031C39.5039 18.7344 39.4414 18.7969 39.4102 18.8906C39.4414 19.2344 39.4258 19.4375 39.3633 19.5C39.4258 19.6562 39.4258 19.8281 39.3633 20.0156C39.332 20.2031 39.3633 20.375 39.457 20.5312C39.4883 20.625 39.5352 20.7188 39.5977 20.8125C39.6914 20.875 39.7383 20.9844 39.7383 21.1406C40.0195 21.3906 40.1445 21.625 40.1133 21.8438C40.1133 22.0625 40.082 22.2656 40.0195 22.4531C40.1445 22.7969 40.2227 23 40.2539 23.0625C40.2852 23.0938 40.332 23.125 40.3945 23.1562C40.5195 23.3125 40.6133 23.5 40.6758 23.7188C40.7383 23.9375 40.8008 24.1406 40.8633 24.3281C40.9258 24.7344 40.957 25 40.957 25.125C41.207 25.5938 41.3164 25.9531 41.2852 26.2031C41.2852 26.3281 41.2383 26.4375 41.1445 26.5312C41.0508 26.625 40.9883 26.7344 40.957 26.8594C41.2695 26.9219 41.4414 27.0312 41.4727 27.1875C41.5039 27.5938 41.5508 27.8906 41.6133 28.0781C41.6758 28.2344 41.6914 28.4375 41.6602 28.6875C41.7227 28.8438 41.7695 29.0312 41.8008 29.25C41.832 29.4375 41.8945 29.6406 41.9883 29.8594C42.0508 30.0156 42.082 30.1562 42.082 30.2812C42.1133 30.375 42.0977 30.5 42.0352 30.6562C42.0977 30.7812 42.1914 30.9062 42.3164 31.0312C42.4414 31.1562 42.4414 31.3125 42.3164 31.5C42.4414 31.9688 42.6133 32.3125 42.832 32.5312C42.8945 32.75 42.957 32.9062 43.0195 33C43.1133 33.0625 43.1914 33.1562 43.2539 33.2812C43.2539 33.4062 43.2383 33.5156 43.207 33.6094C43.1758 33.6719 43.1445 33.7344 43.1133 33.7969C43.1758 33.9531 43.2383 34.0781 43.3008 34.1719C43.3945 34.2656 43.4258 34.4375 43.3945 34.6875C43.457 34.75 43.5039 34.8438 43.5352 34.9688C43.5664 35.0625 43.6133 35.1406 43.6758 35.2031ZM35.707 23.7656C35.6445 23.6719 35.5664 23.5938 35.4727 23.5312C35.4102 23.4375 35.3477 23.3125 35.2852 23.1562C35.2539 22.9375 35.2539 22.7812 35.2852 22.6875C35.3164 22.5625 35.3477 22.4219 35.3789 22.2656C35.1289 22.0781 34.9258 21.875 34.7695 21.6562C34.6445 21.4375 34.6602 21.1719 34.8164 20.8594L34.582 20.3438C34.457 20.1562 34.3945 19.9844 34.3945 19.8281C34.207 19.6719 34.1602 19.4531 34.2539 19.1719C34.1914 19.1094 34.1445 19 34.1133 18.8438C34.1133 18.6562 34.1445 18.5156 34.207 18.4219C34.1758 18.0781 34.1758 17.7969 34.207 17.5781C34.2695 17.3281 34.2695 17.125 34.207 16.9688C34.1133 17.0625 34.0508 17.1719 34.0195 17.2969C33.9883 17.3906 33.9414 17.4844 33.8789 17.5781C33.8164 17.8906 33.7695 18.1406 33.7383 18.3281C33.707 18.5156 33.6602 18.6875 33.5977 18.8438C33.6289 19 33.6445 19.2344 33.6445 19.5469C33.582 19.6719 33.5039 19.7812 33.4102 19.875C33.3164 19.9688 33.2227 20.0781 33.1289 20.2031C33.2539 20.3594 33.2852 20.5156 33.2227 20.6719C33.1602 20.7969 33.082 20.9219 32.9883 21.0469C33.1133 21.3281 33.1445 21.5156 33.082 21.6094C33.0195 21.6719 32.9883 21.75 32.9883 21.8438C32.8945 22.0938 32.8789 22.3438 32.9414 22.5938C33.0352 22.8438 33.0352 23.0938 32.9414 23.3438C33.0039 23.5625 33.0195 23.7656 32.9883 23.9531C32.9883 24.1094 33.0664 24.2188 33.2227 24.2812C33.4727 24.25 33.6602 24.1719 33.7852 24.0469C33.9102 23.9219 34.082 23.875 34.3008 23.9062C34.6758 24.0625 34.9414 24.1562 35.0977 24.1875C35.2852 24.1875 35.4883 24.1875 35.707 24.1875V23.7656ZM66.2227 7.96875C66.2852 8.3125 66.2852 8.53125 66.2227 8.625C66.1602 8.71875 66.0977 8.79688 66.0352 8.85938H65.4258C65.3008 9.20312 65.1602 9.375 65.0039 9.375C64.8789 9.375 64.7852 9.42188 64.7227 9.51562C64.5352 9.57812 64.4258 9.64062 64.3945 9.70312C64.3945 9.73438 64.3633 9.78125 64.3008 9.84375C64.082 10.0312 63.9258 10.1562 63.832 10.2188C63.7383 10.2812 63.6914 10.3906 63.6914 10.5469C63.6289 10.6094 63.5195 10.6562 63.3633 10.6875C63.2383 10.7188 63.1289 10.75 63.0352 10.7812C62.9102 11.375 62.7852 11.75 62.6602 11.9062C62.5352 12.0312 62.4414 12.2031 62.3789 12.4219C62.4102 12.7344 62.4727 12.9219 62.5664 12.9844C62.6602 13.0469 62.7383 13.1094 62.8008 13.1719C62.7383 13.3906 62.6602 13.5156 62.5664 13.5469C62.5039 13.5469 62.4414 13.5781 62.3789 13.6406C62.3789 13.7656 62.3945 13.875 62.4258 13.9688C62.4883 14.0312 62.5352 14.125 62.5664 14.25C62.5664 14.5 62.5039 14.6875 62.3789 14.8125C62.2539 14.9062 62.207 15.0781 62.2383 15.3281C62.4883 15.6719 62.582 15.8906 62.5195 15.9844C62.457 16.0469 62.4102 16.125 62.3789 16.2188C62.6289 16.5938 62.7227 16.8281 62.6602 16.9219C62.5977 16.9844 62.5352 17.0625 62.4727 17.1562C62.5664 17.5312 62.582 17.75 62.5195 17.8125C62.4883 17.8438 62.457 17.8906 62.4258 17.9531C62.5195 18.3594 62.5039 18.5938 62.3789 18.6562C62.2852 18.6875 62.1914 18.7344 62.0977 18.7969C62.2539 18.9219 62.3789 19.0312 62.4727 19.125C62.5977 19.2188 62.6914 19.3438 62.7539 19.5C62.7227 19.6562 62.7383 19.7812 62.8008 19.875C62.8633 19.9688 62.8789 20.0938 62.8477 20.25C62.8477 20.3438 62.8164 20.4219 62.7539 20.4844C62.6914 20.5469 62.6445 20.625 62.6133 20.7188C62.6445 20.8125 62.6758 20.9062 62.707 21C62.7695 21.0938 62.7852 21.1875 62.7539 21.2812C62.5664 21.6562 62.4883 21.9062 62.5195 22.0312C62.5508 22.125 62.5352 22.2344 62.4727 22.3594C62.5039 22.4531 62.5664 22.5469 62.6602 22.6406C62.7539 22.7344 62.8008 22.875 62.8008 23.0625C62.832 23.2812 62.7695 23.5312 62.6133 23.8125C62.6133 23.9688 62.6445 24.0938 62.707 24.1875C62.7695 24.2812 62.832 24.4062 62.8945 24.5625C62.8633 24.7188 62.8008 24.8281 62.707 24.8906C62.6133 24.9531 62.5195 25.0156 62.4258 25.0781C62.4258 25.4531 62.4258 25.75 62.4258 25.9688C62.4258 26.1562 62.3633 26.2969 62.2383 26.3906C62.3008 26.4531 62.3789 26.5625 62.4727 26.7188C62.5664 26.8438 62.5508 26.9844 62.4258 27.1406C62.5195 27.2344 62.6289 27.3125 62.7539 27.375C62.8789 27.4375 62.9727 27.5469 63.0352 27.7031C63.0352 27.9531 62.9258 28.0938 62.707 28.125C62.7383 28.3438 62.7383 28.4844 62.707 28.5469C62.6758 28.5781 62.6445 28.625 62.6133 28.6875C62.6758 28.8438 62.707 29.0625 62.707 29.3438C62.7383 29.625 62.6758 29.7969 62.5195 29.8594C62.5195 30.1406 62.5352 30.2969 62.5664 30.3281C62.6289 30.3594 62.6445 30.4062 62.6133 30.4688C62.5508 30.625 62.457 30.7344 62.332 30.7969C62.207 30.8281 62.1133 30.9062 62.0508 31.0312C61.9883 31.1562 61.9727 31.2969 62.0039 31.4531C62.0352 31.5781 62.0195 31.7031 61.957 31.8281C62.0508 32.1406 62.1289 32.3281 62.1914 32.3906C62.2852 32.4531 62.3633 32.5312 62.4258 32.625C62.3945 32.7812 62.4102 33.0156 62.4727 33.3281C62.3164 33.5469 62.2383 33.7969 62.2383 34.0781C62.2383 34.3281 62.1758 34.5625 62.0508 34.7812C62.1133 35.0938 62.1602 35.25 62.1914 35.25C62.2539 35.25 62.3164 35.2812 62.3789 35.3438C62.3789 35.5625 62.2695 35.7031 62.0508 35.7656C61.832 35.8281 61.6914 35.75 61.6289 35.5312C61.4727 35.5625 61.332 35.625 61.207 35.7188C61.082 35.7812 60.9414 35.7812 60.7852 35.7188C60.4102 35.8438 60.1602 35.8281 60.0352 35.6719C59.9727 35.7031 59.8633 35.7656 59.707 35.8594C59.582 35.9531 59.457 35.9844 59.332 35.9531C59.082 35.8281 58.8789 35.7969 58.7227 35.8594C58.5977 35.8906 58.457 35.9219 58.3008 35.9531C58.1758 35.9844 58.0508 36 57.9258 36C57.832 35.9688 57.7383 35.8906 57.6445 35.7656C57.7383 35.5781 57.7227 35.4219 57.5977 35.2969C57.5039 35.1406 57.5039 34.9375 57.5977 34.6875C57.4102 34.4688 57.3164 34.3281 57.3164 34.2656C57.3477 34.1719 57.3477 34.0781 57.3164 33.9844C57.2227 33.9531 57.1133 33.9375 56.9883 33.9375C56.8945 33.9375 56.832 33.875 56.8008 33.75C56.7695 33.4375 56.6602 33.25 56.4727 33.1875C56.3789 33.0312 56.3164 32.8594 56.2852 32.6719C56.2539 32.4531 56.207 32.25 56.1445 32.0625C55.7383 31.8438 55.6289 31.6094 55.8164 31.3594C55.7539 31.2969 55.707 31.2031 55.6758 31.0781C55.6758 30.9531 55.6445 30.8438 55.582 30.75C55.3945 30.3438 55.2383 30.0469 55.1133 29.8594C54.707 29.6406 54.4414 29.4688 54.3164 29.3438C54.2539 29.1875 54.2539 29.0625 54.3164 28.9688C54.3789 28.8438 54.3789 28.6875 54.3164 28.5C54.0977 28.25 53.9727 28.0312 53.9414 27.8438C53.9102 27.6562 53.832 27.5 53.707 27.375C53.332 26.9688 53.1914 26.5312 53.2852 26.0625C53.0352 25.7812 52.8633 25.6094 52.7695 25.5469C52.6758 25.4844 52.6289 25.375 52.6289 25.2188C52.7227 25.0625 52.832 25.0312 52.957 25.125C53.082 25.2188 53.1758 25.2969 53.2383 25.3594C53.3633 24.9219 53.332 24.7031 53.1445 24.7031C52.957 24.7031 52.832 24.6094 52.7695 24.4219C52.6758 24.1719 52.5664 24.0312 52.4414 24C52.3164 23.9375 52.2227 23.8594 52.1602 23.7656C52.0664 23.6094 52.0195 23.4062 52.0195 23.1562C52.0195 22.875 52.0508 22.6406 52.1133 22.4531C51.8633 22.1406 51.7539 21.9219 51.7852 21.7969C51.8164 21.6406 51.8633 21.5156 51.9258 21.4219C51.8633 21.2656 51.7539 21.1875 51.5977 21.1875C51.4414 21.1562 51.3789 21.0312 51.4102 20.8125C51.2539 20.8125 51.1133 20.8125 50.9883 20.8125C50.8633 20.8125 50.7695 20.7812 50.707 20.7188C50.6758 20.9062 50.707 21.0312 50.8008 21.0938C50.8945 21.125 50.957 21.2188 50.9883 21.375C50.8945 21.7188 50.8789 21.9219 50.9414 21.9844C51.0039 22.0156 51.0352 22.0938 51.0352 22.2188C50.9727 22.3438 50.8945 22.4375 50.8008 22.5C50.7383 22.5625 50.6758 22.625 50.6133 22.6875C50.582 22.9688 50.6133 23.1875 50.707 23.3438C50.832 23.5 50.8633 23.7031 50.8008 23.9531C50.832 24.0781 50.8789 24.2031 50.9414 24.3281C51.0039 24.4531 51.0508 24.5938 51.082 24.75C51.1133 24.9062 51.1133 25.0469 51.082 25.1719C51.0508 25.2969 51.0664 25.4219 51.1289 25.5469C51.0039 25.6406 50.9414 25.8281 50.9414 26.1094C50.9414 26.3594 51.0039 26.5312 51.1289 26.625C51.3164 26.6875 51.5039 26.7344 51.6914 26.7656C51.9102 26.7969 51.9883 26.9531 51.9258 27.2344C51.8008 27.3906 51.6445 27.5312 51.457 27.6562C51.2695 27.75 51.1602 27.9375 51.1289 28.2188C51.0977 28.5938 51.082 28.8594 51.082 29.0156C51.082 29.1406 51.082 29.3125 51.082 29.5312C50.9883 29.625 50.8945 29.7031 50.8008 29.7656C50.707 29.8281 50.6289 29.9062 50.5664 30C50.6602 30.4062 50.7383 30.6406 50.8008 30.7031C50.8633 30.7344 50.9102 30.7969 50.9414 30.8906C50.9102 31.3281 50.8633 31.6406 50.8008 31.8281C50.832 32.3906 50.8945 32.8125 50.9883 33.0938C51.1133 33.3438 51.2695 33.5469 51.457 33.7031C51.457 33.8594 51.4258 33.9844 51.3633 34.0781C51.3008 34.1719 51.2383 34.2656 51.1758 34.3594C51.207 34.4844 51.2695 34.6406 51.3633 34.8281C51.457 35.0156 51.4102 35.1406 51.2227 35.2031C50.9414 35.1094 50.707 35.0781 50.5195 35.1094C50.332 35.1094 50.207 35.1406 50.1445 35.2031C50.1445 35.6094 50.1602 35.875 50.1914 36C50.2227 36.0938 50.207 36.2031 50.1445 36.3281C50.0508 36.3906 49.9414 36.4062 49.8164 36.375C49.7227 36.3438 49.6133 36.3438 49.4883 36.375C49.4258 36.5938 49.332 36.7969 49.207 36.9844C49.1133 37.1719 48.957 37.2969 48.7383 37.3594C48.707 37.5156 48.6445 37.625 48.5508 37.6875C48.4883 37.75 48.4727 37.875 48.5039 38.0625C48.4102 38.125 48.3164 38.1875 48.2227 38.25C48.1602 38.3125 48.0508 38.3438 47.8945 38.3438C47.957 38.5938 47.9102 38.8125 47.7539 39C47.5977 39.2188 47.4414 39.2031 47.2852 38.9531C47.1914 39.0156 47.1289 39.0938 47.0977 39.1875C47.0664 39.2812 47.0195 39.3594 46.957 39.4219C46.8945 39.6406 46.8477 39.7969 46.8164 39.8906C46.7852 40.0156 46.7539 40.1562 46.7227 40.3125C46.5664 40.4062 46.4727 40.5469 46.4414 40.7344C46.4102 40.9219 46.3164 41.0781 46.1602 41.2031C45.9414 41.0781 45.8008 40.9844 45.7383 40.9219C45.707 40.8594 45.6758 40.7656 45.6445 40.6406C45.6758 40.5469 45.7539 40.4531 45.8789 40.3594C46.0039 40.2656 45.9883 40.1406 45.832 39.9844C45.957 39.6719 45.9883 39.5 45.9258 39.4688C45.8945 39.4375 45.8789 39.375 45.8789 39.2812C45.9727 38.9062 46.0039 38.7031 45.9727 38.6719C45.9727 38.0781 46.0664 37.6094 46.2539 37.2656C46.2227 37.0156 46.2227 36.875 46.2539 36.8438C46.2852 36.8125 46.3008 36.7656 46.3008 36.7031C46.2383 36.5469 46.1758 36.4219 46.1133 36.3281C46.0508 36.2344 46.0195 36.1094 46.0195 35.9531C45.9883 35.7344 46.0039 35.5469 46.0664 35.3906C46.1289 35.2344 46.207 35.0781 46.3008 34.9219C46.207 34.5469 46.1289 34.3281 46.0664 34.2656C46.0039 34.2031 45.9883 34.0938 46.0195 33.9375C46.1133 33.6875 46.1758 33.5312 46.207 33.4688C46.2383 33.375 46.2695 33.2969 46.3008 33.2344C46.2695 33.0469 46.207 32.9219 46.1133 32.8594C46.0195 32.7656 45.9883 32.6094 46.0195 32.3906C46.082 32.1406 46.0664 32 45.9727 31.9688C45.8789 31.9375 45.8477 31.8594 45.8789 31.7344C46.0977 31.4219 46.1914 31.2344 46.1602 31.1719C46.1289 31.0781 46.1289 30.9531 46.1602 30.7969C45.8789 30.3906 45.7852 30.1562 45.8789 30.0938C46.0039 30 46.1133 29.8906 46.207 29.7656C46.1445 29.6719 46.0664 29.5625 45.9727 29.4375C45.9102 29.3125 45.9102 29.1406 45.9727 28.9219C45.9102 28.8594 45.832 28.8125 45.7383 28.7812C45.6445 28.75 45.582 28.6719 45.5508 28.5469C45.6445 28.2969 45.7539 28.0938 45.8789 27.9375C46.0352 27.7812 46.1758 27.5938 46.3008 27.375C46.2383 27.2812 46.1445 27.2188 46.0195 27.1875C45.9258 27.125 45.8945 27 45.9258 26.8125C45.957 26.6875 46.0039 26.6094 46.0664 26.5781C46.1289 26.5156 46.1914 26.4531 46.2539 26.3906C46.1289 26.2031 46.1289 26.0469 46.2539 25.9219C46.3789 25.7656 46.4258 25.5781 46.3945 25.3594C46.582 25.1719 46.7539 25.0625 46.9102 25.0312C46.8477 24.875 46.7852 24.7188 46.7227 24.5625C46.6914 24.4062 46.707 24.2188 46.7695 24C46.6758 23.8125 46.5352 23.6562 46.3477 23.5312C46.1602 23.4062 46.0508 23.2031 46.0195 22.9219C46.3008 22.5469 46.4258 22.1875 46.3945 21.8438C46.4883 21.4688 46.4414 21.2031 46.2539 21.0469C46.0977 20.8594 46.1133 20.6875 46.3008 20.5312C46.2383 20.375 46.1758 20.1875 46.1133 19.9688C46.082 19.75 46.1445 19.5625 46.3008 19.4062C46.2695 19.3125 46.2227 19.2344 46.1602 19.1719C46.1289 19.1094 46.1289 19 46.1602 18.8438C46.0977 18.7812 46.0352 18.7188 45.9727 18.6562C45.9102 18.5938 45.8477 18.5312 45.7852 18.4688C45.7227 18.2188 45.7539 18.0625 45.8789 18C46.0352 17.9062 46.1445 17.7812 46.207 17.625C46.207 17.4688 46.2383 17.3281 46.3008 17.2031C46.3633 17.0469 46.3633 16.875 46.3008 16.6875C46.332 16.3125 46.3008 16.1094 46.207 16.0781C46.1133 16.0156 46.0664 15.9219 46.0664 15.7969C46.0352 15.6406 46.0664 15.5469 46.1602 15.5156C46.2852 15.4531 46.4102 15.375 46.5352 15.2812C46.4727 15.0312 46.4102 14.7656 46.3477 14.4844C46.3164 14.1719 46.4102 13.9531 46.6289 13.8281C46.4414 13.5781 46.3008 13.4375 46.207 13.4062C46.1445 13.375 46.082 13.3125 46.0195 13.2188C45.9883 12.875 45.8945 12.6719 45.7383 12.6094C45.6133 12.5469 45.5195 12.4531 45.457 12.3281C45.5195 12.1406 45.5039 12 45.4102 11.9062C45.3477 11.7812 45.3008 11.6406 45.2695 11.4844C45.1133 11.5156 44.9414 11.5312 44.7539 11.5312C44.5664 11.5 44.4727 11.3906 44.4727 11.2031C44.5664 10.8906 44.5352 10.7188 44.3789 10.6875C44.2227 10.6562 44.1602 10.5156 44.1914 10.2656C43.8789 10.2031 43.707 10.0781 43.6758 9.89062C43.5195 9.82812 43.3789 9.78125 43.2539 9.75C43.0977 9.71875 42.9883 9.64062 42.9258 9.51562C42.8945 9.23438 42.8477 9.07812 42.7852 9.04688C42.6914 9.01562 42.6445 8.9375 42.6445 8.8125C42.6133 8.65625 42.6758 8.57812 42.832 8.57812C42.9883 8.54688 43.1445 8.5 43.3008 8.4375C43.5195 8.4375 43.6445 8.45312 43.6758 8.48438C43.707 8.51562 43.7539 8.54688 43.8164 8.57812C44.1289 8.57812 44.4102 8.59375 44.6602 8.625C44.9414 8.625 45.207 8.59375 45.457 8.53125C45.8633 8.65625 46.1602 8.67188 46.3477 8.57812C46.5664 8.48438 46.8164 8.42188 47.0977 8.39062C47.4414 8.48438 47.6914 8.51562 47.8477 8.48438C48.0352 8.45312 48.1602 8.51562 48.2227 8.67188C48.4727 8.64062 48.6914 8.60938 48.8789 8.57812C49.0977 8.54688 49.2852 8.5 49.4414 8.4375C49.6602 8.4375 49.8477 8.42188 50.0039 8.39062C50.1914 8.35938 50.3945 8.32812 50.6133 8.29688C50.707 8.54688 50.707 8.70312 50.6133 8.76562C50.5508 8.79688 50.5039 8.85938 50.4727 8.95312C51.0039 9.10938 51.3789 9.1875 51.5977 9.1875C51.5664 9.34375 51.4727 9.4375 51.3164 9.46875C51.1914 9.46875 51.1289 9.54688 51.1289 9.70312C51.1602 9.79688 51.2227 9.85938 51.3164 9.89062C51.4102 9.89062 51.5039 9.89062 51.5977 9.89062C51.6914 9.89062 51.7695 9.90625 51.832 9.9375C51.8945 9.96875 51.9258 10.0312 51.9258 10.125C51.832 10.375 51.8164 10.5312 51.8789 10.5938C51.9414 10.6562 52.0039 10.7344 52.0664 10.8281C52.0977 11.0781 52.1289 11.3125 52.1602 11.5312C52.2227 11.7188 52.1914 11.8906 52.0664 12.0469C52.2227 12.1719 52.3945 12.2656 52.582 12.3281C52.8008 12.3594 52.9727 12.4531 53.0977 12.6094C53.1602 12.7344 53.1914 12.8906 53.1914 13.0781C53.2227 13.2656 53.1758 13.3906 53.0508 13.4531C53.1445 13.7344 53.1758 13.8906 53.1445 13.9219C53.1133 13.9531 53.0977 14 53.0977 14.0625C53.1289 14.1562 53.1445 14.2656 53.1445 14.3906C53.1445 14.5156 53.1602 14.6562 53.1914 14.8125C53.6289 15.1562 53.9258 15.5156 54.082 15.8906C54.1133 16.1719 54.1914 16.3438 54.3164 16.4062C54.4414 16.4688 54.5352 16.5625 54.5977 16.6875C54.5352 16.8438 54.5508 16.9688 54.6445 17.0625C54.7383 17.125 54.7539 17.2344 54.6914 17.3906C54.8164 17.4844 54.9414 17.5625 55.0664 17.625C55.1914 17.6562 55.2695 17.7656 55.3008 17.9531C55.332 18.2031 55.3945 18.3594 55.4883 18.4219C55.582 18.4531 55.6445 18.5312 55.6758 18.6562C55.832 19 55.8945 19.2188 55.8633 19.3125C55.8633 19.4062 55.8477 19.5 55.8164 19.5938C56.1289 19.7812 56.2852 19.9375 56.2852 20.0625C56.2852 20.1562 56.2539 20.2656 56.1914 20.3906C56.1289 20.5156 56.0664 20.6406 56.0039 20.7656C55.9414 20.8906 55.9102 21.0156 55.9102 21.1406C56.1914 21.1406 56.3633 21.2031 56.4258 21.3281C56.3945 21.5156 56.3633 21.7188 56.332 21.9375C56.332 22.125 56.4102 22.2969 56.5664 22.4531C56.9102 22.5469 57.0664 22.6719 57.0352 22.8281C57.1289 22.8906 57.2227 22.9375 57.3164 22.9688C57.4102 23 57.4727 23.0938 57.5039 23.25C57.4102 23.5938 57.3945 23.7812 57.457 23.8125C57.5195 23.8438 57.5664 23.8906 57.5977 23.9531C57.6602 24.0156 57.6914 24.0938 57.6914 24.1875C57.6914 24.2812 57.707 24.375 57.7383 24.4688C57.8945 24.4062 57.957 24.3125 57.9258 24.1875C57.8945 24.0625 57.8633 23.9219 57.832 23.7656C57.9883 23.3594 57.9883 23.125 57.832 23.0625C57.707 23 57.6602 22.8438 57.6914 22.5938C57.7852 22.25 57.8945 22.0156 58.0195 21.8906C58.1445 21.7344 58.2227 21.5781 58.2539 21.4219C58.2539 21.2969 58.2227 21.1875 58.1602 21.0938C58.1289 20.9688 58.1133 20.8594 58.1133 20.7656C58.0195 20.6719 57.9102 20.5781 57.7852 20.4844C57.6914 20.3906 57.6133 20.2812 57.5508 20.1562C57.5508 19.7188 57.5508 19.4688 57.5508 19.4062C57.582 18.9062 57.6445 18.5625 57.7383 18.375C57.832 18.1562 57.957 17.9844 58.1133 17.8594C57.9883 17.4844 57.957 17.2969 58.0195 17.2969C58.1133 17.2656 58.1758 17.2188 58.207 17.1562C58.1445 17.0312 58.0664 16.9688 57.9727 16.9688C57.8789 16.9375 57.8008 16.8906 57.7383 16.8281C57.6445 16.6406 57.6289 16.4375 57.6914 16.2188C57.7852 16 57.9102 15.8594 58.0664 15.7969C57.8164 15.4531 57.6289 15.2188 57.5039 15.0938C57.3789 14.9688 57.332 14.7812 57.3633 14.5312C57.3945 14.375 57.4727 14.2656 57.5977 14.2031C57.7539 14.1094 57.9102 14.0312 58.0664 13.9688C58.0039 13.8125 57.8477 13.7031 57.5977 13.6406C57.3789 13.5469 57.3164 13.3594 57.4102 13.0781C57.5664 12.7656 57.6133 12.5938 57.5508 12.5625C57.5195 12.5 57.5195 12.4062 57.5508 12.2812C57.5508 12.1562 57.5664 12.0625 57.5977 12C57.6602 11.9375 57.7227 11.875 57.7852 11.8125C57.8164 11.6562 57.8164 11.5312 57.7852 11.4375C57.7539 11.3125 57.707 11.1875 57.6445 11.0625C57.6445 10.6875 57.5977 10.4531 57.5039 10.3594C57.4414 10.2344 57.457 10.0938 57.5508 9.9375C57.332 9.6875 57.2383 9.51562 57.2695 9.42188C57.3008 9.29688 57.3164 9.17188 57.3164 9.04688C57.6289 8.64062 57.9102 8.39062 58.1602 8.29688C58.4414 8.17188 58.6914 8.1875 58.9102 8.34375C59.0352 8.3125 59.1289 8.28125 59.1914 8.25C59.2852 8.21875 59.3945 8.1875 59.5195 8.15625C59.832 8.40625 60.0664 8.5 60.2227 8.4375C60.4102 8.34375 60.5508 8.26562 60.6445 8.20312C60.9883 8.17188 61.2227 8.14062 61.3477 8.10938C61.5039 8.04688 61.6758 8.03125 61.8633 8.0625C62.1758 8.1875 62.3945 8.26562 62.5195 8.29688C62.6445 8.29688 62.7852 8.26562 62.9414 8.20312C63.0977 8.26562 63.2695 8.28125 63.457 8.25C63.6445 8.21875 63.8008 8.17188 63.9258 8.10938C64.207 8.23438 64.4727 8.26562 64.7227 8.20312C64.9727 8.10938 65.207 8.03125 65.4258 7.96875C65.707 8.0625 65.8789 8.09375 65.9414 8.0625C66.0039 8 66.0977 7.96875 66.2227 7.96875ZM85.1133 13.6875C85.0508 13.875 85.0508 14.0938 85.1133 14.3438C85.1758 14.5625 85.1602 14.7656 85.0664 14.9531C84.8164 14.9531 84.6758 14.9219 84.6445 14.8594C84.6445 14.7969 84.6289 14.7344 84.5977 14.6719C84.3477 14.4531 84.1914 14.2812 84.1289 14.1562C83.9102 14.0938 83.7539 13.9844 83.6602 13.8281C83.5977 13.6719 83.4414 13.5781 83.1914 13.5469C82.8789 13.6719 82.6602 13.6719 82.5352 13.5469C82.5352 13.3906 82.5039 13.2656 82.4414 13.1719C82.3789 13.0469 82.2227 13.0312 81.9727 13.125C81.6914 12.7812 81.5039 12.6094 81.4102 12.6094C81.3477 12.5781 81.2852 12.5312 81.2227 12.4688C80.8477 12.4062 80.6445 12.3438 80.6133 12.2812C80.6133 12.1875 80.582 12.1094 80.5195 12.0469C80.3633 12.0781 80.2539 12.125 80.1914 12.1875C80.1289 12.25 80.0508 12.3125 79.957 12.375C79.8008 12.375 79.6133 12.4062 79.3945 12.4688C79.1758 12.5312 79.0508 12.4375 79.0195 12.1875C78.8633 12.2188 78.6445 12.2812 78.3633 12.375C78.1133 12.4688 77.9258 12.5156 77.8008 12.5156C77.3633 12.4219 77.082 12.4375 76.957 12.5625C76.832 12.6562 76.6602 12.7031 76.4414 12.7031C76.4727 12.9531 76.4883 13.1875 76.4883 13.4062C76.4883 13.625 76.4102 13.7812 76.2539 13.875C76.3164 14.0625 76.3633 14.2656 76.3945 14.4844C76.457 14.6719 76.5195 14.8594 76.582 15.0469C76.457 15.6719 76.3945 16.125 76.3945 16.4062C76.4258 16.6875 76.4414 17.0156 76.4414 17.3906C76.5039 17.7031 76.5195 17.8906 76.4883 17.9531C76.457 17.9844 76.4102 18.0312 76.3477 18.0938C76.3477 18.2188 76.3164 18.3281 76.2539 18.4219C76.2227 18.4844 76.2383 18.5781 76.3008 18.7031C76.2383 18.7969 76.1914 18.9219 76.1602 19.0781C76.1602 19.2344 76.1445 19.3906 76.1133 19.5469C76.1445 19.7031 76.1914 19.8438 76.2539 19.9688C76.3477 20.0938 76.4102 20.25 76.4414 20.4375C76.4414 20.6562 76.3945 20.875 76.3008 21.0938C76.2383 21.2812 76.1758 21.4531 76.1133 21.6094C76.1758 21.7969 76.2383 22.0156 76.3008 22.2656C76.3633 22.4844 76.4258 22.6875 76.4883 22.875C76.4883 23.3125 76.4727 23.625 76.4414 23.8125C76.4102 24 76.4102 24.1875 76.4414 24.375C76.7227 24.5625 76.832 24.7188 76.7695 24.8438C76.707 24.9375 76.707 25.0469 76.7695 25.1719C76.6133 25.3281 76.5352 25.5312 76.5352 25.7812C76.5352 26.0312 76.5039 26.2812 76.4414 26.5312C76.5039 26.6562 76.5195 26.7969 76.4883 26.9531C76.4883 27.1094 76.5195 27.2344 76.582 27.3281C76.5195 27.5781 76.5352 27.8438 76.6289 28.125C76.7227 28.375 76.707 28.6094 76.582 28.8281C76.6133 28.8906 76.6602 28.9688 76.7227 29.0625C76.7852 29.125 76.832 29.2031 76.8633 29.2969C76.8633 29.4219 76.8477 29.5156 76.8164 29.5781C76.8164 29.6406 76.8008 29.7188 76.7695 29.8125C76.832 30.0938 76.8633 30.2656 76.8633 30.3281C76.8945 30.3906 76.8945 30.4375 76.8633 30.4688C76.9883 30.7188 77.0508 31.0938 77.0508 31.5938C76.9883 31.6875 76.957 31.7969 76.957 31.9219C76.9883 32.0469 76.9727 32.1719 76.9102 32.2969C76.8789 32.3906 76.832 32.4844 76.7695 32.5781C76.707 32.6406 76.6758 32.7188 76.6758 32.8125C76.6445 33.0625 76.6758 33.2656 76.7695 33.4219C76.8633 33.5469 76.9102 33.7188 76.9102 33.9375C76.8477 34 76.8008 34.0781 76.7695 34.1719C76.7383 34.2344 76.6914 34.3125 76.6289 34.4062C76.6602 34.4688 76.6914 34.5469 76.7227 34.6406C76.7852 34.7344 76.8477 34.8281 76.9102 34.9219C77.0977 35.2969 77.1602 35.5156 77.0977 35.5781C77.0352 35.8594 76.9258 36 76.7695 36C76.6445 36.0625 76.5352 36.1406 76.4414 36.2344C76.3789 36.3281 76.2695 36.375 76.1133 36.375C75.7383 36.625 75.5039 36.7031 75.4102 36.6094C75.3477 36.5156 75.2383 36.4375 75.082 36.375C74.9258 36.375 74.8477 36.4375 74.8477 36.5625C74.8477 36.6875 74.7852 36.7812 74.6602 36.8438C74.5977 37.0625 74.5508 37.25 74.5195 37.4062C74.4883 37.5938 74.3945 37.75 74.2383 37.875C73.8633 37.9688 73.7227 38.1094 73.8164 38.2969C73.9414 38.5156 73.9414 38.7031 73.8164 38.8594C73.5664 38.8594 73.4258 38.8906 73.3945 38.9531C73.3945 39.0156 73.3633 39.0469 73.3008 39.0469C73.2695 39.2969 73.2227 39.4531 73.1602 39.5156C73.0977 39.5781 73.0039 39.6094 72.8789 39.6094C72.8164 39.7656 72.7383 39.9062 72.6445 40.0312C72.5508 40.1562 72.5039 40.2969 72.5039 40.4531C72.3164 40.7031 72.1758 40.9688 72.082 41.25C71.9883 41.3125 71.9102 41.3906 71.8477 41.4844C71.8164 41.6094 71.7539 41.7188 71.6602 41.8125C71.4414 41.5938 71.3789 41.375 71.4727 41.1562C71.5664 40.9688 71.582 40.7969 71.5195 40.6406C71.5508 40.3594 71.5664 40.1406 71.5664 39.9844C71.5664 39.8594 71.5508 39.7188 71.5195 39.5625C71.582 39.4375 71.6758 39.2812 71.8008 39.0938C71.8008 38.9688 71.8008 38.8438 71.8008 38.7188C71.832 38.625 71.832 38.5312 71.8008 38.4375C71.832 38.2812 71.8945 38.125 71.9883 37.9688C72.1133 37.8438 72.1602 37.7031 72.1289 37.5469C72.1289 37.4219 72.0977 37.3281 72.0352 37.2656C71.9727 37.2344 71.9258 37.1719 71.8945 37.0781C71.8945 36.7969 71.8789 36.6094 71.8477 36.5156C71.9727 36.3594 72.0352 36.1719 72.0352 35.9531C72.0352 35.7344 72.0664 35.5156 72.1289 35.2969C72.0039 35.0469 71.9883 34.7812 72.082 34.5C72.207 34.2188 72.2383 33.9531 72.1758 33.7031C72.1758 33.3906 72.1133 33.2031 71.9883 33.1406C71.8633 33.0469 71.7695 32.9062 71.707 32.7188C71.8633 32.4062 71.8945 32.0625 71.8008 31.6875C71.8633 31.5625 71.9102 31.4219 71.9414 31.2656C72.0039 31.1094 72.0039 30.9375 71.9414 30.75C72.0352 30.3125 72.0508 30 71.9883 29.8125C72.0508 29.5938 72.1133 29.4062 72.1758 29.25C72.2695 29.0625 72.3164 28.8438 72.3164 28.5938C72.2227 28.3438 72.1914 28.1875 72.2227 28.125C72.2539 28.0625 72.2695 28 72.2695 27.9375C72.4258 27.25 72.4102 26.7188 72.2227 26.3438C72.0664 25.9375 71.9414 25.5625 71.8477 25.2188C71.8789 24.75 71.9102 24.3438 71.9414 24C72.0039 23.625 72.0977 23.2656 72.2227 22.9219C72.2539 22.7031 72.2695 22.4844 72.2695 22.2656C72.2695 22.0469 72.2852 21.8594 72.3164 21.7031C72.2539 21.5781 72.207 21.4844 72.1758 21.4219C72.1445 21.3281 72.0977 21.2188 72.0352 21.0938C72.0352 20.8438 72.0508 20.625 72.082 20.4375C72.1133 20.2188 72.1289 20 72.1289 19.7812C72.0977 19.6875 72.0664 19.6094 72.0352 19.5469C72.0352 19.4531 72.0352 19.3594 72.0352 19.2656C72.0352 19.1406 72.0508 19.0156 72.082 18.8906C72.1133 18.7656 72.1445 18.6406 72.1758 18.5156C72.2383 18.3594 72.3008 18.125 72.3633 17.8125C72.332 17.3125 72.332 16.8594 72.3633 16.4531C72.3945 16.0469 72.3789 15.6094 72.3164 15.1406C72.2539 14.8906 72.207 14.6406 72.1758 14.3906C72.1758 14.1406 72.1445 13.9219 72.082 13.7344C72.1133 13.6094 72.1289 13.5 72.1289 13.4062C72.1289 13.2812 72.1445 13.1562 72.1758 13.0312C72.0508 12.8438 71.9727 12.7344 71.9414 12.7031C71.9102 12.6719 71.8789 12.625 71.8477 12.5625C71.6914 12.5938 71.457 12.625 71.1445 12.6562C70.8633 12.6875 70.6289 12.6719 70.4414 12.6094C70.2852 12.6719 70.0664 12.7188 69.7852 12.75C69.5352 12.75 69.3477 12.6719 69.2227 12.5156C69.0664 12.5469 68.8945 12.5469 68.707 12.5156C68.5508 12.4531 68.4102 12.4219 68.2852 12.4219C68.0977 12.4531 67.832 12.5781 67.4883 12.7969C67.1758 13.0156 66.9258 13.1094 66.7383 13.0781C66.582 13.0469 66.4883 13 66.457 12.9375C66.4258 12.8438 66.3789 12.7656 66.3164 12.7031C66.1914 12.7344 66.0977 12.7969 66.0352 12.8906C66.0039 12.9531 65.9414 13.0156 65.8477 13.0781C65.6914 13.0469 65.582 13.0625 65.5195 13.125C65.457 13.1875 65.3945 13.25 65.332 13.3125C64.9883 13.4062 64.832 13.5 64.8633 13.5938C64.8633 13.6562 64.832 13.7188 64.7695 13.7812C64.6133 13.9062 64.4883 14.0156 64.3945 14.1094C64.3008 14.2031 64.2227 14.3594 64.1602 14.5781C63.9727 14.8594 63.8789 15.0469 63.8789 15.1406C63.8789 15.2344 63.8477 15.3125 63.7852 15.375C63.5664 15.375 63.4102 15.2969 63.3164 15.1406C63.3164 15.0469 63.3477 14.9375 63.4102 14.8125C63.4414 14.6875 63.457 14.5625 63.457 14.4375C63.457 14 63.5039 13.7188 63.5977 13.5938C63.6602 13.4688 63.7227 13.3281 63.7852 13.1719C63.8477 12.9219 63.8945 12.75 63.9258 12.6562C63.957 12.5312 64.0039 12.4375 64.0664 12.375C64.0039 12.125 64.0352 11.9375 64.1602 11.8125C64.2539 11.6562 64.332 11.5 64.3945 11.3438C64.457 10.9375 64.582 10.6562 64.7695 10.5C64.957 10.3125 65.1289 10.1406 65.2852 9.98438C65.1914 9.67188 65.1758 9.48438 65.2383 9.42188C65.2695 9.32812 65.2695 9.21875 65.2383 9.09375C65.3008 9 65.3633 8.90625 65.4258 8.8125C65.457 8.71875 65.5039 8.625 65.5664 8.53125C65.8477 8.4375 65.9883 8.35938 65.9883 8.29688C65.9883 8.23438 66.0195 8.1875 66.082 8.15625C66.332 8.1875 66.4883 8.28125 66.5508 8.4375C66.6445 8.5625 66.7539 8.6875 66.8789 8.8125C67.1602 8.75 67.5352 8.625 68.0039 8.4375C68.4727 8.25 68.8945 8.17188 69.2695 8.20312C69.3945 8.26562 69.4102 8.35938 69.3164 8.48438C69.2539 8.60938 69.2852 8.70312 69.4102 8.76562C69.6289 8.70312 69.8164 8.60938 69.9727 8.48438C70.1602 8.35938 70.3789 8.375 70.6289 8.53125C70.8477 8.5 71.0508 8.4375 71.2383 8.34375C71.4258 8.25 71.6289 8.20312 71.8477 8.20312C71.9414 8.51562 72.0977 8.71875 72.3164 8.8125C72.5664 8.625 72.7227 8.54688 72.7852 8.57812C72.8477 8.60938 72.9102 8.64062 72.9727 8.67188C73.0977 8.54688 73.2383 8.51562 73.3945 8.57812C73.582 8.60938 73.7383 8.65625 73.8633 8.71875C74.1758 8.65625 74.3945 8.59375 74.5195 8.53125C74.9258 8.34375 75.1602 8.29688 75.2227 8.39062C75.3164 8.45312 75.4414 8.51562 75.5977 8.57812C75.7539 8.51562 75.8945 8.45312 76.0195 8.39062C76.1445 8.32812 76.3164 8.3125 76.5352 8.34375C76.6602 8.40625 76.7539 8.45312 76.8164 8.48438C76.9102 8.51562 77.0039 8.5625 77.0977 8.625C77.2227 8.5625 77.332 8.48438 77.4258 8.39062C77.5195 8.29688 77.6445 8.21875 77.8008 8.15625C78.1758 8.15625 78.3789 8.17188 78.4102 8.20312C78.4414 8.20312 78.5508 8.21875 78.7383 8.25C78.832 8.28125 78.957 8.3125 79.1133 8.34375C79.2695 8.375 79.3789 8.39062 79.4414 8.39062C79.6289 8.39062 79.7852 8.32812 79.9102 8.20312C80.0352 8.07812 80.1445 8.125 80.2383 8.34375C80.3633 8.28125 80.5039 8.26562 80.6602 8.29688C80.8477 8.29688 80.9883 8.32812 81.082 8.39062C81.2695 8.51562 81.4258 8.54688 81.5508 8.48438C81.707 8.42188 81.8164 8.3125 81.8789 8.15625C82.1914 8.125 82.3945 8.23438 82.4883 8.48438C82.8633 8.60938 82.9883 8.76562 82.8633 8.95312C82.7383 9.14062 82.7383 9.32812 82.8633 9.51562C83.0195 9.64062 83.207 9.71875 83.4258 9.75C83.6445 9.75 83.7695 9.84375 83.8008 10.0312C83.6758 10.4375 83.6133 10.75 83.6133 10.9688C83.6758 11.125 83.7852 11.2188 83.9414 11.25C84.1289 11.2812 84.2695 11.3594 84.3633 11.4844C84.3633 11.6719 84.3164 11.8281 84.2227 11.9531C84.1289 12.0781 84.1445 12.2188 84.2695 12.375C84.3633 12.4375 84.4727 12.5156 84.5977 12.6094C84.7227 12.6719 84.8164 12.7656 84.8789 12.8906C84.9414 13.3281 85.0195 13.5938 85.1133 13.6875ZM91.2539 25.875C91.2852 26.0938 91.2227 26.2969 91.0664 26.4844C90.9414 26.6719 90.8477 26.8594 90.7852 27.0469C90.9102 27.2344 90.9727 27.4531 90.9727 27.7031C91.0039 27.9219 91.0039 28.1562 90.9727 28.4062C90.9414 28.6562 90.9102 28.9062 90.8789 29.1562C90.8789 29.4062 90.9102 29.6406 90.9727 29.8594C90.8789 30.0781 90.832 30.3125 90.832 30.5625C90.8633 30.8125 90.8945 31.0625 90.9258 31.3125C90.832 31.7188 90.8164 32.0156 90.8789 32.2031C90.9414 32.3594 90.9727 32.5625 90.9727 32.8125C90.7852 33.2188 90.707 33.5 90.7383 33.6562C90.8008 33.8125 90.8008 33.9375 90.7383 34.0312C90.8945 34.5 90.957 34.7812 90.9258 34.875C90.8945 34.9688 90.9102 35.0781 90.9727 35.2031C90.9102 35.2656 90.8789 35.375 90.8789 35.5312C90.8789 35.6875 90.8477 35.8125 90.7852 35.9062C90.5664 35.9062 90.4414 35.8438 90.4102 35.7188C90.3789 35.5938 90.3164 35.5 90.2227 35.4375C90.1289 35.4688 89.9727 35.4844 89.7539 35.4844C89.5664 35.4844 89.3945 35.4531 89.2383 35.3906C89.1133 35.4531 89.0039 35.5312 88.9102 35.625C88.8477 35.7188 88.7383 35.7344 88.582 35.6719C88.5195 35.7344 88.4727 35.8281 88.4414 35.9531C88.4102 36.0469 88.332 36.125 88.207 36.1875C87.9883 35.9375 87.8633 35.75 87.832 35.625C87.832 35.4688 87.8008 35.3438 87.7383 35.25C87.207 35.5938 86.8477 35.6875 86.6602 35.5312C86.2852 35.625 85.957 35.5625 85.6758 35.3438C85.6445 34.8438 85.707 34.5469 85.8633 34.4531C85.8008 34.2969 85.7539 34.1406 85.7227 33.9844C85.7227 33.7969 85.707 33.625 85.6758 33.4688C85.7383 33.3438 85.8008 33.1875 85.8633 33C85.9258 32.8125 85.9258 32.6094 85.8633 32.3906C85.7383 32.0469 85.6914 31.7812 85.7227 31.5938C85.7852 31.4062 85.8008 31.1875 85.7695 30.9375C85.832 30.5312 85.9102 30.2656 86.0039 30.1406C86.0977 30.0156 86.1133 29.8594 86.0508 29.6719C85.957 29.4219 85.8945 29.1562 85.8633 28.875C85.832 28.5938 85.8945 28.3438 86.0508 28.125C85.9883 27.9688 85.9414 27.8125 85.9102 27.6562C85.9102 27.4688 85.8789 27.2969 85.8164 27.1406C85.8164 26.8906 85.832 26.6875 85.8633 26.5312C85.8633 26.4375 85.8477 26.3594 85.8164 26.2969C85.8164 26.2031 85.8164 26.1094 85.8164 26.0156C85.6602 25.8594 85.5977 25.5938 85.6289 25.2188C85.6602 24.8438 85.7539 24.5938 85.9102 24.4688C85.7539 24.0312 85.6914 23.5312 85.7227 22.9688C85.7539 22.375 85.7383 21.8125 85.6758 21.2812C85.8008 21.0938 85.832 20.8438 85.7695 20.5312C85.8633 20.25 85.8945 20.0469 85.8633 19.9219C85.832 19.7969 85.8477 19.6719 85.9102 19.5469C85.8164 19.3906 85.7695 19.1562 85.7695 18.8438C85.8008 18.5312 85.8945 18.3125 86.0508 18.1875C85.9883 18.0625 85.9258 17.9219 85.8633 17.7656C85.832 17.6094 85.8633 17.4844 85.957 17.3906C85.8945 17.1719 85.832 17 85.7695 16.875C85.707 16.7188 85.6602 16.5312 85.6289 16.3125C85.5977 16.1875 85.6133 16.1094 85.6758 16.0781C85.7383 16.0156 85.7539 15.9062 85.7227 15.75C85.9414 15.4688 86.0664 15.2344 86.0977 15.0469C86.1289 14.8594 86.2539 14.7656 86.4727 14.7656C86.0977 14.3594 85.8633 14.125 85.7695 14.0625C85.7383 13.9688 85.6914 13.8906 85.6289 13.8281C85.5664 13.7344 85.5508 13.6094 85.582 13.4531C85.6758 13.0781 85.6602 12.7969 85.5352 12.6094C85.4102 12.4219 85.2695 12.25 85.1133 12.0938C85.082 11.9688 85.0508 11.8594 85.0195 11.7656C84.9883 11.6719 84.9883 11.5469 85.0195 11.3906C85.1133 10.7031 84.8945 10.3125 84.3633 10.2188C84.2383 9.96875 84.1445 9.84375 84.082 9.84375C84.0508 9.84375 84.0039 9.8125 83.9414 9.75C83.7852 9.4375 83.5977 9.3125 83.3789 9.375C83.1914 9.40625 83.0352 9.35938 82.9102 9.23438C82.9102 9.07812 82.8633 8.98438 82.7695 8.95312C82.6758 8.92188 82.5977 8.85938 82.5352 8.76562C82.5352 8.64062 82.582 8.5625 82.6758 8.53125C82.7695 8.5 82.8633 8.46875 82.957 8.4375C83.1133 8.5625 83.3008 8.625 83.5195 8.625C83.6758 8.59375 83.8164 8.51562 83.9414 8.39062C84.0977 8.26562 84.2695 8.21875 84.457 8.25C84.7695 8.40625 84.9414 8.4375 84.9727 8.34375C85.0352 8.25 85.1445 8.20312 85.3008 8.20312C85.5195 8.54688 85.6758 8.6875 85.7695 8.625C85.8945 8.5625 86.0039 8.48438 86.0977 8.39062C86.2539 8.32812 86.4414 8.3125 86.6602 8.34375C86.9102 8.375 87.1133 8.4375 87.2695 8.53125C87.457 8.46875 87.6445 8.45312 87.832 8.48438C88.0195 8.48438 88.2383 8.46875 88.4883 8.4375C88.7383 8.53125 88.8945 8.54688 88.957 8.48438C89.0195 8.39062 89.1133 8.32812 89.2383 8.29688C89.332 8.32812 89.3945 8.39062 89.4258 8.48438C89.4883 8.54688 89.5508 8.60938 89.6133 8.67188C89.7695 8.70312 89.8945 8.70312 89.9883 8.67188C90.082 8.64062 90.1758 8.59375 90.2695 8.53125C90.7695 8.34375 91.0195 8.375 91.0195 8.625C91.0195 8.875 90.9883 9.125 90.9258 9.375C90.957 9.46875 90.9883 9.54688 91.0195 9.60938C91.082 9.67188 91.1289 9.75 91.1602 9.84375C90.9414 10.1875 90.8008 10.3906 90.7383 10.4531C90.707 10.5156 90.6914 10.5781 90.6914 10.6406C90.6602 10.7969 90.6914 10.9375 90.7852 11.0625C90.9102 11.1875 90.9414 11.3594 90.8789 11.5781C90.6289 11.8906 90.5352 12.0625 90.5977 12.0938C90.6914 12.125 90.7852 12.1562 90.8789 12.1875C90.9727 12.5938 90.9883 12.8281 90.9258 12.8906C90.8633 12.9219 90.8164 13 90.7852 13.125C90.8477 13.375 90.9102 13.5469 90.9727 13.6406C90.9102 13.7969 90.8789 13.9531 90.8789 14.1094C90.8789 14.2344 90.8789 14.375 90.8789 14.5312C90.8477 14.6875 90.8008 14.8281 90.7383 14.9531C90.707 15.0781 90.6914 15.2188 90.6914 15.375C90.6914 15.625 90.7383 15.8594 90.832 16.0781C90.9258 16.2656 90.9258 16.4688 90.832 16.6875C90.9258 17.625 90.9102 18.3438 90.7852 18.8438C90.8164 19.25 90.8477 19.5625 90.8789 19.7812C90.9102 19.9688 90.8789 20.1406 90.7852 20.2969C90.8164 20.3906 90.8633 20.4688 90.9258 20.5312C90.9883 20.5938 91.0195 20.6719 91.0195 20.7656C91.0508 21.0781 90.9727 21.3281 90.7852 21.5156C90.5977 21.8906 90.5664 22.125 90.6914 22.2188C90.8164 22.3125 90.9102 22.4375 90.9727 22.5938C91.0039 22.8438 90.9727 23.0312 90.8789 23.1562C90.8164 23.2812 90.8008 23.4531 90.832 23.6719C90.8633 23.8281 90.9102 23.9844 90.9727 24.1406C91.0352 24.2656 91.082 24.4062 91.1133 24.5625C90.8945 24.7188 90.8008 24.8594 90.832 24.9844C90.8633 25.0781 90.8633 25.1562 90.832 25.2188C90.8945 25.3438 90.9727 25.4531 91.0664 25.5469C91.1602 25.6094 91.2227 25.7188 91.2539 25.875ZM110.52 28.5938C110.77 28.6875 110.879 28.7812 110.848 28.875C110.816 28.9375 110.832 29.0312 110.895 29.1562C110.738 29.5 110.645 29.75 110.613 29.9062C110.582 30.0625 110.488 30.1719 110.332 30.2344C110.363 30.3906 110.332 30.5156 110.238 30.6094C110.176 30.6719 110.129 30.7812 110.098 30.9375C109.91 31.1562 109.785 31.3438 109.723 31.5C109.66 31.6562 109.566 31.7812 109.441 31.875C109.379 32.2188 109.285 32.4062 109.16 32.4375C109.066 32.4688 108.988 32.5625 108.926 32.7188C109.082 33.0625 109.129 33.2812 109.066 33.375C109.035 33.4375 109.035 33.5469 109.066 33.7031C108.879 33.9531 108.738 34.0938 108.645 34.125C108.676 34.2812 108.676 34.4219 108.645 34.5469C108.645 34.6406 108.676 34.7656 108.738 34.9219C108.645 35.2031 108.598 35.375 108.598 35.4375C108.598 35.5625 108.551 35.6562 108.457 35.7188C108.395 35.75 108.332 35.7969 108.27 35.8594C108.301 36.0156 108.27 36.1406 108.176 36.2344C108.113 36.3281 108.051 36.4062 107.988 36.4688C107.832 36.4688 107.738 36.4219 107.707 36.3281C107.676 36.2344 107.629 36.1406 107.566 36.0469C107.191 36.1719 106.926 36.1719 106.77 36.0469C106.645 35.9531 106.504 35.8594 106.348 35.7656C106.223 35.7656 106.113 35.7812 106.02 35.8125C105.957 35.8438 105.895 35.875 105.832 35.9062C105.582 35.8125 105.441 35.8281 105.41 35.9531C105.379 36.0469 105.316 36.125 105.223 36.1875C104.91 36.2188 104.723 36.25 104.66 36.2812C104.598 36.3125 104.535 36.3438 104.473 36.375C104.16 36.375 103.973 36.3906 103.91 36.4219C103.879 36.4531 103.832 36.4688 103.77 36.4688C103.676 36.4375 103.598 36.3906 103.535 36.3281C103.473 36.2656 103.395 36.2031 103.301 36.1406C103.145 36.0781 102.988 36.0469 102.832 36.0469C102.676 36.0781 102.504 36.125 102.316 36.1875C101.941 36.125 101.738 36.0625 101.707 36C101.676 35.9688 101.613 35.9375 101.52 35.9062C101.113 36.0625 100.863 36.1094 100.77 36.0469C100.707 36.0156 100.629 35.9844 100.535 35.9531C100.441 35.9844 100.332 35.9844 100.207 35.9531C100.113 35.9219 100.02 35.8906 99.9258 35.8594C99.8008 35.9219 99.6914 36 99.5977 36.0938C99.5039 36.1875 99.3945 36.2656 99.2695 36.3281C99.1445 36.3281 99.0508 36.3594 98.9883 36.4219C98.9258 36.4844 98.832 36.5156 98.707 36.5156C98.3008 36.3906 98.0508 36.3438 97.957 36.375C97.8945 36.4062 97.7852 36.4062 97.6289 36.375C97.5352 36.3125 97.457 36.2344 97.3945 36.1406C97.3633 36.0469 97.3164 35.9531 97.2539 35.8594C96.8477 35.8594 96.5664 35.9375 96.4102 36.0938C96.3477 36.0938 96.2695 36.0938 96.1758 36.0938C96.082 36.125 95.9883 36.125 95.8945 36.0938C95.832 36.0312 95.7695 35.9844 95.707 35.9531C95.6445 35.8906 95.5664 35.8281 95.4727 35.7656C95.3164 35.7969 95.1602 35.8281 95.0039 35.8594C94.8477 35.8906 94.7383 35.9531 94.6758 36.0469C94.5508 36.0469 94.4414 36.0625 94.3477 36.0938C94.2852 36.125 94.207 36.1562 94.1133 36.1875C93.8945 36.0625 93.7695 36.0312 93.7383 36.0938C93.707 36.1562 93.6445 36.1875 93.5508 36.1875C93.3008 36 93.1602 35.9375 93.1289 36C93.0664 36.0312 92.9883 36.0469 92.8945 36.0469C93.082 35.7969 93.207 35.6562 93.2695 35.625C93.332 35.5938 93.3789 35.5469 93.4102 35.4844C93.7539 34.7344 94.0508 34.0938 94.3008 33.5625C94.332 33.2812 94.3789 33.0781 94.4414 32.9531C94.5352 32.7969 94.5508 32.625 94.4883 32.4375C94.582 32.1875 94.707 31.9531 94.8633 31.7344C95.0508 31.5156 95.0664 31.25 94.9102 30.9375C94.9414 30.7812 94.9727 30.6562 95.0039 30.5625C95.0664 30.4688 95.0977 30.3438 95.0977 30.1875C95.1602 30.0938 95.2227 30.0156 95.2852 29.9531C95.3789 29.8594 95.4102 29.7344 95.3789 29.5781C95.4102 29.4844 95.4258 29.3906 95.4258 29.2969C95.457 29.2031 95.4727 29.0781 95.4727 28.9219C95.7227 28.6094 95.8633 28.4219 95.8945 28.3594C95.957 28.2656 96.0352 28.1875 96.1289 28.125C96.2852 27.875 96.4102 27.6406 96.5039 27.4219C96.6289 27.1719 96.7695 26.9219 96.9258 26.6719C96.9883 26.4219 97.0039 26.2188 96.9727 26.0625C97.0664 25.7188 97.0977 25.5469 97.0664 25.5469C97.0352 25.5156 97.0195 25.4688 97.0195 25.4062C97.1758 25 97.3164 24.625 97.4414 24.2812C97.5664 23.9062 97.7383 23.5625 97.957 23.25C98.082 22.9062 98.2383 22.6406 98.4258 22.4531C98.4258 22.3906 98.4727 22.2031 98.5664 21.8906C98.6602 21.5469 98.707 21.3438 98.707 21.2812C98.9258 21.0312 99.0508 20.7188 99.082 20.3438C99.1445 19.9375 99.2539 19.6094 99.4102 19.3594C99.3789 19.1406 99.3945 18.9688 99.457 18.8438C99.5195 18.6875 99.582 18.5469 99.6445 18.4219C99.707 18.2969 99.7695 18.1719 99.832 18.0469C99.9258 17.9219 99.9727 17.7656 99.9727 17.5781C100.035 17.4844 100.098 17.3906 100.16 17.2969C100.223 17.2031 100.27 17.0781 100.301 16.9219C100.426 16.7656 100.535 16.5312 100.629 16.2188C100.566 15.6875 100.66 15.2812 100.91 15C101.191 14.7188 101.426 14.4219 101.613 14.1094C101.52 13.7969 101.488 13.625 101.52 13.5938C101.582 13.5312 101.598 13.4375 101.566 13.3125C101.66 13.1875 101.738 13.0312 101.801 12.8438C101.895 12.6562 101.895 12.4688 101.801 12.2812C101.707 12.1875 101.582 12.1719 101.426 12.2344C101.27 12.2656 101.113 12.25 100.957 12.1875C100.551 12.3125 100.254 12.375 100.066 12.375C99.8789 12.375 99.707 12.3438 99.5508 12.2812C99.3945 12.3438 99.1602 12.4062 98.8477 12.4688C98.2227 12.3125 97.6758 12.2812 97.207 12.375C97.0508 12.3438 96.9102 12.3125 96.7852 12.2812C96.6914 12.25 96.5664 12.2344 96.4102 12.2344C96.1602 12.2969 95.9414 12.375 95.7539 12.4688C95.5977 12.5625 95.4414 12.6562 95.2852 12.75H94.7227C94.5977 12.8438 94.457 12.9375 94.3008 13.0312C94.1445 13.0938 93.9883 13.1562 93.832 13.2188C93.6758 13.625 93.5352 13.8438 93.4102 13.875C93.2852 13.9062 93.1758 13.9531 93.082 14.0156C92.8008 14.4531 92.582 14.7188 92.4258 14.8125C92.2695 14.9062 92.1445 15.0625 92.0508 15.2812C91.832 15.3438 91.6914 15.4375 91.6289 15.5625C91.5352 15.6875 91.4102 15.7031 91.2539 15.6094C91.2852 15.4531 91.332 15.3281 91.3945 15.2344C91.4258 15.1406 91.4727 15.0156 91.5352 14.8594C91.6289 14.5469 91.6914 14.375 91.7227 14.3438L92.1445 13.7812C92.207 13.6562 92.2539 13.5156 92.2852 13.3594C92.3164 13.2031 92.3477 13.0469 92.3789 12.8906C92.5664 12.6094 92.7227 12.3438 92.8477 12.0938C93.0039 11.6875 93.1133 11.3594 93.1758 11.1094C93.2383 10.8281 93.3477 10.5938 93.5039 10.4062C93.4414 10.2812 93.4102 10.1562 93.4102 10.0312C93.4414 9.90625 93.4258 9.79688 93.3633 9.70312C93.457 9.51562 93.5508 9.32812 93.6445 9.14062C93.7383 8.92188 93.7852 8.65625 93.7852 8.34375C93.8789 8.3125 93.957 8.3125 94.0195 8.34375C94.1133 8.34375 94.2383 8.3125 94.3945 8.25C94.7695 8.375 94.9883 8.42188 95.0508 8.39062C95.1445 8.32812 95.2539 8.29688 95.3789 8.29688C95.7539 8.20312 95.9414 8.23438 95.9414 8.39062C96.0977 8.35938 96.2227 8.34375 96.3164 8.34375C96.4414 8.34375 96.5664 8.3125 96.6914 8.25C96.8164 8.21875 96.9102 8.1875 96.9727 8.15625C97.0352 8.09375 97.1445 8.04688 97.3008 8.01562C97.5195 7.98438 97.707 8.03125 97.8633 8.15625C97.8945 8.25 97.9258 8.34375 97.957 8.4375C98.0195 8.53125 98.1133 8.59375 98.2383 8.625C98.3633 8.59375 98.4727 8.54688 98.5664 8.48438C98.6602 8.42188 98.7852 8.42188 98.9414 8.48438C99.0664 8.45312 99.1445 8.40625 99.1758 8.34375C99.2383 8.28125 99.3164 8.21875 99.4102 8.15625C99.5664 8.21875 99.7227 8.26562 99.8789 8.29688C100.035 8.29688 100.207 8.26562 100.395 8.20312C100.738 8.29688 100.941 8.34375 101.004 8.34375C101.066 8.3125 101.145 8.3125 101.238 8.34375C101.551 8.53125 101.754 8.59375 101.848 8.53125C101.941 8.46875 102.066 8.40625 102.223 8.34375C102.41 8.34375 102.582 8.35938 102.738 8.39062C102.895 8.42188 103.051 8.45312 103.207 8.48438C103.301 8.45312 103.379 8.42188 103.441 8.39062C103.535 8.32812 103.645 8.29688 103.77 8.29688C103.926 8.42188 104.129 8.48438 104.379 8.48438C104.473 8.45312 104.535 8.40625 104.566 8.34375C104.629 8.25 104.738 8.20312 104.895 8.20312C105.02 8.23438 105.113 8.29688 105.176 8.39062C105.238 8.45312 105.316 8.51562 105.41 8.57812C105.566 8.51562 105.77 8.5 106.02 8.53125C106.27 8.53125 106.473 8.5625 106.629 8.625C106.848 8.46875 107.082 8.35938 107.332 8.29688C107.613 8.23438 107.926 8.17188 108.27 8.10938C108.395 8.42188 108.473 8.59375 108.504 8.625C108.535 8.625 108.566 8.65625 108.598 8.71875C108.41 8.90625 108.41 9.07812 108.598 9.23438C108.504 9.54688 108.316 9.82812 108.035 10.0781C108.066 10.1406 108.066 10.2344 108.035 10.3594C108.035 10.4531 108.051 10.5469 108.082 10.6406C107.895 10.8906 107.723 11.1562 107.566 11.4375C107.41 11.7188 107.238 11.9844 107.051 12.2344C107.051 12.6406 106.988 12.9375 106.863 13.125C106.738 13.2812 106.676 13.5156 106.676 13.8281C106.52 13.9531 106.426 14.125 106.395 14.3438C106.363 14.5625 106.27 14.75 106.113 14.9062C106.207 15.1562 106.223 15.2969 106.16 15.3281C106.098 15.3594 106.051 15.4062 106.02 15.4688C106.113 15.7188 106.098 15.9375 105.973 16.125C105.816 16.1875 105.691 16.2969 105.598 16.4531C105.535 16.5781 105.52 16.7812 105.551 17.0625C105.27 17.625 105.035 17.9844 104.848 18.1406C104.848 18.4531 104.879 18.6719 104.941 18.7969C104.66 19.1719 104.52 19.4531 104.52 19.6406C104.52 19.7969 104.488 19.9531 104.426 20.1094C104.02 20.3281 103.863 20.75 103.957 21.375C103.863 21.4375 103.77 21.5469 103.676 21.7031C103.582 21.8594 103.488 22.0469 103.395 22.2656C103.332 22.4531 103.27 22.6562 103.207 22.875C103.176 23.0625 103.16 23.2188 103.16 23.3438C102.91 23.6875 102.754 23.9219 102.691 24.0469C102.66 24.1406 102.66 24.2656 102.691 24.4219C102.629 24.5781 102.582 24.7344 102.551 24.8906C102.52 25.0469 102.473 25.2031 102.41 25.3594C102.441 25.6406 102.348 25.8906 102.129 26.1094C102.035 26.3906 101.957 26.5625 101.895 26.625C101.832 26.6875 101.77 26.75 101.707 26.8125C101.738 26.9375 101.77 27.0312 101.801 27.0938C101.863 27.125 101.895 27.2188 101.895 27.375C101.613 27.5 101.441 27.6562 101.379 27.8438C101.191 28 101.02 28.2656 100.863 28.6406C100.895 28.9844 100.879 29.2031 100.816 29.2969C100.754 29.3594 100.707 29.4531 100.676 29.5781C100.613 29.9531 100.535 30.2344 100.441 30.4219C100.379 30.5781 100.332 30.7812 100.301 31.0312C100.145 31.0938 100.035 31.1875 99.9727 31.3125C99.9102 31.4062 99.832 31.5156 99.7383 31.6406C100.02 31.9844 100.254 32.1094 100.441 32.0156C100.629 31.9219 100.801 31.8594 100.957 31.8281C101.113 32.0156 101.223 32.125 101.285 32.1562C101.379 32.1875 101.457 32.2031 101.52 32.2031C101.895 32.1406 102.145 32.1094 102.27 32.1094C102.395 32.0781 102.504 32.0469 102.598 32.0156C102.91 32.2031 103.129 32.2812 103.254 32.25C103.379 32.2188 103.52 32.2344 103.676 32.2969C103.863 32.2344 104.004 32.125 104.098 31.9688C104.223 31.8125 104.441 31.7656 104.754 31.8281C104.848 31.8594 104.926 31.9062 104.988 31.9688C105.082 32 105.176 32.0312 105.27 32.0625C105.77 32.0625 106.176 32.0312 106.488 31.9688C106.801 31.9688 107.02 31.9062 107.145 31.7812C107.301 31.7812 107.395 31.75 107.426 31.6875C107.488 31.5938 107.582 31.5469 107.707 31.5469C107.832 31.2969 107.941 31.0938 108.035 30.9375C108.348 30.7812 108.535 30.6406 108.598 30.5156C108.691 30.3594 108.801 30.2031 108.926 30.0469C109.02 29.6719 109.207 29.5 109.488 29.5312C109.676 29.2812 109.785 29.1406 109.816 29.1094C109.879 29.0781 109.926 29.0156 109.957 28.9219C110.207 28.8594 110.348 28.7969 110.379 28.7344C110.41 28.6719 110.457 28.625 110.52 28.5938Z" fill="white"/>
</svg>
