<svg width="221" height="87" viewBox="0 0 221 87" fill="none" xmlns="http://www.w3.org/2000/svg">
<path d="M46.3438 48.2188C46.3438 48.5312 46.3438 48.9062 46.3438 49.3438C46.4062 49.7188 46.375 50.0625 46.25 50.375C46.4375 51 46.4375 51.5938 46.25 52.1562C46.125 52.6562 46 53.25 45.875 53.9375C46.125 54.375 46.1562 54.7812 45.9688 55.1562C45.7812 55.5312 45.5312 55.8438 45.2188 56.0938C45.2188 56.4688 45.125 56.75 44.9375 56.9375C44.8125 57.125 44.6875 57.3438 44.5625 57.5938C44.5 58.4062 44.3438 58.9688 44.0938 59.2812C43.8438 59.5312 43.5938 59.8125 43.3438 60.125C43.2812 60.625 43.2188 61.0938 43.1562 61.5312C43.0938 61.9688 42.9375 62.3438 42.6875 62.6562C42.625 62.9688 42.5938 63.25 42.5938 63.5C42.6562 63.75 42.5938 63.9375 42.4062 64.0625C42.2188 64.125 42.0312 64.1875 41.8438 64.25C41.7188 64.25 41.5312 64.2188 41.2812 64.1562C40.9688 64.2812 40.7188 64.4688 40.5312 64.7188C40.3438 64.9062 40.0938 65.0938 39.7812 65.2812C39.8438 65.9688 39.7812 66.3438 39.5938 66.4062C39.4688 66.4688 39.3125 66.5625 39.125 66.6875C39 66.9375 38.8438 67.1562 38.6562 67.3438C38.4688 67.5312 38.375 67.8125 38.375 68.1875C38.1875 68.3125 38 68.4688 37.8125 68.6562C37.6875 68.8438 37.5312 69 37.3438 69.125C37.1562 69.625 36.875 70 36.5 70.25C35.8125 70.25 35.4375 70.3125 35.375 70.4375C35.3125 70.5 35.2188 70.5938 35.0938 70.7188C34.7812 70.8438 34.4375 70.9688 34.0625 71.0938C33.6875 71.2188 33.2812 71.3125 32.8438 71.375C32.3438 71.375 31.9688 71.4688 31.7188 71.6562C31.4688 71.9062 31.0938 72.0312 30.5938 72.0312C30.2812 71.6562 30.0625 71.5 29.9375 71.5625C29.875 71.6875 29.75 71.8125 29.5625 71.9375C29.0625 71.9375 28.6875 72.0938 28.4375 72.4062C28.25 72.7188 27.9375 72.9375 27.5 73.0625C27.1875 73.0625 26.9688 72.9688 26.8438 72.7812C26.7812 72.6562 26.6875 72.5312 26.5625 72.4062C25.875 72.7812 25.5312 73.125 25.5312 73.4375C25.5938 73.75 25.4688 73.9688 25.1562 74.0938C24.7188 74.0312 24.375 73.875 24.125 73.625C23.875 73.4375 23.5938 73.2812 23.2812 73.1562C22.9062 73.2188 22.5625 73.3125 22.25 73.4375C22 73.625 21.625 73.6875 21.125 73.625C20.25 73.3125 19.7188 73.25 19.5312 73.4375C19.4062 73.625 19.2188 73.6875 18.9688 73.625C18.6562 73.625 18.4375 73.5 18.3125 73.25C18.1875 73.0625 17.9688 72.875 17.6562 72.6875C16.8438 72.75 16.3438 72.5312 16.1562 72.0312C15.9062 72.0312 15.6875 72.0312 15.5 72.0312C15.375 72.0938 15.25 72.125 15.125 72.125C14.375 71.8125 13.7188 71.5938 13.1562 71.4688C12.5938 71.4062 12.0625 71.2812 11.5625 71.0938C11.25 70.7812 11 70.375 10.8125 69.875C10.6875 69.375 10.5625 68.875 10.4375 68.375C10.125 67.8125 9.875 67.625 9.6875 67.8125C9.5 67.9375 9.25 68 8.9375 68C8.625 67.9375 8.34375 67.6562 8.09375 67.1562C7.46875 66.5938 7.03125 66 6.78125 65.375C6.53125 64.75 6.125 64.1875 5.5625 63.6875C5.1875 62.9375 4.6875 62.2812 4.0625 61.7188C3.5 61.0938 2.90625 60.4688 2.28125 59.8438C2.03125 59.3438 1.9375 58.7812 2 58.1562C2 57.4688 1.75 56.9688 1.25 56.6562C1 56.2812 1.21875 55.9688 1.90625 55.7188C2.53125 55.4062 2.96875 55 3.21875 54.5C3.90625 54.0625 4.4375 53.875 4.8125 53.9375C5.25 54 5.65625 53.9062 6.03125 53.6562C6.21875 52.9688 6.40625 52.625 6.59375 52.625C6.84375 52.5625 7.0625 52.4375 7.25 52.25C7.6875 51.4375 7.96875 50.9375 8.09375 50.75C8.28125 50.5 8.4375 50.2812 8.5625 50.0938C8.9375 49.5938 9.375 49.1562 9.875 48.7812C10.4375 48.0938 10.875 47.5625 11.1875 47.1875C11.5 46.8125 11.8125 46.4375 12.125 46.0625C12.6875 45.6875 13.1875 45.4688 13.625 45.4062C13.9375 45.7188 14.1875 45.875 14.375 45.875C14.625 45.875 14.9062 46.0312 15.2188 46.3438C14.9688 47.3438 14.4375 47.9375 13.625 48.125C13.625 48.375 13.5625 48.625 13.4375 48.875C13.375 49.125 13.4062 49.375 13.5312 49.625C13.6562 49.8125 13.75 50.0312 13.8125 50.2812C13.875 50.4688 13.9688 50.6562 14.0938 50.8438C14.0312 51.0312 13.9688 51.2188 13.9062 51.4062C13.8438 51.5938 13.6562 51.75 13.3438 51.875C13.4062 52.1875 13.3438 52.4375 13.1562 52.625C13.0312 52.8125 13 53.0625 13.0625 53.375C13.1875 53.6875 13.3125 53.9688 13.4375 54.2188C13.625 54.4688 13.7812 54.75 13.9062 55.0625C14.1562 55.9375 14.1562 56.5625 13.9062 56.9375C13.7188 57.25 13.5625 57.5312 13.4375 57.7812C13.5625 58.0312 13.7188 58.25 13.9062 58.4375C14.0938 58.5625 14.25 58.7188 14.375 58.9062C14.5625 59.1562 14.9062 59.4688 15.4062 59.8438C16.4688 59.7812 17.1875 60 17.5625 60.5C17.9375 61 18.1875 61.6875 18.3125 62.5625C18.4375 62.625 18.5938 62.625 18.7812 62.5625C18.9688 62.4375 19.2188 62.375 19.5312 62.375C20.1562 62.3125 20.75 62.375 21.3125 62.5625C22.3125 62.375 22.875 62.375 23 62.5625C23.1875 62.6875 23.4375 62.7812 23.75 62.8438C24.125 62.7188 24.375 62.5312 24.5 62.2812C24.6875 62.0312 24.9375 61.8438 25.25 61.7188C25.5625 61.7188 25.7812 61.75 25.9062 61.8125C26.0312 61.875 26.25 61.9375 26.5625 62C26.875 62.0625 27.0312 62.1562 27.0312 62.2812C27.0312 62.4062 27.1875 62.4688 27.5 62.4688C27.8125 62.4062 28.0625 62.3125 28.25 62.1875C28.5 62.0625 28.7812 61.9688 29.0938 61.9062C29.4062 61.7812 29.6562 61.625 29.8438 61.4375C30.0312 61.25 30.3125 61.1562 30.6875 61.1562C30.875 60.3438 31 59.75 31.0625 59.375C31.125 59 31.2812 58.75 31.5312 58.625C32.0312 58.125 32.3438 57.7188 32.4688 57.4062C32.5938 57.0312 32.7188 56.6875 32.8438 56.375C33.5312 55.8125 33.9062 55.2812 33.9688 54.7812C34.0938 54.2188 34.1562 53.6875 34.1562 53.1875C34.4062 52.5625 34.5938 51.9375 34.7188 51.3125C34.9062 50.6875 35.0625 50.0312 35.1875 49.3438C35.125 48.7188 35.1562 48.2188 35.2812 47.8438C34.9062 47.4688 34.7812 46.9375 34.9062 46.25C34.4062 45.875 34.1562 45.5312 34.1562 45.2188C34.1562 44.9062 34.125 44.6562 34.0625 44.4688C33.75 44.1562 33.4375 43.8438 33.125 43.5312C32.875 43.2188 32.6875 42.8438 32.5625 42.4062C31.9375 42.2188 31.4688 41.8438 31.1562 41.2812C30.9062 41.4688 30.5938 41.5625 30.2188 41.5625C29.9062 41.5 29.6562 41.3438 29.4688 41.0938C28.9688 40.9688 28.5625 40.8438 28.25 40.7188C27.9375 40.5312 27.4688 40.5 26.8438 40.625C26.5312 40.375 26.3438 40.1562 26.2812 39.9688C26.2812 39.7812 26.25 39.5312 26.1875 39.2188C25.9375 39.0938 25.5938 39.0625 25.1562 39.125C24.7812 39.1875 24.375 39.1562 23.9375 39.0312C23.6875 38.9062 23.4375 38.8125 23.1875 38.75C23 38.625 22.75 38.5625 22.4375 38.5625C22.125 38.25 21.7188 38.0625 21.2188 38C20.7812 37.875 20.4375 37.6562 20.1875 37.3438C19.4375 36.7812 18.8125 36.4375 18.3125 36.3125C17.8125 36.1875 17.3125 36.0625 16.8125 35.9375C16.4375 35.6875 16.125 35.5 15.875 35.375C15.0625 35.625 14.5625 35.7188 14.375 35.6562C14.25 35.5938 14.0625 35.5312 13.8125 35.4688C13.625 35.3438 13.4688 35.25 13.3438 35.1875C13.2188 35.0625 13.0625 34.9688 12.875 34.9062C12.5625 34.4688 12.1562 34.0938 11.6562 33.7812C11.2188 33.4062 10.8438 32.9688 10.5312 32.4688C10.3438 32.3438 10.1562 32.2188 9.96875 32.0938C9.84375 31.9062 9.71875 31.75 9.59375 31.625C8.90625 31.4375 8.3125 31.1875 7.8125 30.875C7.625 29.9375 7.46875 29.25 7.34375 28.8125C7.21875 28.375 7.1875 27.875 7.25 27.3125C7.0625 27.125 6.84375 26.9688 6.59375 26.8438C6.34375 26.7188 6.15625 26.5 6.03125 26.1875C6.09375 25.625 5.96875 25.2188 5.65625 24.9688C5.40625 24.6562 5.21875 24.3125 5.09375 23.9375C5.21875 23.75 5.3125 23.5625 5.375 23.375C5.4375 23.125 5.5 22.9062 5.5625 22.7188C5.375 22.2188 5.25 21.6875 5.1875 21.125C5.125 20.5625 5.1875 19.9688 5.375 19.3438C5.375 18.7188 5.375 18.3438 5.375 18.2188C5.375 18.0938 5.4375 17.9688 5.5625 17.8438C5.5625 17.5938 5.53125 17.375 5.46875 17.1875C5.46875 16.9375 5.46875 16.7188 5.46875 16.5312C5.46875 16.2188 5.5 15.9062 5.5625 15.5938C5.625 15.2812 5.71875 14.9688 5.84375 14.6562C6.46875 13.9062 6.84375 13.25 6.96875 12.6875C7.15625 12.125 7.4375 11.6875 7.8125 11.375C8.125 10.5625 8.5 9.875 8.9375 9.3125C9.4375 8.6875 9.9375 8.09375 10.4375 7.53125C11 7.28125 11.3438 7 11.4688 6.6875C11.6562 6.375 11.9375 6.15625 12.3125 6.03125C13 5.96875 13.375 5.8125 13.4375 5.5625C13.5625 5.25 13.7812 5 14.0938 4.8125C14.5938 4.9375 15 4.90625 15.3125 4.71875C15.625 4.53125 16.0312 4.40625 16.5312 4.34375C17.1562 3.96875 17.7188 3.5 18.2188 2.9375C18.5312 2.9375 18.7812 3 18.9688 3.125C19.2188 3.1875 19.4375 3.25 19.625 3.3125C20.125 2.9375 20.4062 2.75 20.4688 2.75C20.5938 2.6875 20.6875 2.625 20.75 2.5625C21.1875 2.25 21.5625 2.0625 21.875 2C22.25 1.9375 22.5312 1.90625 22.7188 1.90625C23.2812 1.96875 23.625 1.9375 23.75 1.8125C23.875 1.6875 24.0625 1.625 24.3125 1.625C24.5625 1.6875 24.7188 1.75 24.7812 1.8125C24.9062 1.8125 25.125 1.75 25.4375 1.625C26.125 1.75 26.625 1.875 26.9375 2C27.25 2.0625 27.625 2.0625 28.0625 2C28.25 2.1875 28.5312 2.40625 28.9062 2.65625C29.1562 2.53125 29.375 2.40625 29.5625 2.28125C29.8125 2.09375 30.0625 1.90625 30.3125 1.71875C30.5625 1.59375 30.8125 1.4375 31.0625 1.25C31.3125 1.0625 31.5938 1.125 31.9062 1.4375C32.0312 1.6875 32.0312 1.9375 31.9062 2.1875C31.7812 2.375 31.75 2.625 31.8125 2.9375C32.3125 3.3125 32.75 3.59375 33.125 3.78125C33.5 3.90625 33.8438 4.125 34.1562 4.4375C34.7188 4.6875 35.0312 4.90625 35.0938 5.09375C35.2188 5.28125 35.3438 5.4375 35.4688 5.5625C35.7812 5.5 36.0312 5.4375 36.2188 5.375C36.4688 5.3125 36.75 5.25 37.0625 5.1875C37.8125 5.25 38.125 5.78125 38 6.78125C38.3125 6.96875 38.5938 7.15625 38.8438 7.34375C39.0938 7.46875 39.3438 7.65625 39.5938 7.90625C40.7188 8.03125 41.4375 8.375 41.75 8.9375C41.625 9.5625 41.5625 9.90625 41.5625 9.96875C42.25 10.2187 42.6562 10.4062 42.7812 10.5312C42.9062 10.5937 43.0312 10.6875 43.1562 10.8125C43.1562 11.25 43.0938 11.5312 42.9688 11.6562C42.9062 11.7187 42.8438 11.8438 42.7812 12.0312L43.7188 12.7812C44.0312 12.9688 44.2188 13.1562 44.2812 13.3438C44.4062 13.4688 44.5938 13.5312 44.8438 13.5312C45.1562 14.0938 45.2812 14.4375 45.2188 14.5625C45.2188 14.625 45.2812 14.7188 45.4062 14.8438C44.4688 15.2812 43.6875 15.8438 43.0625 16.5312C42.75 16.9688 42.5625 17.2812 42.5 17.4688C42.5 17.5938 42.4375 17.7188 42.3125 17.8438C42 18.2188 41.8438 18.4688 41.8438 18.5938C41.8438 18.7188 41.875 18.8438 41.9375 18.9688C41.75 19.2812 41.5625 19.5312 41.375 19.7188C41.1875 19.9062 41.0312 20.125 40.9062 20.375C40.7812 20.875 40.625 21.25 40.4375 21.5C40.125 21.625 39.8438 21.7812 39.5938 21.9688C39.3438 22.1562 39.0625 22.2812 38.75 22.3438C38.75 22.6562 38.75 22.9375 38.75 23.1875C38.8125 23.375 38.75 23.625 38.5625 23.9375C38.0625 24.25 37.6875 24.7812 37.4375 25.5312C36.875 25.9062 36.5625 26.1875 36.5 26.375C36.5 26.5625 36.4375 26.7812 36.3125 27.0312C35.6875 27.4688 35.2188 27.6875 34.9062 27.6875C34.5938 27.625 34.3438 27.4688 34.1562 27.2188C34.1562 26.5312 34.1562 26.0312 34.1562 25.7188C34.5938 25.2188 34.875 24.7812 35 24.4062C34.75 23.9062 34.7188 23.5 34.9062 23.1875C34.9062 22.625 34.9688 22.3438 35.0938 22.3438C35.2188 22.2812 35.2812 22.2188 35.2812 22.1562C34.9688 21.4688 34.7812 21.0938 34.7188 21.0312C34.6562 20.9688 34.5625 20.9062 34.4375 20.8438C34.25 20.3438 34.0938 20.0625 33.9688 20C33.9062 19.9375 33.875 19.8125 33.875 19.625C33.75 19 33.625 18.625 33.5 18.5C33.4375 18.3125 33.4062 18.125 33.4062 17.9375C33.5312 17.4375 33.5938 17.125 33.5938 17C33.5938 16.8125 33.5312 16.6562 33.4062 16.5312C33.2188 16.4062 33.0312 16.375 32.8438 16.4375C32.7188 16.5 32.5625 16.4688 32.375 16.3438C32.125 16.0938 32 15.875 32 15.6875C32.0625 15.5 32.0312 15.3125 31.9062 15.125C32.2188 14.8125 32.375 14.5 32.375 14.1875C32.125 14.0625 31.9062 14.0312 31.7188 14.0938C31.5938 14.0938 31.4688 14.0312 31.3438 13.9062C30.7812 13.2812 30.4688 12.8125 30.4062 12.5C30.2188 12.5 30.0625 12.5625 29.9375 12.6875C29.8125 12.75 29.625 12.75 29.375 12.6875C28.75 12.25 28.3125 12.0625 28.0625 12.125C27.875 12.125 27.625 12.125 27.3125 12.125C26.5 11.9375 25.875 11.75 25.4375 11.5625C25 11.375 24.8125 11 24.875 10.4375C24.75 10.5 24.625 10.6563 24.5 10.9062C24.375 11.0938 24.25 11.25 24.125 11.375C23.6875 11.4375 23.25 11.4688 22.8125 11.4688C22.4375 11.4688 22 11.5 21.5 11.5625C21.25 11.6875 21.0312 11.8438 20.8438 12.0312C20.6562 12.1562 20.4375 12.2812 20.1875 12.4062C19.9375 12.6562 19.7188 12.9375 19.5312 13.25C19.4062 13.5 19.2188 13.7188 18.9688 13.9062C18.4688 14.0312 18.0938 14.1562 17.8438 14.2812C17.8438 14.5312 17.8438 14.7812 17.8438 15.0312C17.9062 15.2188 17.8438 15.375 17.6562 15.5C16.8438 15.8125 16.4688 16.2812 16.5312 16.9062C16.6562 17.5312 16.6562 18.0938 16.5312 18.5938C16.2812 18.9688 16.1875 19.2188 16.25 19.3438C16.3125 19.4062 16.3125 19.5625 16.25 19.8125C15.875 20.25 15.6875 20.625 15.6875 20.9375C15.75 21.375 15.9688 21.7188 16.3438 21.9688C16.5938 22.0312 16.9062 22.1875 17.2812 22.4375C17.2188 22.75 17.2188 23.0938 17.2812 23.4688C17.3438 23.7812 17.4062 24.125 17.4688 24.5C17.9062 24.75 18.1875 25.2188 18.3125 25.9062C18.8125 25.9688 19.125 26.1875 19.25 26.5625C19.375 26.875 19.5625 27.1562 19.8125 27.4062C20.6875 27.4688 21.2812 27.5938 21.5938 27.7812C21.9062 27.9688 22.25 28.1562 22.625 28.3438C22.9375 28.3438 23.1562 28.3125 23.2812 28.25C23.4688 28.125 23.6875 28.0625 23.9375 28.0625C24.25 28.375 24.5938 28.625 24.9688 28.8125C25.3438 28.9375 25.6875 29.1562 26 29.4688C26.5625 29.5938 27.0938 29.7188 27.5938 29.8438C28.1562 29.9688 28.6562 30.1562 29.0938 30.4062C29.2812 30.4062 29.4375 30.4062 29.5625 30.4062C29.75 30.3438 29.9375 30.3438 30.125 30.4062C30.4375 30.4688 30.6875 30.625 30.875 30.875C31.0625 31.0625 31.25 31.2188 31.4375 31.3438C32.125 31.2812 32.5625 31.4062 32.75 31.7188C33 31.9688 33.2812 32.2188 33.5938 32.4688C33.8438 32.5312 34.25 32.5625 34.8125 32.5625C35.5 33 35.9688 33.2188 36.2188 33.2188C36.4688 33.1562 36.6875 33.1562 36.875 33.2188C37.0625 33.3438 37.2188 33.4688 37.3438 33.5938C37.4688 33.6562 37.5938 33.75 37.7188 33.875C38.4062 34.125 38.7812 34.3438 38.8438 34.5312C38.9062 34.6562 39 34.7812 39.125 34.9062C39.625 34.9062 40.0625 35.0938 40.4375 35.4688C40.5 35.7812 40.5938 36.0312 40.7188 36.2188C40.9062 36.4062 41.0625 36.625 41.1875 36.875C41.5 36.875 41.7188 36.9688 41.8438 37.1562C42.0312 37.3438 42.1875 37.5 42.3125 37.625C42.375 37.875 42.4375 38.0938 42.5 38.2812C42.5625 38.4688 42.5938 38.7188 42.5938 39.0312C42.7188 39.3438 42.875 39.625 43.0625 39.875C43.3125 40.0625 43.5 40.3438 43.625 40.7188C43.875 41.0312 44.125 41.2812 44.375 41.4688C44.625 41.6562 44.7812 41.9688 44.8438 42.4062C45.1562 43.2812 45.4062 43.8438 45.5938 44.0938C45.8438 44.2812 45.9062 44.6875 45.7812 45.3125C45.8438 45.9375 45.8438 46.4062 45.7812 46.7188C45.7812 47.0312 45.7188 47.3438 45.5938 47.6562L46.3438 48.2188ZM86.5625 69.4062C86.5 69.7188 86.5312 70 86.6562 70.25C86.8438 70.4375 86.9375 70.6875 86.9375 71C87.1875 71.5625 87.25 71.8438 87.125 71.8438C87.0625 71.8438 87.0312 71.9062 87.0312 72.0312C86.7812 72.0312 86.5938 71.9688 86.4688 71.8438C86.4062 71.7812 86.25 71.7812 86 71.8438C85.3125 71.4062 84.8438 71.25 84.5938 71.375C84.3438 71.5 84.0938 71.4688 83.8438 71.2812C83.1562 71.4062 82.75 71.375 82.625 71.1875C82.5625 71.0625 82.4688 70.9375 82.3438 70.8125C81.4688 71.25 80.5312 71.4688 79.5312 71.4688C78.9688 71.2812 78.5938 71.1875 78.4062 71.1875C78.2188 71.25 78 71.2812 77.75 71.2812C76.875 71.5312 76.4375 71.4375 76.4375 71C76.4375 70.625 76.4688 70.2812 76.5312 69.9688C76.2188 69.2812 76.0938 68.9062 76.1562 68.8438C76.2188 68.7812 76.25 68.6875 76.25 68.5625C76.125 68.25 76 68 75.875 67.8125C75.75 67.625 75.6875 67.375 75.6875 67.0625C75.5625 66.875 75.4688 66.7188 75.4062 66.5938C75.3438 66.4062 75.2812 66.2188 75.2188 66.0312C74.9062 65.2812 74.7812 64.8438 74.8438 64.7188C74.9688 64.5938 75.0312 64.4375 75.0312 64.25C74.7812 63.5625 74.5938 63.1562 74.4688 63.0312C74.4062 62.8438 74.375 62.6875 74.375 62.5625C74.3125 61.9375 74.2188 61.6562 74.0938 61.7188C73.9688 61.7188 73.8438 61.6562 73.7188 61.5312C73.5938 61.0312 73.5938 60.7188 73.7188 60.5938C73.8438 60.4062 73.9375 60.2188 74 60.0312C73.875 59.9062 73.7812 59.75 73.7188 59.5625C73.7188 59.375 73.6562 59.2188 73.5312 59.0938C73.2188 58.8438 72.9688 58.5938 72.7812 58.3438C72.5938 58.0938 72.4688 57.7188 72.4062 57.2188C72.3438 56.4688 72.2812 55.9688 72.2188 55.7188C72.2188 55.4688 72.2812 55.2188 72.4062 54.9688C72.0938 54.9688 71.7812 55.0312 71.4688 55.1562C71.2188 55.2188 70.875 55.25 70.4375 55.25C69.625 55.1875 69.0625 55.1562 68.75 55.1562C68.4375 55.1562 68.0312 55.1562 67.5312 55.1562C66.9688 55.0938 66.5625 55.0625 66.3125 55.0625C66.0625 55.0625 65.875 54.9688 65.75 54.7812C65.4375 54.9062 65.1562 55 64.9062 55.0625C64.6562 55.125 64.375 55.125 64.0625 55.0625C63.4375 55.375 63.0938 55.5 63.0312 55.4375C62.9688 55.375 62.875 55.3438 62.75 55.3438C62.625 55.4688 62.5312 55.625 62.4688 55.8125C62.4062 56 62.3125 56.1562 62.1875 56.2812C62.3125 56.5312 62.3438 56.7812 62.2812 57.0312C62.2188 57.2812 62.1562 57.5 62.0938 57.6875C62.2188 58.25 62.2812 58.5938 62.2812 58.7188C62.2812 58.8438 62.25 58.9688 62.1875 59.0938C62.0625 59.7812 61.9688 60.25 61.9062 60.5C61.4688 60.9375 61.1562 61.4688 60.9688 62.0938C60.8438 62.4062 60.75 62.6875 60.6875 62.9375C60.625 63.1875 60.5312 63.4688 60.4062 63.7812C60.2812 64.6562 60.125 65.5 59.9375 66.3125C59.8125 67.125 59.75 67.9375 59.75 68.75C59.5625 69.3125 59.4062 69.625 59.2812 69.6875C59.2188 69.6875 59.1562 69.75 59.0938 69.875C59.0312 70.1875 58.9688 70.375 58.9062 70.4375C58.8438 70.4375 58.8438 70.5938 58.9062 70.9062C58.4062 71.3438 58.1562 71.5625 58.1562 71.5625C58.2188 71.625 58.2188 71.7188 58.1562 71.8438C57.7188 72.2188 57.4688 72.5312 57.4062 72.7812C57.4062 73.0312 57.3125 73.2188 57.125 73.3438C56.8125 73.4062 56.5938 73.3438 56.4688 73.1562C56.4062 72.9688 56.2812 72.875 56.0938 72.875C55.6562 73 55.3125 73.25 55.0625 73.625C54.8125 74 54.4375 74.125 53.9375 74C53.8125 74.1875 53.6875 74.5938 53.5625 75.2188C53.0625 75.4688 52.5312 75.6562 51.9688 75.7812C51.4688 75.9688 51 76.2188 50.5625 76.5312C50.4375 76.4688 50.25 76.4375 50 76.4375C49.8125 76.5 49.6562 76.5312 49.5312 76.5312C49.4062 76.6562 49.3438 76.8125 49.3438 77C49.4062 77.25 49.4375 77.5 49.4375 77.75C48.875 78 48.4062 78.0625 48.0312 77.9375C47.5938 78.125 47.4375 78.625 47.5625 79.4375C47.125 80.0625 46.4688 80.3125 45.5938 80.1875C45.2812 80.75 45.0625 81.0938 44.9375 81.2188C44.8125 81.3438 44.5938 81.375 44.2812 81.3125C43.9688 81.5 43.75 81.7188 43.625 81.9688C43.4375 82.2812 43.1875 82.5312 42.875 82.7188C42.5 82.7812 42.2812 82.875 42.2188 83C42.1562 83.125 42.0625 83.25 41.9375 83.375C41.625 83.625 41.3438 83.8438 41.0938 84.0312C40.7812 84.2812 40.4688 84.5 40.1562 84.6875C39.5938 85.375 39.2812 85.7812 39.2188 85.9062C39.1562 86.0938 39.0312 86.25 38.8438 86.375C38.4062 85.875 38.2812 85.5312 38.4688 85.3438C38.5938 85.1562 38.7188 84.9375 38.8438 84.6875C39.2812 84 39.5625 83.625 39.6875 83.5625C39.75 83.5 39.8125 83.4062 39.875 83.2812C40 83.1562 40.0938 82.9688 40.1562 82.7188C40.1562 82.5312 40.2188 82.3438 40.3438 82.1562C41.1562 81.4062 41.75 80.6875 42.125 80C42.5 79.3125 42.7812 78.5312 42.9688 77.6562C43.2812 76.6562 43.5625 76.0625 43.8125 75.875C44 75 44.2188 74.4688 44.4688 74.2812C44.6562 74.0938 44.8125 73.875 44.9375 73.625V72.3125C45.25 72.1875 45.5625 72.0625 45.875 71.9375C46.125 71.875 46.4062 71.7812 46.7188 71.6562C46.9688 71.1562 47.25 70.6875 47.5625 70.25C47.9375 69.75 48.2188 69.1562 48.4062 68.4688C48.7188 68.1562 48.9688 67.8125 49.1562 67.4375C49.2812 67.125 49.2188 66.875 48.9688 66.6875C48.7188 66.5 48.6562 66.25 48.7812 65.9375C48.7812 65.6875 48.9062 65.5312 49.1562 65.4688C49.4688 65.3438 49.7188 65.2188 49.9062 65.0938C50.0938 64.5312 50.25 64.1875 50.375 64.0625C50.375 63.6875 50.4062 63.3125 50.4688 62.9375C50.5312 62.5625 50.6875 62.25 50.9375 62C50.875 61.625 50.9375 61.25 51.125 60.875C51.125 59.75 51.1562 58.75 51.2188 57.875C51.3438 56.9375 51.625 56.2188 52.0625 55.7188C52 54.5938 52.0938 53.8438 52.3438 53.4688C52.6562 53.0938 52.875 52.6875 53 52.25C53 52 52.9375 51.8125 52.8125 51.6875C52.75 51.5 52.6875 51.3438 52.625 51.2188C52.75 50.7188 53 50.3438 53.375 50.0938C53.75 49.7812 54.0625 49.4375 54.3125 49.0625C54.25 48.5 54.3438 48.0312 54.5938 47.6562C54.9062 47.2188 55.0938 46.75 55.1562 46.25C55.0312 45.3125 55 44.6875 55.0625 44.375C55.1875 44 55.25 43.625 55.25 43.25C55.6875 42.6875 55.875 42.375 55.8125 42.3125C55.8125 42.25 55.8125 42.1562 55.8125 42.0312C56 41.7812 56.125 41.4688 56.1875 41.0938C56.25 40.6562 56.375 40.2812 56.5625 39.9688C56.625 39.2188 56.5938 38.5312 56.4688 37.9062C56.7188 37.6562 56.9375 37.3438 57.125 36.9688C57.3125 36.5938 57.5 36.2188 57.6875 35.8438C57.125 35.5312 56.9375 35.0312 57.125 34.3438C57.375 34.2188 57.5625 34.0625 57.6875 33.875C57.8125 33.625 57.9375 33.4062 58.0625 33.2188C57.9375 32.7188 57.9688 32.375 58.1562 32.1875C58.3438 32 58.375 31.75 58.25 31.4375C58.375 31.125 58.5 30.8438 58.625 30.5938C58.75 30.2812 58.7812 29.9062 58.7188 29.4688C58.7812 29.1562 58.875 28.9062 59 28.7188C59.125 28.4688 59.1562 28.1562 59.0938 27.7812C59.2188 27.6562 59.3438 27.5312 59.4688 27.4062C59.6562 27.2188 59.75 26.9688 59.75 26.6562C59.6875 26.4688 59.625 26.3125 59.5625 26.1875C59.5 26 59.4375 25.7812 59.375 25.5312C59.625 24.7812 59.6875 24.375 59.5625 24.3125C59.4375 24.1875 59.375 24.0625 59.375 23.9375C59.5 23.75 59.5938 23.5938 59.6562 23.4688C59.7188 23.3438 59.6875 23.125 59.5625 22.8125C59.375 22.6875 59.1562 22.5625 58.9062 22.4375C58.7188 22.3125 58.5312 22.1875 58.3438 22.0625C58.2188 21.6875 58.2188 21.375 58.3438 21.125C58.5312 20.875 58.6875 20.5938 58.8125 20.2812C58.4375 19.7188 58.1875 19.4375 58.0625 19.4375C58 19.375 57.9062 19.3438 57.7812 19.3438C57.2188 18.9062 56.875 18.4688 56.75 18.0312C56.125 17.9062 55.625 17.7812 55.25 17.6562C55.5 17.0938 55.8125 16.8125 56.1875 16.8125C56.625 16.8125 56.9688 16.6875 57.2188 16.4375C58.5312 16.0625 60.0625 15.9375 61.8125 16.0625C62.1875 16.3125 62.5 16.4688 62.75 16.5312C63.0625 16.5938 63.3125 16.5938 63.5 16.5312C63.6875 16.4062 63.9375 16.2812 64.25 16.1562C64.6875 16.2812 65.0625 16.25 65.375 16.0625C65.6875 15.8125 66.0938 15.75 66.5938 15.875C67.0938 16.25 67.4062 16.4062 67.5312 16.3438C67.6562 16.2188 67.7812 16.125 67.9062 16.0625C68.4688 16.1875 68.875 16.25 69.125 16.25C69.4375 16.25 69.6562 16.3125 69.7812 16.4375C69.9688 16.3125 70.1562 16.2188 70.3438 16.1562C70.5938 16.0312 70.8438 15.9062 71.0938 15.7812C71.4062 15.9062 71.625 16.0625 71.75 16.25C71.9375 16.4375 72.1562 16.5938 72.4062 16.7188C72.2812 17.2188 72.2812 17.5938 72.4062 17.8438C72.5938 18.0938 72.75 18.375 72.875 18.6875C72.8125 18.9375 72.75 19.125 72.6875 19.25C72.625 19.375 72.5625 19.5312 72.5 19.7188C72.9375 20.2188 73.2812 20.5938 73.5312 20.8438C73.5312 21.3438 73.4375 21.7188 73.25 21.9688C73.5 22.4062 73.6562 22.9062 73.7188 23.4688C73.7812 24.0312 73.9688 24.4688 74.2812 24.7812C74.2812 25.0938 74.3125 25.3438 74.375 25.5312C74.5 25.7188 74.5625 25.9375 74.5625 26.1875C74.625 26.8125 74.625 27.1562 74.5625 27.2188C74.5 27.2188 74.4688 27.2812 74.4688 27.4062C74.6562 27.6562 74.8125 27.9375 74.9375 28.25C75.0625 28.5 75.125 28.875 75.125 29.375C75.6875 30.0625 75.9062 30.4688 75.7812 30.5938C75.8438 31.0938 75.9062 31.5312 75.9688 31.9062C76.0938 32.2812 76.2812 32.625 76.5312 32.9375C76.5312 33.5625 76.5938 34.0938 76.7188 34.5312C76.8438 34.9688 76.9688 35.4062 77.0938 35.8438C77.5312 35.7812 77.7812 35.7188 77.8438 35.6562C77.9688 35.5312 78.0938 35.4688 78.2188 35.4688C78.5312 35.9688 78.5938 36.2812 78.4062 36.4062C78.2188 36.4688 78.0938 36.5938 78.0312 36.7812C78.0938 37.4688 78.0625 37.875 77.9375 38C78.0625 38.3125 78.0625 38.6562 77.9375 39.0312C77.875 39.4062 77.9375 39.75 78.125 40.0625C78.1875 40.25 78.2812 40.4375 78.4062 40.625C78.5938 40.75 78.6875 40.9688 78.6875 41.2812C79.25 41.7812 79.5 42.25 79.4375 42.6875C79.4375 43.125 79.375 43.5312 79.25 43.9062C79.5 44.5938 79.6562 45 79.7188 45.125C79.7812 45.1875 79.875 45.25 80 45.3125C80.25 45.625 80.4375 46 80.5625 46.4375C80.6875 46.875 80.8125 47.2812 80.9375 47.6562C81.0625 48.4688 81.125 49 81.125 49.25C81.625 50.1875 81.8438 50.9062 81.7812 51.4062C81.7812 51.6562 81.6875 51.875 81.5 52.0625C81.3125 52.25 81.1875 52.4688 81.125 52.7188C81.75 52.8438 82.0938 53.0625 82.1562 53.375C82.2188 54.1875 82.3125 54.7812 82.4375 55.1562C82.5625 55.4688 82.5938 55.875 82.5312 56.375C82.6562 56.6875 82.75 57.0625 82.8125 57.5C82.875 57.875 83 58.2812 83.1875 58.7188C83.3125 59.0312 83.375 59.3125 83.375 59.5625C83.4375 59.75 83.4062 60 83.2812 60.3125C83.4062 60.5625 83.5938 60.8125 83.8438 61.0625C84.0938 61.3125 84.0938 61.625 83.8438 62C84.0938 62.9375 84.4375 63.625 84.875 64.0625C85 64.5 85.125 64.8125 85.25 65C85.4375 65.125 85.5938 65.3125 85.7188 65.5625C85.7188 65.8125 85.6875 66.0312 85.625 66.2188C85.5625 66.3438 85.5 66.4688 85.4375 66.5938C85.5625 66.9062 85.6875 67.1562 85.8125 67.3438C86 67.5312 86.0625 67.875 86 68.375C86.125 68.5 86.2188 68.6875 86.2812 68.9375C86.3438 69.125 86.4375 69.2812 86.5625 69.4062ZM70.625 46.5312C70.5 46.3438 70.3438 46.1875 70.1562 46.0625C70.0312 45.875 69.9062 45.625 69.7812 45.3125C69.7188 44.875 69.7188 44.5625 69.7812 44.375C69.8438 44.125 69.9062 43.8438 69.9688 43.5312C69.4688 43.1562 69.0625 42.75 68.75 42.3125C68.5 41.875 68.5312 41.3438 68.8438 40.7188L68.375 39.6875C68.125 39.3125 68 38.9688 68 38.6562C67.625 38.3438 67.5312 37.9062 67.7188 37.3438C67.5938 37.2188 67.5 37 67.4375 36.6875C67.4375 36.3125 67.5 36.0312 67.625 35.8438C67.5625 35.1562 67.5625 34.5938 67.625 34.1562C67.75 33.6562 67.75 33.25 67.625 32.9375C67.4375 33.125 67.3125 33.3438 67.25 33.5938C67.1875 33.7812 67.0938 33.9688 66.9688 34.1562C66.8438 34.7812 66.75 35.2812 66.6875 35.6562C66.625 36.0312 66.5312 36.375 66.4062 36.6875C66.4688 37 66.5 37.4688 66.5 38.0938C66.375 38.3438 66.2188 38.5625 66.0312 38.75C65.8438 38.9375 65.6562 39.1562 65.4688 39.4062C65.7188 39.7188 65.7812 40.0312 65.6562 40.3438C65.5312 40.5938 65.375 40.8438 65.1875 41.0938C65.4375 41.6562 65.5 42.0312 65.375 42.2188C65.25 42.3438 65.1875 42.5 65.1875 42.6875C65 43.1875 64.9688 43.6875 65.0938 44.1875C65.2812 44.6875 65.2812 45.1875 65.0938 45.6875C65.2188 46.125 65.25 46.5312 65.1875 46.9062C65.1875 47.2188 65.3438 47.4375 65.6562 47.5625C66.1562 47.5 66.5312 47.3438 66.7812 47.0938C67.0312 46.8438 67.375 46.75 67.8125 46.8125C68.5625 47.125 69.0938 47.3125 69.4062 47.375C69.7812 47.375 70.1875 47.375 70.625 47.375V46.5312ZM131.656 14.9375C131.781 15.625 131.781 16.0625 131.656 16.25C131.531 16.4375 131.406 16.5938 131.281 16.7188H130.062C129.812 17.4062 129.531 17.75 129.219 17.75C128.969 17.75 128.781 17.8438 128.656 18.0312C128.281 18.1562 128.062 18.2812 128 18.4062C128 18.4688 127.938 18.5625 127.812 18.6875C127.375 19.0625 127.062 19.3125 126.875 19.4375C126.688 19.5625 126.594 19.7812 126.594 20.0938C126.469 20.2188 126.25 20.3125 125.938 20.375C125.688 20.4375 125.469 20.5 125.281 20.5625C125.031 21.75 124.781 22.5 124.531 22.8125C124.281 23.0625 124.094 23.4062 123.969 23.8438C124.031 24.4688 124.156 24.8438 124.344 24.9688C124.531 25.0938 124.688 25.2188 124.812 25.3438C124.688 25.7812 124.531 26.0312 124.344 26.0938C124.219 26.0938 124.094 26.1562 123.969 26.2812C123.969 26.5312 124 26.75 124.062 26.9375C124.188 27.0625 124.281 27.25 124.344 27.5C124.344 28 124.219 28.375 123.969 28.625C123.719 28.8125 123.625 29.1562 123.688 29.6562C124.188 30.3438 124.375 30.7812 124.25 30.9688C124.125 31.0938 124.031 31.25 123.969 31.4375C124.469 32.1875 124.656 32.6562 124.531 32.8438C124.406 32.9688 124.281 33.125 124.156 33.3125C124.344 34.0625 124.375 34.5 124.25 34.625C124.188 34.6875 124.125 34.7812 124.062 34.9062C124.25 35.7188 124.219 36.1875 123.969 36.3125C123.781 36.375 123.594 36.4688 123.406 36.5938C123.719 36.8438 123.969 37.0625 124.156 37.25C124.406 37.4375 124.594 37.6875 124.719 38C124.656 38.3125 124.688 38.5625 124.812 38.75C124.938 38.9375 124.969 39.1875 124.906 39.5C124.906 39.6875 124.844 39.8438 124.719 39.9688C124.594 40.0938 124.5 40.25 124.438 40.4375C124.5 40.625 124.562 40.8125 124.625 41C124.75 41.1875 124.781 41.375 124.719 41.5625C124.344 42.3125 124.188 42.8125 124.25 43.0625C124.312 43.25 124.281 43.4688 124.156 43.7188C124.219 43.9062 124.344 44.0938 124.531 44.2812C124.719 44.4688 124.812 44.75 124.812 45.125C124.875 45.5625 124.75 46.0625 124.438 46.625C124.438 46.9375 124.5 47.1875 124.625 47.375C124.75 47.5625 124.875 47.8125 125 48.125C124.938 48.4375 124.812 48.6562 124.625 48.7812C124.438 48.9062 124.25 49.0312 124.062 49.1562C124.062 49.9062 124.062 50.5 124.062 50.9375C124.062 51.3125 123.938 51.5938 123.688 51.7812C123.812 51.9062 123.969 52.125 124.156 52.4375C124.344 52.6875 124.312 52.9688 124.062 53.2812C124.25 53.4688 124.469 53.625 124.719 53.75C124.969 53.875 125.156 54.0938 125.281 54.4062C125.281 54.9062 125.062 55.1875 124.625 55.25C124.688 55.6875 124.688 55.9688 124.625 56.0938C124.562 56.1562 124.5 56.25 124.438 56.375C124.562 56.6875 124.625 57.125 124.625 57.6875C124.688 58.25 124.562 58.5938 124.25 58.7188C124.25 59.2812 124.281 59.5938 124.344 59.6562C124.469 59.7188 124.5 59.8125 124.438 59.9375C124.312 60.25 124.125 60.4688 123.875 60.5938C123.625 60.6562 123.438 60.8125 123.312 61.0625C123.188 61.3125 123.156 61.5938 123.219 61.9062C123.281 62.1562 123.25 62.4062 123.125 62.6562C123.312 63.2812 123.469 63.6562 123.594 63.7812C123.781 63.9062 123.938 64.0625 124.062 64.25C124 64.5625 124.031 65.0312 124.156 65.6562C123.844 66.0938 123.688 66.5938 123.688 67.1562C123.688 67.6562 123.562 68.125 123.312 68.5625C123.438 69.1875 123.531 69.5 123.594 69.5C123.719 69.5 123.844 69.5625 123.969 69.6875C123.969 70.125 123.75 70.4062 123.312 70.5312C122.875 70.6562 122.594 70.5 122.469 70.0625C122.156 70.125 121.875 70.25 121.625 70.4375C121.375 70.5625 121.094 70.5625 120.781 70.4375C120.031 70.6875 119.531 70.6562 119.281 70.3438C119.156 70.4062 118.938 70.5312 118.625 70.7188C118.375 70.9062 118.125 70.9688 117.875 70.9062C117.375 70.6562 116.969 70.5938 116.656 70.7188C116.406 70.7812 116.125 70.8438 115.812 70.9062C115.562 70.9688 115.312 71 115.062 71C114.875 70.9375 114.688 70.7812 114.5 70.5312C114.688 70.1562 114.656 69.8438 114.406 69.5938C114.219 69.2812 114.219 68.875 114.406 68.375C114.031 67.9375 113.844 67.6562 113.844 67.5312C113.906 67.3438 113.906 67.1562 113.844 66.9688C113.656 66.9062 113.438 66.875 113.188 66.875C113 66.875 112.875 66.75 112.812 66.5C112.75 65.875 112.531 65.5 112.156 65.375C111.969 65.0625 111.844 64.7188 111.781 64.3438C111.719 63.9062 111.625 63.5 111.5 63.125C110.688 62.6875 110.469 62.2188 110.844 61.7188C110.719 61.5938 110.625 61.4062 110.562 61.1562C110.562 60.9062 110.5 60.6875 110.375 60.5C110 59.6875 109.688 59.0938 109.438 58.7188C108.625 58.2812 108.094 57.9375 107.844 57.6875C107.719 57.375 107.719 57.125 107.844 56.9375C107.969 56.6875 107.969 56.375 107.844 56C107.406 55.5 107.156 55.0625 107.094 54.6875C107.031 54.3125 106.875 54 106.625 53.75C105.875 52.9375 105.594 52.0625 105.781 51.125C105.281 50.5625 104.938 50.2188 104.75 50.0938C104.562 49.9688 104.469 49.75 104.469 49.4375C104.656 49.125 104.875 49.0625 105.125 49.25C105.375 49.4375 105.562 49.5938 105.688 49.7188C105.938 48.8438 105.875 48.4062 105.5 48.4062C105.125 48.4062 104.875 48.2188 104.75 47.8438C104.562 47.3438 104.344 47.0625 104.094 47C103.844 46.875 103.656 46.7188 103.531 46.5312C103.344 46.2188 103.25 45.8125 103.25 45.3125C103.25 44.75 103.312 44.2812 103.438 43.9062C102.938 43.2812 102.719 42.8438 102.781 42.5938C102.844 42.2812 102.938 42.0312 103.062 41.8438C102.938 41.5312 102.719 41.375 102.406 41.375C102.094 41.3125 101.969 41.0625 102.031 40.625C101.719 40.625 101.438 40.625 101.188 40.625C100.938 40.625 100.75 40.5625 100.625 40.4375C100.562 40.8125 100.625 41.0625 100.812 41.1875C101 41.25 101.125 41.4375 101.188 41.75C101 42.4375 100.969 42.8438 101.094 42.9688C101.219 43.0312 101.281 43.1875 101.281 43.4375C101.156 43.6875 101 43.875 100.812 44C100.688 44.125 100.562 44.25 100.438 44.375C100.375 44.9375 100.438 45.375 100.625 45.6875C100.875 46 100.938 46.4062 100.812 46.9062C100.875 47.1562 100.969 47.4062 101.094 47.6562C101.219 47.9062 101.312 48.1875 101.375 48.5C101.438 48.8125 101.438 49.0938 101.375 49.3438C101.312 49.5938 101.344 49.8438 101.469 50.0938C101.219 50.2812 101.094 50.6562 101.094 51.2188C101.094 51.7188 101.219 52.0625 101.469 52.25C101.844 52.375 102.219 52.4688 102.594 52.5312C103.031 52.5938 103.188 52.9062 103.062 53.4688C102.812 53.7812 102.5 54.0625 102.125 54.3125C101.75 54.5 101.531 54.875 101.469 55.4375C101.406 56.1875 101.375 56.7188 101.375 57.0312C101.375 57.2812 101.375 57.625 101.375 58.0625C101.188 58.25 101 58.4062 100.812 58.5312C100.625 58.6562 100.469 58.8125 100.344 59C100.531 59.8125 100.688 60.2812 100.812 60.4062C100.938 60.4688 101.031 60.5938 101.094 60.7812C101.031 61.6562 100.938 62.2812 100.812 62.6562C100.875 63.7812 101 64.625 101.188 65.1875C101.438 65.6875 101.75 66.0938 102.125 66.4062C102.125 66.7188 102.062 66.9688 101.938 67.1562C101.812 67.3438 101.688 67.5312 101.562 67.7188C101.625 67.9688 101.75 68.2812 101.938 68.6562C102.125 69.0312 102.031 69.2812 101.656 69.4062C101.094 69.2188 100.625 69.1562 100.25 69.2188C99.875 69.2188 99.625 69.2812 99.5 69.4062C99.5 70.2188 99.5312 70.75 99.5938 71C99.6562 71.1875 99.625 71.4062 99.5 71.6562C99.3125 71.7812 99.0938 71.8125 98.8438 71.75C98.6562 71.6875 98.4375 71.6875 98.1875 71.75C98.0625 72.1875 97.875 72.5938 97.625 72.9688C97.4375 73.3438 97.125 73.5938 96.6875 73.7188C96.625 74.0312 96.5 74.25 96.3125 74.375C96.1875 74.5 96.1562 74.75 96.2188 75.125C96.0312 75.25 95.8438 75.375 95.6562 75.5C95.5312 75.625 95.3125 75.6875 95 75.6875C95.125 76.1875 95.0312 76.625 94.7188 77C94.4062 77.4375 94.0938 77.4062 93.7812 76.9062C93.5938 77.0312 93.4688 77.1875 93.4062 77.375C93.3438 77.5625 93.25 77.7188 93.125 77.8438C93 78.2812 92.9062 78.5938 92.8438 78.7812C92.7812 79.0312 92.7188 79.3125 92.6562 79.625C92.3438 79.8125 92.1562 80.0938 92.0938 80.4688C92.0312 80.8438 91.8438 81.1562 91.5312 81.4062C91.0938 81.1562 90.8125 80.9688 90.6875 80.8438C90.625 80.7188 90.5625 80.5312 90.5 80.2812C90.5625 80.0938 90.7188 79.9062 90.9688 79.7188C91.2188 79.5312 91.1875 79.2812 90.875 78.9688C91.125 78.3438 91.1875 78 91.0625 77.9375C91 77.875 90.9688 77.75 90.9688 77.5625C91.1562 76.8125 91.2188 76.4062 91.1562 76.3438C91.1562 75.1562 91.3438 74.2188 91.7188 73.5312C91.6562 73.0312 91.6562 72.75 91.7188 72.6875C91.7812 72.625 91.8125 72.5312 91.8125 72.4062C91.6875 72.0938 91.5625 71.8438 91.4375 71.6562C91.3125 71.4688 91.25 71.2188 91.25 70.9062C91.1875 70.4688 91.2188 70.0938 91.3438 69.7812C91.4688 69.4688 91.625 69.1562 91.8125 68.8438C91.625 68.0938 91.4688 67.6562 91.3438 67.5312C91.2188 67.4062 91.1875 67.1875 91.25 66.875C91.4375 66.375 91.5625 66.0625 91.625 65.9375C91.6875 65.75 91.75 65.5938 91.8125 65.4688C91.75 65.0938 91.625 64.8438 91.4375 64.7188C91.25 64.5312 91.1875 64.2188 91.25 63.7812C91.375 63.2812 91.3438 63 91.1562 62.9375C90.9688 62.875 90.9062 62.7188 90.9688 62.4688C91.4062 61.8438 91.5938 61.4688 91.5312 61.3438C91.4688 61.1562 91.4688 60.9062 91.5312 60.5938C90.9688 59.7812 90.7812 59.3125 90.9688 59.1875C91.2188 59 91.4375 58.7812 91.625 58.5312C91.5 58.3438 91.3438 58.125 91.1562 57.875C91.0312 57.625 91.0312 57.2812 91.1562 56.8438C91.0312 56.7188 90.875 56.625 90.6875 56.5625C90.5 56.5 90.375 56.3438 90.3125 56.0938C90.5 55.5938 90.7188 55.1875 90.9688 54.875C91.2812 54.5625 91.5625 54.1875 91.8125 53.75C91.6875 53.5625 91.5 53.4375 91.25 53.375C91.0625 53.25 91 53 91.0625 52.625C91.125 52.375 91.2188 52.2188 91.3438 52.1562C91.4688 52.0312 91.5938 51.9062 91.7188 51.7812C91.4688 51.4062 91.4688 51.0938 91.7188 50.8438C91.9688 50.5312 92.0625 50.1562 92 49.7188C92.375 49.3438 92.7188 49.125 93.0312 49.0625C92.9062 48.75 92.7812 48.4375 92.6562 48.125C92.5938 47.8125 92.625 47.4375 92.75 47C92.5625 46.625 92.2812 46.3125 91.9062 46.0625C91.5312 45.8125 91.3125 45.4062 91.25 44.8438C91.8125 44.0938 92.0625 43.375 92 42.6875C92.1875 41.9375 92.0938 41.4062 91.7188 41.0938C91.4062 40.7188 91.4375 40.375 91.8125 40.0625C91.6875 39.75 91.5625 39.375 91.4375 38.9375C91.375 38.5 91.5 38.125 91.8125 37.8125C91.75 37.625 91.6562 37.4688 91.5312 37.3438C91.4688 37.2188 91.4688 37 91.5312 36.6875C91.4062 36.5625 91.2812 36.4375 91.1562 36.3125C91.0312 36.1875 90.9062 36.0625 90.7812 35.9375C90.6562 35.4375 90.7188 35.125 90.9688 35C91.2812 34.8125 91.5 34.5625 91.625 34.25C91.625 33.9375 91.6875 33.6562 91.8125 33.4062C91.9375 33.0938 91.9375 32.75 91.8125 32.375C91.875 31.625 91.8125 31.2188 91.625 31.1562C91.4375 31.0312 91.3438 30.8438 91.3438 30.5938C91.2812 30.2812 91.3438 30.0938 91.5312 30.0312C91.7812 29.9062 92.0312 29.75 92.2812 29.5625C92.1562 29.0625 92.0312 28.5312 91.9062 27.9688C91.8438 27.3438 92.0312 26.9062 92.4688 26.6562C92.0938 26.1562 91.8125 25.875 91.625 25.8125C91.5 25.75 91.375 25.625 91.25 25.4375C91.1875 24.75 91 24.3438 90.6875 24.2188C90.4375 24.0938 90.25 23.9062 90.125 23.6562C90.25 23.2812 90.2188 23 90.0312 22.8125C89.9062 22.5625 89.8125 22.2812 89.75 21.9688C89.4375 22.0312 89.0938 22.0625 88.7188 22.0625C88.3438 22 88.1562 21.7812 88.1562 21.4062C88.3438 20.7812 88.2812 20.4375 87.9688 20.375C87.6562 20.3125 87.5312 20.0312 87.5938 19.5312C86.9688 19.4062 86.625 19.1562 86.5625 18.7812C86.25 18.6562 85.9688 18.5625 85.7188 18.5C85.4062 18.4375 85.1875 18.2812 85.0625 18.0312C85 17.4688 84.9062 17.1562 84.7812 17.0938C84.5938 17.0312 84.5 16.875 84.5 16.625C84.4375 16.3125 84.5625 16.1562 84.875 16.1562C85.1875 16.0938 85.5 16 85.8125 15.875C86.25 15.875 86.5 15.9062 86.5625 15.9688C86.625 16.0312 86.7188 16.0938 86.8438 16.1562C87.4688 16.1562 88.0312 16.1875 88.5312 16.25C89.0938 16.25 89.625 16.1875 90.125 16.0625C90.9375 16.3125 91.5312 16.3438 91.9062 16.1562C92.3438 15.9688 92.8438 15.8438 93.4062 15.7812C94.0938 15.9688 94.5938 16.0312 94.9062 15.9688C95.2812 15.9062 95.5312 16.0312 95.6562 16.3438C96.1562 16.2812 96.5938 16.2188 96.9688 16.1562C97.4062 16.0938 97.7812 16 98.0938 15.875C98.5312 15.875 98.9062 15.8438 99.2188 15.7812C99.5938 15.7188 100 15.6562 100.438 15.5938C100.625 16.0938 100.625 16.4062 100.438 16.5312C100.312 16.5938 100.219 16.7188 100.156 16.9062C101.219 17.2188 101.969 17.375 102.406 17.375C102.344 17.6875 102.156 17.875 101.844 17.9375C101.594 17.9375 101.469 18.0938 101.469 18.4062C101.531 18.5938 101.656 18.7188 101.844 18.7812C102.031 18.7812 102.219 18.7812 102.406 18.7812C102.594 18.7812 102.75 18.8125 102.875 18.875C103 18.9375 103.062 19.0625 103.062 19.25C102.875 19.75 102.844 20.0625 102.969 20.1875C103.094 20.3125 103.219 20.4688 103.344 20.6562C103.406 21.1562 103.469 21.625 103.531 22.0625C103.656 22.4375 103.594 22.7812 103.344 23.0938C103.656 23.3438 104 23.5312 104.375 23.6562C104.812 23.7188 105.156 23.9062 105.406 24.2188C105.531 24.4688 105.594 24.7812 105.594 25.1562C105.656 25.5312 105.562 25.7812 105.312 25.9062C105.5 26.4688 105.562 26.7812 105.5 26.8438C105.438 26.9062 105.406 27 105.406 27.125C105.469 27.3125 105.5 27.5312 105.5 27.7812C105.5 28.0312 105.531 28.3125 105.594 28.625C106.469 29.3125 107.062 30.0312 107.375 30.7812C107.438 31.3438 107.594 31.6875 107.844 31.8125C108.094 31.9375 108.281 32.125 108.406 32.375C108.281 32.6875 108.312 32.9375 108.5 33.125C108.688 33.25 108.719 33.4688 108.594 33.7812C108.844 33.9688 109.094 34.125 109.344 34.25C109.594 34.3125 109.75 34.5312 109.812 34.9062C109.875 35.4062 110 35.7188 110.188 35.8438C110.375 35.9062 110.5 36.0625 110.562 36.3125C110.875 37 111 37.4375 110.938 37.625C110.938 37.8125 110.906 38 110.844 38.1875C111.469 38.5625 111.781 38.875 111.781 39.125C111.781 39.3125 111.719 39.5312 111.594 39.7812C111.469 40.0312 111.344 40.2812 111.219 40.5312C111.094 40.7812 111.031 41.0312 111.031 41.2812C111.594 41.2812 111.938 41.4062 112.062 41.6562C112 42.0312 111.938 42.4375 111.875 42.875C111.875 43.25 112.031 43.5938 112.344 43.9062C113.031 44.0938 113.344 44.3438 113.281 44.6562C113.469 44.7812 113.656 44.875 113.844 44.9375C114.031 45 114.156 45.1875 114.219 45.5C114.031 46.1875 114 46.5625 114.125 46.625C114.25 46.6875 114.344 46.7812 114.406 46.9062C114.531 47.0312 114.594 47.1875 114.594 47.375C114.594 47.5625 114.625 47.75 114.688 47.9375C115 47.8125 115.125 47.625 115.062 47.375C115 47.125 114.938 46.8438 114.875 46.5312C115.188 45.7188 115.188 45.25 114.875 45.125C114.625 45 114.531 44.6875 114.594 44.1875C114.781 43.5 115 43.0312 115.25 42.7812C115.5 42.4688 115.656 42.1562 115.719 41.8438C115.719 41.5938 115.656 41.375 115.531 41.1875C115.469 40.9375 115.438 40.7188 115.438 40.5312C115.25 40.3438 115.031 40.1562 114.781 39.9688C114.594 39.7812 114.438 39.5625 114.312 39.3125C114.312 38.4375 114.312 37.9375 114.312 37.8125C114.375 36.8125 114.5 36.125 114.688 35.75C114.875 35.3125 115.125 34.9688 115.438 34.7188C115.188 33.9688 115.125 33.5938 115.25 33.5938C115.438 33.5312 115.562 33.4375 115.625 33.3125C115.5 33.0625 115.344 32.9375 115.156 32.9375C114.969 32.875 114.812 32.7812 114.688 32.6562C114.5 32.2812 114.469 31.875 114.594 31.4375C114.781 31 115.031 30.7188 115.344 30.5938C114.844 29.9062 114.469 29.4375 114.219 29.1875C113.969 28.9375 113.875 28.5625 113.938 28.0625C114 27.75 114.156 27.5312 114.406 27.4062C114.719 27.2188 115.031 27.0625 115.344 26.9375C115.219 26.625 114.906 26.4062 114.406 26.2812C113.969 26.0938 113.844 25.7188 114.031 25.1562C114.344 24.5312 114.438 24.1875 114.312 24.125C114.25 24 114.25 23.8125 114.312 23.5625C114.312 23.3125 114.344 23.125 114.406 23C114.531 22.875 114.656 22.75 114.781 22.625C114.844 22.3125 114.844 22.0625 114.781 21.875C114.719 21.625 114.625 21.375 114.5 21.125C114.5 20.375 114.406 19.9062 114.219 19.7188C114.094 19.4688 114.125 19.1875 114.312 18.875C113.875 18.375 113.688 18.0312 113.75 17.8438C113.812 17.5938 113.844 17.3438 113.844 17.0938C114.469 16.2812 115.031 15.7812 115.531 15.5938C116.094 15.3438 116.594 15.375 117.031 15.6875C117.281 15.625 117.469 15.5625 117.594 15.5C117.781 15.4375 118 15.375 118.25 15.3125C118.875 15.8125 119.344 16 119.656 15.875C120.031 15.6875 120.312 15.5312 120.5 15.4062C121.188 15.3438 121.656 15.2812 121.906 15.2188C122.219 15.0938 122.562 15.0625 122.938 15.125C123.562 15.375 124 15.5312 124.25 15.5938C124.5 15.5938 124.781 15.5312 125.094 15.4062C125.406 15.5312 125.75 15.5625 126.125 15.5C126.5 15.4375 126.812 15.3438 127.062 15.2188C127.625 15.4688 128.156 15.5312 128.656 15.4062C129.156 15.2188 129.625 15.0625 130.062 14.9375C130.625 15.125 130.969 15.1875 131.094 15.125C131.219 15 131.406 14.9375 131.656 14.9375ZM169.438 26.375C169.312 26.75 169.312 27.1875 169.438 27.6875C169.562 28.125 169.531 28.5312 169.344 28.9062C168.844 28.9062 168.562 28.8438 168.5 28.7188C168.5 28.5938 168.469 28.4688 168.406 28.3438C167.906 27.9062 167.594 27.5625 167.469 27.3125C167.031 27.1875 166.719 26.9688 166.531 26.6562C166.406 26.3438 166.094 26.1562 165.594 26.0938C164.969 26.3438 164.531 26.3438 164.281 26.0938C164.281 25.7812 164.219 25.5312 164.094 25.3438C163.969 25.0938 163.656 25.0625 163.156 25.25C162.594 24.5625 162.219 24.2188 162.031 24.2188C161.906 24.1562 161.781 24.0625 161.656 23.9375C160.906 23.8125 160.5 23.6875 160.438 23.5625C160.438 23.375 160.375 23.2188 160.25 23.0938C159.938 23.1562 159.719 23.25 159.594 23.375C159.469 23.5 159.312 23.625 159.125 23.75C158.812 23.75 158.438 23.8125 158 23.9375C157.562 24.0625 157.312 23.875 157.25 23.375C156.938 23.4375 156.5 23.5625 155.938 23.75C155.438 23.9375 155.062 24.0312 154.812 24.0312C153.938 23.8438 153.375 23.875 153.125 24.125C152.875 24.3125 152.531 24.4062 152.094 24.4062C152.156 24.9062 152.188 25.375 152.188 25.8125C152.188 26.25 152.031 26.5625 151.719 26.75C151.844 27.125 151.938 27.5312 152 27.9688C152.125 28.3438 152.25 28.7188 152.375 29.0938C152.125 30.3438 152 31.25 152 31.8125C152.062 32.375 152.094 33.0312 152.094 33.7812C152.219 34.4062 152.25 34.7812 152.188 34.9062C152.125 34.9688 152.031 35.0625 151.906 35.1875C151.906 35.4375 151.844 35.6562 151.719 35.8438C151.656 35.9688 151.688 36.1562 151.812 36.4062C151.688 36.5938 151.594 36.8438 151.531 37.1562C151.531 37.4688 151.5 37.7812 151.438 38.0938C151.5 38.4062 151.594 38.6875 151.719 38.9375C151.906 39.1875 152.031 39.5 152.094 39.875C152.094 40.3125 152 40.75 151.812 41.1875C151.688 41.5625 151.562 41.9062 151.438 42.2188C151.562 42.5938 151.688 43.0312 151.812 43.5312C151.938 43.9688 152.062 44.375 152.188 44.75C152.188 45.625 152.156 46.25 152.094 46.625C152.031 47 152.031 47.375 152.094 47.75C152.656 48.125 152.875 48.4375 152.75 48.6875C152.625 48.875 152.625 49.0938 152.75 49.3438C152.438 49.6562 152.281 50.0625 152.281 50.5625C152.281 51.0625 152.219 51.5625 152.094 52.0625C152.219 52.3125 152.25 52.5938 152.188 52.9062C152.188 53.2188 152.25 53.4688 152.375 53.6562C152.25 54.1562 152.281 54.6875 152.469 55.25C152.656 55.75 152.625 56.2188 152.375 56.6562C152.438 56.7812 152.531 56.9375 152.656 57.125C152.781 57.25 152.875 57.4062 152.938 57.5938C152.938 57.8438 152.906 58.0312 152.844 58.1562C152.844 58.2812 152.812 58.4375 152.75 58.625C152.875 59.1875 152.938 59.5312 152.938 59.6562C153 59.7812 153 59.875 152.938 59.9375C153.188 60.4375 153.312 61.1875 153.312 62.1875C153.188 62.375 153.125 62.5938 153.125 62.8438C153.188 63.0938 153.156 63.3438 153.031 63.5938C152.969 63.7812 152.875 63.9688 152.75 64.1562C152.625 64.2812 152.562 64.4375 152.562 64.625C152.5 65.125 152.562 65.5312 152.75 65.8438C152.938 66.0938 153.031 66.4375 153.031 66.875C152.906 67 152.812 67.1562 152.75 67.3438C152.688 67.4688 152.594 67.625 152.469 67.8125C152.531 67.9375 152.594 68.0938 152.656 68.2812C152.781 68.4688 152.906 68.6562 153.031 68.8438C153.406 69.5938 153.531 70.0312 153.406 70.1562C153.281 70.7188 153.062 71 152.75 71C152.5 71.125 152.281 71.2812 152.094 71.4688C151.969 71.6562 151.75 71.75 151.438 71.75C150.688 72.25 150.219 72.4062 150.031 72.2188C149.906 72.0312 149.688 71.875 149.375 71.75C149.062 71.75 148.906 71.875 148.906 72.125C148.906 72.375 148.781 72.5625 148.531 72.6875C148.406 73.125 148.312 73.5 148.25 73.8125C148.188 74.1875 148 74.5 147.688 74.75C146.938 74.9375 146.656 75.2188 146.844 75.5938C147.094 76.0312 147.094 76.4062 146.844 76.7188C146.344 76.7188 146.062 76.7812 146 76.9062C146 77.0312 145.938 77.0938 145.812 77.0938C145.75 77.5938 145.656 77.9062 145.531 78.0312C145.406 78.1562 145.219 78.2188 144.969 78.2188C144.844 78.5312 144.688 78.8125 144.5 79.0625C144.312 79.3125 144.219 79.5938 144.219 79.9062C143.844 80.4062 143.562 80.9375 143.375 81.5C143.188 81.625 143.031 81.7812 142.906 81.9688C142.844 82.2188 142.719 82.4375 142.531 82.625C142.094 82.1875 141.969 81.75 142.156 81.3125C142.344 80.9375 142.375 80.5938 142.25 80.2812C142.312 79.7188 142.344 79.2812 142.344 78.9688C142.344 78.7188 142.312 78.4375 142.25 78.125C142.375 77.875 142.562 77.5625 142.812 77.1875C142.812 76.9375 142.812 76.6875 142.812 76.4375C142.875 76.25 142.875 76.0625 142.812 75.875C142.875 75.5625 143 75.25 143.188 74.9375C143.438 74.6875 143.531 74.4062 143.469 74.0938C143.469 73.8438 143.406 73.6562 143.281 73.5312C143.156 73.4688 143.062 73.3438 143 73.1562C143 72.5938 142.969 72.2188 142.906 72.0312C143.156 71.7188 143.281 71.3438 143.281 70.9062C143.281 70.4688 143.344 70.0312 143.469 69.5938C143.219 69.0938 143.188 68.5625 143.375 68C143.625 67.4375 143.688 66.9062 143.562 66.4062C143.562 65.7812 143.438 65.4062 143.188 65.2812C142.938 65.0938 142.75 64.8125 142.625 64.4375C142.938 63.8125 143 63.125 142.812 62.375C142.938 62.125 143.031 61.8438 143.094 61.5312C143.219 61.2188 143.219 60.875 143.094 60.5C143.281 59.625 143.312 59 143.188 58.625C143.312 58.1875 143.438 57.8125 143.562 57.5C143.75 57.125 143.844 56.6875 143.844 56.1875C143.656 55.6875 143.594 55.375 143.656 55.25C143.719 55.125 143.75 55 143.75 54.875C144.062 53.5 144.031 52.4375 143.656 51.6875C143.344 50.875 143.094 50.125 142.906 49.4375C142.969 48.5 143.031 47.6875 143.094 47C143.219 46.25 143.406 45.5312 143.656 44.8438C143.719 44.4062 143.75 43.9688 143.75 43.5312C143.75 43.0938 143.781 42.7188 143.844 42.4062C143.719 42.1562 143.625 41.9688 143.562 41.8438C143.5 41.6562 143.406 41.4375 143.281 41.1875C143.281 40.6875 143.312 40.25 143.375 39.875C143.438 39.4375 143.469 39 143.469 38.5625C143.406 38.375 143.344 38.2188 143.281 38.0938C143.281 37.9062 143.281 37.7188 143.281 37.5312C143.281 37.2812 143.312 37.0312 143.375 36.7812C143.438 36.5312 143.5 36.2812 143.562 36.0312C143.688 35.7188 143.812 35.25 143.938 34.625C143.875 33.625 143.875 32.7188 143.938 31.9062C144 31.0938 143.969 30.2188 143.844 29.2812C143.719 28.7812 143.625 28.2812 143.562 27.7812C143.562 27.2812 143.5 26.8438 143.375 26.4688C143.438 26.2188 143.469 26 143.469 25.8125C143.469 25.5625 143.5 25.3125 143.562 25.0625C143.312 24.6875 143.156 24.4688 143.094 24.4062C143.031 24.3438 142.969 24.25 142.906 24.125C142.594 24.1875 142.125 24.25 141.5 24.3125C140.938 24.375 140.469 24.3438 140.094 24.2188C139.781 24.3438 139.344 24.4375 138.781 24.5C138.281 24.5 137.906 24.3438 137.656 24.0312C137.344 24.0938 137 24.0938 136.625 24.0312C136.312 23.9062 136.031 23.8438 135.781 23.8438C135.406 23.9062 134.875 24.1562 134.188 24.5938C133.562 25.0312 133.062 25.2188 132.688 25.1562C132.375 25.0938 132.188 25 132.125 24.875C132.062 24.6875 131.969 24.5312 131.844 24.4062C131.594 24.4688 131.406 24.5938 131.281 24.7812C131.219 24.9062 131.094 25.0312 130.906 25.1562C130.594 25.0938 130.375 25.125 130.25 25.25C130.125 25.375 130 25.5 129.875 25.625C129.188 25.8125 128.875 26 128.938 26.1875C128.938 26.3125 128.875 26.4375 128.75 26.5625C128.438 26.8125 128.188 27.0312 128 27.2188C127.812 27.4062 127.656 27.7188 127.531 28.1562C127.156 28.7188 126.969 29.0938 126.969 29.2812C126.969 29.4688 126.906 29.625 126.781 29.75C126.344 29.75 126.031 29.5938 125.844 29.2812C125.844 29.0938 125.906 28.875 126.031 28.625C126.094 28.375 126.125 28.125 126.125 27.875C126.125 27 126.219 26.4375 126.406 26.1875C126.531 25.9375 126.656 25.6562 126.781 25.3438C126.906 24.8438 127 24.5 127.062 24.3125C127.125 24.0625 127.219 23.875 127.344 23.75C127.219 23.25 127.281 22.875 127.531 22.625C127.719 22.3125 127.875 22 128 21.6875C128.125 20.875 128.375 20.3125 128.75 20C129.125 19.625 129.469 19.2812 129.781 18.9688C129.594 18.3438 129.562 17.9688 129.688 17.8438C129.75 17.6562 129.75 17.4375 129.688 17.1875C129.812 17 129.938 16.8125 130.062 16.625C130.125 16.4375 130.219 16.25 130.344 16.0625C130.906 15.875 131.188 15.7188 131.188 15.5938C131.188 15.4688 131.25 15.375 131.375 15.3125C131.875 15.375 132.188 15.5625 132.312 15.875C132.5 16.125 132.719 16.375 132.969 16.625C133.531 16.5 134.281 16.25 135.219 15.875C136.156 15.5 137 15.3438 137.75 15.4062C138 15.5312 138.031 15.7188 137.844 15.9688C137.719 16.2188 137.781 16.4062 138.031 16.5312C138.469 16.4062 138.844 16.2188 139.156 15.9688C139.531 15.7188 139.969 15.75 140.469 16.0625C140.906 16 141.312 15.875 141.688 15.6875C142.062 15.5 142.469 15.4062 142.906 15.4062C143.094 16.0312 143.406 16.4375 143.844 16.625C144.344 16.25 144.656 16.0938 144.781 16.1562C144.906 16.2188 145.031 16.2812 145.156 16.3438C145.406 16.0938 145.688 16.0312 146 16.1562C146.375 16.2188 146.688 16.3125 146.938 16.4375C147.562 16.3125 148 16.1875 148.25 16.0625C149.062 15.6875 149.531 15.5938 149.656 15.7812C149.844 15.9062 150.094 16.0312 150.406 16.1562C150.719 16.0312 151 15.9062 151.25 15.7812C151.5 15.6562 151.844 15.625 152.281 15.6875C152.531 15.8125 152.719 15.9062 152.844 15.9688C153.031 16.0312 153.219 16.125 153.406 16.25C153.656 16.125 153.875 15.9688 154.062 15.7812C154.25 15.5938 154.5 15.4375 154.812 15.3125C155.562 15.3125 155.969 15.3438 156.031 15.4062C156.094 15.4062 156.312 15.4375 156.688 15.5C156.875 15.5625 157.125 15.625 157.438 15.6875C157.75 15.75 157.969 15.7812 158.094 15.7812C158.469 15.7812 158.781 15.6562 159.031 15.4062C159.281 15.1562 159.5 15.25 159.688 15.6875C159.938 15.5625 160.219 15.5312 160.531 15.5938C160.906 15.5938 161.188 15.6562 161.375 15.7812C161.75 16.0312 162.062 16.0938 162.312 15.9688C162.625 15.8438 162.844 15.625 162.969 15.3125C163.594 15.25 164 15.4688 164.188 15.9688C164.938 16.2188 165.188 16.5312 164.938 16.9062C164.688 17.2812 164.688 17.6562 164.938 18.0312C165.25 18.2812 165.625 18.4375 166.062 18.5C166.5 18.5 166.75 18.6875 166.812 19.0625C166.562 19.875 166.438 20.5 166.438 20.9375C166.562 21.25 166.781 21.4375 167.094 21.5C167.469 21.5625 167.75 21.7188 167.938 21.9688C167.938 22.3438 167.844 22.6562 167.656 22.9062C167.469 23.1562 167.5 23.4375 167.75 23.75C167.938 23.875 168.156 24.0312 168.406 24.2188C168.656 24.3438 168.844 24.5312 168.969 24.7812C169.094 25.6562 169.25 26.1875 169.438 26.375ZM181.719 50.75C181.781 51.1875 181.656 51.5938 181.344 51.9688C181.094 52.3438 180.906 52.7188 180.781 53.0938C181.031 53.4688 181.156 53.9062 181.156 54.4062C181.219 54.8438 181.219 55.3125 181.156 55.8125C181.094 56.3125 181.031 56.8125 180.969 57.3125C180.969 57.8125 181.031 58.2812 181.156 58.7188C180.969 59.1562 180.875 59.625 180.875 60.125C180.938 60.625 181 61.125 181.062 61.625C180.875 62.4375 180.844 63.0312 180.969 63.4062C181.094 63.7188 181.156 64.125 181.156 64.625C180.781 65.4375 180.625 66 180.688 66.3125C180.812 66.625 180.812 66.875 180.688 67.0625C181 68 181.125 68.5625 181.062 68.75C181 68.9375 181.031 69.1562 181.156 69.4062C181.031 69.5312 180.969 69.75 180.969 70.0625C180.969 70.375 180.906 70.625 180.781 70.8125C180.344 70.8125 180.094 70.6875 180.031 70.4375C179.969 70.1875 179.844 70 179.656 69.875C179.469 69.9375 179.156 69.9688 178.719 69.9688C178.344 69.9688 178 69.9062 177.688 69.7812C177.438 69.9062 177.219 70.0625 177.031 70.25C176.906 70.4375 176.688 70.4688 176.375 70.3438C176.25 70.4688 176.156 70.6562 176.094 70.9062C176.031 71.0938 175.875 71.25 175.625 71.375C175.188 70.875 174.938 70.5 174.875 70.25C174.875 69.9375 174.812 69.6875 174.688 69.5C173.625 70.1875 172.906 70.375 172.531 70.0625C171.781 70.25 171.125 70.125 170.562 69.6875C170.5 68.6875 170.625 68.0938 170.938 67.9062C170.812 67.5938 170.719 67.2812 170.656 66.9688C170.656 66.5938 170.625 66.25 170.562 65.9375C170.688 65.6875 170.812 65.375 170.938 65C171.062 64.625 171.062 64.2188 170.938 63.7812C170.688 63.0938 170.594 62.5625 170.656 62.1875C170.781 61.8125 170.812 61.375 170.75 60.875C170.875 60.0625 171.031 59.5312 171.219 59.2812C171.406 59.0312 171.438 58.7188 171.312 58.3438C171.125 57.8438 171 57.3125 170.938 56.75C170.875 56.1875 171 55.6875 171.312 55.25C171.188 54.9375 171.094 54.625 171.031 54.3125C171.031 53.9375 170.969 53.5938 170.844 53.2812C170.844 52.7812 170.875 52.375 170.938 52.0625C170.938 51.875 170.906 51.7188 170.844 51.5938C170.844 51.4062 170.844 51.2188 170.844 51.0312C170.531 50.7188 170.406 50.1875 170.469 49.4375C170.531 48.6875 170.719 48.1875 171.031 47.9375C170.719 47.0625 170.594 46.0625 170.656 44.9375C170.719 43.75 170.688 42.625 170.562 41.5625C170.812 41.1875 170.875 40.6875 170.75 40.0625C170.938 39.5 171 39.0938 170.938 38.8438C170.875 38.5938 170.906 38.3438 171.031 38.0938C170.844 37.7812 170.75 37.3125 170.75 36.6875C170.812 36.0625 171 35.625 171.312 35.375C171.188 35.125 171.062 34.8438 170.938 34.5312C170.875 34.2188 170.938 33.9688 171.125 33.7812C171 33.3438 170.875 33 170.75 32.75C170.625 32.4375 170.531 32.0625 170.469 31.625C170.406 31.375 170.438 31.2188 170.562 31.1562C170.688 31.0312 170.719 30.8125 170.656 30.5C171.094 29.9375 171.344 29.4688 171.406 29.0938C171.469 28.7188 171.719 28.5312 172.156 28.5312C171.406 27.7188 170.938 27.25 170.75 27.125C170.688 26.9375 170.594 26.7812 170.469 26.6562C170.344 26.4688 170.312 26.2188 170.375 25.9062C170.562 25.1562 170.531 24.5938 170.281 24.2188C170.031 23.8438 169.75 23.5 169.438 23.1875C169.375 22.9375 169.312 22.7188 169.25 22.5312C169.188 22.3438 169.188 22.0938 169.25 21.7812C169.438 20.4062 169 19.625 167.938 19.4375C167.688 18.9375 167.5 18.6875 167.375 18.6875C167.312 18.6875 167.219 18.625 167.094 18.5C166.781 17.875 166.406 17.625 165.969 17.75C165.594 17.8125 165.281 17.7188 165.031 17.4688C165.031 17.1562 164.938 16.9688 164.75 16.9062C164.562 16.8438 164.406 16.7188 164.281 16.5312C164.281 16.2812 164.375 16.125 164.562 16.0625C164.75 16 164.938 15.9375 165.125 15.875C165.438 16.125 165.812 16.25 166.25 16.25C166.562 16.1875 166.844 16.0312 167.094 15.7812C167.406 15.5312 167.75 15.4375 168.125 15.5C168.75 15.8125 169.094 15.875 169.156 15.6875C169.281 15.5 169.5 15.4062 169.812 15.4062C170.25 16.0938 170.562 16.375 170.75 16.25C171 16.125 171.219 15.9688 171.406 15.7812C171.719 15.6562 172.094 15.625 172.531 15.6875C173.031 15.75 173.438 15.875 173.75 16.0625C174.125 15.9375 174.5 15.9062 174.875 15.9688C175.25 15.9688 175.688 15.9375 176.188 15.875C176.688 16.0625 177 16.0938 177.125 15.9688C177.25 15.7812 177.438 15.6562 177.688 15.5938C177.875 15.6562 178 15.7812 178.062 15.9688C178.188 16.0938 178.312 16.2188 178.438 16.3438C178.75 16.4062 179 16.4062 179.188 16.3438C179.375 16.2812 179.562 16.1875 179.75 16.0625C180.75 15.6875 181.25 15.75 181.25 16.25C181.25 16.75 181.188 17.25 181.062 17.75C181.125 17.9375 181.188 18.0938 181.25 18.2188C181.375 18.3438 181.469 18.5 181.531 18.6875C181.094 19.375 180.812 19.7812 180.688 19.9062C180.625 20.0312 180.594 20.1562 180.594 20.2812C180.531 20.5938 180.594 20.875 180.781 21.125C181.031 21.375 181.094 21.7188 180.969 22.1562C180.469 22.7812 180.281 23.125 180.406 23.1875C180.594 23.25 180.781 23.3125 180.969 23.375C181.156 24.1875 181.188 24.6562 181.062 24.7812C180.938 24.8438 180.844 25 180.781 25.25C180.906 25.75 181.031 26.0938 181.156 26.2812C181.031 26.5938 180.969 26.9062 180.969 27.2188C180.969 27.4688 180.969 27.75 180.969 28.0625C180.906 28.375 180.812 28.6562 180.688 28.9062C180.625 29.1562 180.594 29.4375 180.594 29.75C180.594 30.25 180.688 30.7188 180.875 31.1562C181.062 31.5312 181.062 31.9375 180.875 32.375C181.062 34.25 181.031 35.6875 180.781 36.6875C180.844 37.5 180.906 38.125 180.969 38.5625C181.031 38.9375 180.969 39.2812 180.781 39.5938C180.844 39.7812 180.938 39.9375 181.062 40.0625C181.188 40.1875 181.25 40.3438 181.25 40.5312C181.312 41.1562 181.156 41.6562 180.781 42.0312C180.406 42.7812 180.344 43.25 180.594 43.4375C180.844 43.625 181.031 43.875 181.156 44.1875C181.219 44.6875 181.156 45.0625 180.969 45.3125C180.844 45.5625 180.812 45.9062 180.875 46.3438C180.938 46.6562 181.031 46.9688 181.156 47.2812C181.281 47.5312 181.375 47.8125 181.438 48.125C181 48.4375 180.812 48.7188 180.875 48.9688C180.938 49.1562 180.938 49.3125 180.875 49.4375C181 49.6875 181.156 49.9062 181.344 50.0938C181.531 50.2188 181.656 50.4375 181.719 50.75ZM220.25 56.1875C220.75 56.375 220.969 56.5625 220.906 56.75C220.844 56.875 220.875 57.0625 221 57.3125C220.688 58 220.5 58.5 220.438 58.8125C220.375 59.125 220.188 59.3438 219.875 59.4688C219.938 59.7812 219.875 60.0312 219.688 60.2188C219.562 60.3438 219.469 60.5625 219.406 60.875C219.031 61.3125 218.781 61.6875 218.656 62C218.531 62.3125 218.344 62.5625 218.094 62.75C217.969 63.4375 217.781 63.8125 217.531 63.875C217.344 63.9375 217.188 64.125 217.062 64.4375C217.375 65.125 217.469 65.5625 217.344 65.75C217.281 65.875 217.281 66.0938 217.344 66.4062C216.969 66.9062 216.688 67.1875 216.5 67.25C216.562 67.5625 216.562 67.8438 216.5 68.0938C216.5 68.2812 216.562 68.5312 216.688 68.8438C216.5 69.4062 216.406 69.75 216.406 69.875C216.406 70.125 216.312 70.3125 216.125 70.4375C216 70.5 215.875 70.5938 215.75 70.7188C215.812 71.0312 215.75 71.2812 215.562 71.4688C215.438 71.6562 215.312 71.8125 215.188 71.9375C214.875 71.9375 214.688 71.8438 214.625 71.6562C214.562 71.4688 214.469 71.2812 214.344 71.0938C213.594 71.3438 213.062 71.3438 212.75 71.0938C212.5 70.9062 212.219 70.7188 211.906 70.5312C211.656 70.5312 211.438 70.5625 211.25 70.625C211.125 70.6875 211 70.75 210.875 70.8125C210.375 70.625 210.094 70.6562 210.031 70.9062C209.969 71.0938 209.844 71.25 209.656 71.375C209.031 71.4375 208.656 71.5 208.531 71.5625C208.406 71.625 208.281 71.6875 208.156 71.75C207.531 71.75 207.156 71.7812 207.031 71.8438C206.969 71.9062 206.875 71.9375 206.75 71.9375C206.562 71.875 206.406 71.7812 206.281 71.6562C206.156 71.5312 206 71.4062 205.812 71.2812C205.5 71.1562 205.188 71.0938 204.875 71.0938C204.562 71.1562 204.219 71.25 203.844 71.375C203.094 71.25 202.688 71.125 202.625 71C202.562 70.9375 202.438 70.875 202.25 70.8125C201.438 71.125 200.938 71.2188 200.75 71.0938C200.625 71.0312 200.469 70.9688 200.281 70.9062C200.094 70.9688 199.875 70.9688 199.625 70.9062C199.438 70.8438 199.25 70.7812 199.062 70.7188C198.812 70.8438 198.594 71 198.406 71.1875C198.219 71.375 198 71.5312 197.75 71.6562C197.5 71.6562 197.312 71.7188 197.188 71.8438C197.062 71.9688 196.875 72.0312 196.625 72.0312C195.812 71.7812 195.312 71.6875 195.125 71.75C195 71.8125 194.781 71.8125 194.469 71.75C194.281 71.625 194.125 71.4688 194 71.2812C193.938 71.0938 193.844 70.9062 193.719 70.7188C192.906 70.7188 192.344 70.875 192.031 71.1875C191.906 71.1875 191.75 71.1875 191.562 71.1875C191.375 71.25 191.188 71.25 191 71.1875C190.875 71.0625 190.75 70.9688 190.625 70.9062C190.5 70.7812 190.344 70.6562 190.156 70.5312C189.844 70.5938 189.531 70.6562 189.219 70.7188C188.906 70.7812 188.688 70.9062 188.562 71.0938C188.312 71.0938 188.094 71.125 187.906 71.1875C187.781 71.25 187.625 71.3125 187.438 71.375C187 71.125 186.75 71.0625 186.688 71.1875C186.625 71.3125 186.5 71.375 186.312 71.375C185.812 71 185.531 70.875 185.469 71C185.344 71.0625 185.188 71.0938 185 71.0938C185.375 70.5938 185.625 70.3125 185.75 70.25C185.875 70.1875 185.969 70.0938 186.031 69.9688C186.719 68.4688 187.312 67.1875 187.812 66.125C187.875 65.5625 187.969 65.1562 188.094 64.9062C188.281 64.5938 188.312 64.25 188.188 63.875C188.375 63.375 188.625 62.9062 188.938 62.4688C189.312 62.0312 189.344 61.5 189.031 60.875C189.094 60.5625 189.156 60.3125 189.219 60.125C189.344 59.9375 189.406 59.6875 189.406 59.375C189.531 59.1875 189.656 59.0312 189.781 58.9062C189.969 58.7188 190.031 58.4688 189.969 58.1562C190.031 57.9688 190.062 57.7812 190.062 57.5938C190.125 57.4062 190.156 57.1562 190.156 56.8438C190.656 56.2188 190.938 55.8438 191 55.7188C191.125 55.5312 191.281 55.375 191.469 55.25C191.781 54.75 192.031 54.2812 192.219 53.8438C192.469 53.3438 192.75 52.8438 193.062 52.3438C193.188 51.8438 193.219 51.4375 193.156 51.125C193.344 50.4375 193.406 50.0938 193.344 50.0938C193.281 50.0312 193.25 49.9375 193.25 49.8125C193.562 49 193.844 48.25 194.094 47.5625C194.344 46.8125 194.688 46.125 195.125 45.5C195.375 44.8125 195.688 44.2812 196.062 43.9062C196.062 43.7812 196.156 43.4062 196.344 42.7812C196.531 42.0938 196.625 41.6875 196.625 41.5625C197.062 41.0625 197.312 40.4375 197.375 39.6875C197.5 38.875 197.719 38.2188 198.031 37.7188C197.969 37.2812 198 36.9375 198.125 36.6875C198.25 36.375 198.375 36.0938 198.5 35.8438C198.625 35.5938 198.75 35.3438 198.875 35.0938C199.062 34.8438 199.156 34.5312 199.156 34.1562C199.281 33.9688 199.406 33.7812 199.531 33.5938C199.656 33.4062 199.75 33.1562 199.812 32.8438C200.062 32.5312 200.281 32.0625 200.469 31.4375C200.344 30.375 200.531 29.5625 201.031 29C201.594 28.4375 202.062 27.8438 202.438 27.2188C202.25 26.5938 202.188 26.25 202.25 26.1875C202.375 26.0625 202.406 25.875 202.344 25.625C202.531 25.375 202.688 25.0625 202.812 24.6875C203 24.3125 203 23.9375 202.812 23.5625C202.625 23.375 202.375 23.3438 202.062 23.4688C201.75 23.5312 201.438 23.5 201.125 23.375C200.312 23.625 199.719 23.75 199.344 23.75C198.969 23.75 198.625 23.6875 198.312 23.5625C198 23.6875 197.531 23.8125 196.906 23.9375C195.656 23.625 194.562 23.5625 193.625 23.75C193.312 23.6875 193.031 23.625 192.781 23.5625C192.594 23.5 192.344 23.4688 192.031 23.4688C191.531 23.5938 191.094 23.75 190.719 23.9375C190.406 24.125 190.094 24.3125 189.781 24.5H188.656C188.406 24.6875 188.125 24.875 187.812 25.0625C187.5 25.1875 187.188 25.3125 186.875 25.4375C186.562 26.25 186.281 26.6875 186.031 26.75C185.781 26.8125 185.562 26.9062 185.375 27.0312C184.812 27.9062 184.375 28.4375 184.062 28.625C183.75 28.8125 183.5 29.125 183.312 29.5625C182.875 29.6875 182.594 29.875 182.469 30.125C182.281 30.375 182.031 30.4062 181.719 30.2188C181.781 29.9062 181.875 29.6562 182 29.4688C182.062 29.2812 182.156 29.0312 182.281 28.7188C182.469 28.0938 182.594 27.75 182.656 27.6875L183.5 26.5625C183.625 26.3125 183.719 26.0312 183.781 25.7188C183.844 25.4062 183.906 25.0938 183.969 24.7812C184.344 24.2188 184.656 23.6875 184.906 23.1875C185.219 22.375 185.438 21.7188 185.562 21.2188C185.688 20.6562 185.906 20.1875 186.219 19.8125C186.094 19.5625 186.031 19.3125 186.031 19.0625C186.094 18.8125 186.062 18.5938 185.938 18.4062C186.125 18.0312 186.312 17.6562 186.5 17.2812C186.688 16.8438 186.781 16.3125 186.781 15.6875C186.969 15.625 187.125 15.625 187.25 15.6875C187.438 15.6875 187.688 15.625 188 15.5C188.75 15.75 189.188 15.8438 189.312 15.7812C189.5 15.6562 189.719 15.5938 189.969 15.5938C190.719 15.4062 191.094 15.4688 191.094 15.7812C191.406 15.7188 191.656 15.6875 191.844 15.6875C192.094 15.6875 192.344 15.625 192.594 15.5C192.844 15.4375 193.031 15.375 193.156 15.3125C193.281 15.1875 193.5 15.0938 193.812 15.0312C194.25 14.9688 194.625 15.0625 194.938 15.3125C195 15.5 195.062 15.6875 195.125 15.875C195.25 16.0625 195.438 16.1875 195.688 16.25C195.938 16.1875 196.156 16.0938 196.344 15.9688C196.531 15.8438 196.781 15.8438 197.094 15.9688C197.344 15.9062 197.5 15.8125 197.562 15.6875C197.688 15.5625 197.844 15.4375 198.031 15.3125C198.344 15.4375 198.656 15.5312 198.969 15.5938C199.281 15.5938 199.625 15.5312 200 15.4062C200.688 15.5938 201.094 15.6875 201.219 15.6875C201.344 15.625 201.5 15.625 201.688 15.6875C202.312 16.0625 202.719 16.1875 202.906 16.0625C203.094 15.9375 203.344 15.8125 203.656 15.6875C204.031 15.6875 204.375 15.7188 204.688 15.7812C205 15.8438 205.312 15.9062 205.625 15.9688C205.812 15.9062 205.969 15.8438 206.094 15.7812C206.281 15.6562 206.5 15.5938 206.75 15.5938C207.062 15.8438 207.469 15.9688 207.969 15.9688C208.156 15.9062 208.281 15.8125 208.344 15.6875C208.469 15.5 208.688 15.4062 209 15.4062C209.25 15.4688 209.438 15.5938 209.562 15.7812C209.688 15.9062 209.844 16.0312 210.031 16.1562C210.344 16.0312 210.75 16 211.25 16.0625C211.75 16.0625 212.156 16.125 212.469 16.25C212.906 15.9375 213.375 15.7188 213.875 15.5938C214.438 15.4688 215.062 15.3438 215.75 15.2188C216 15.8438 216.156 16.1875 216.219 16.25C216.281 16.25 216.344 16.3125 216.406 16.4375C216.031 16.8125 216.031 17.1562 216.406 17.4688C216.219 18.0938 215.844 18.6562 215.281 19.1562C215.344 19.2812 215.344 19.4688 215.281 19.7188C215.281 19.9062 215.312 20.0938 215.375 20.2812C215 20.7812 214.656 21.3125 214.344 21.875C214.031 22.4375 213.688 22.9688 213.312 23.4688C213.312 24.2812 213.188 24.875 212.938 25.25C212.688 25.5625 212.562 26.0312 212.562 26.6562C212.25 26.9062 212.062 27.25 212 27.6875C211.938 28.125 211.75 28.5 211.438 28.8125C211.625 29.3125 211.656 29.5938 211.531 29.6562C211.406 29.7188 211.312 29.8125 211.25 29.9375C211.438 30.4375 211.406 30.875 211.156 31.25C210.844 31.375 210.594 31.5938 210.406 31.9062C210.281 32.1562 210.25 32.5625 210.312 33.125C209.75 34.25 209.281 34.9688 208.906 35.2812C208.906 35.9062 208.969 36.3438 209.094 36.5938C208.531 37.3438 208.25 37.9062 208.25 38.2812C208.25 38.5938 208.188 38.9062 208.062 39.2188C207.25 39.6562 206.938 40.5 207.125 41.75C206.938 41.875 206.75 42.0938 206.562 42.4062C206.375 42.7188 206.188 43.0938 206 43.5312C205.875 43.9062 205.75 44.3125 205.625 44.75C205.562 45.125 205.531 45.4375 205.531 45.6875C205.031 46.375 204.719 46.8438 204.594 47.0938C204.531 47.2812 204.531 47.5312 204.594 47.8438C204.469 48.1562 204.375 48.4688 204.312 48.7812C204.25 49.0938 204.156 49.4062 204.031 49.7188C204.094 50.2812 203.906 50.7812 203.469 51.2188C203.281 51.7812 203.125 52.125 203 52.25C202.875 52.375 202.75 52.5 202.625 52.625C202.688 52.875 202.75 53.0625 202.812 53.1875C202.938 53.25 203 53.4375 203 53.75C202.438 54 202.094 54.3125 201.969 54.6875C201.594 55 201.25 55.5312 200.938 56.2812C201 56.9688 200.969 57.4062 200.844 57.5938C200.719 57.7188 200.625 57.9062 200.562 58.1562C200.438 58.9062 200.281 59.4688 200.094 59.8438C199.969 60.1562 199.875 60.5625 199.812 61.0625C199.5 61.1875 199.281 61.375 199.156 61.625C199.031 61.8125 198.875 62.0312 198.688 62.2812C199.25 62.9688 199.719 63.2188 200.094 63.0312C200.469 62.8438 200.812 62.7188 201.125 62.6562C201.438 63.0312 201.656 63.25 201.781 63.3125C201.969 63.375 202.125 63.4062 202.25 63.4062C203 63.2812 203.5 63.2188 203.75 63.2188C204 63.1562 204.219 63.0938 204.406 63.0312C205.031 63.4062 205.469 63.5625 205.719 63.5C205.969 63.4375 206.25 63.4688 206.562 63.5938C206.938 63.4688 207.219 63.25 207.406 62.9375C207.656 62.625 208.094 62.5312 208.719 62.6562C208.906 62.7188 209.062 62.8125 209.188 62.9375C209.375 63 209.562 63.0625 209.75 63.125C210.75 63.125 211.562 63.0625 212.188 62.9375C212.812 62.9375 213.25 62.8125 213.5 62.5625C213.812 62.5625 214 62.5 214.062 62.375C214.188 62.1875 214.375 62.0938 214.625 62.0938C214.875 61.5938 215.094 61.1875 215.281 60.875C215.906 60.5625 216.281 60.2812 216.406 60.0312C216.594 59.7188 216.812 59.4062 217.062 59.0938C217.25 58.3438 217.625 58 218.188 58.0625C218.562 57.5625 218.781 57.2812 218.844 57.2188C218.969 57.1562 219.062 57.0312 219.125 56.8438C219.625 56.7188 219.906 56.5938 219.969 56.4688C220.031 56.3438 220.125 56.25 220.25 56.1875Z" fill="white"/>
</svg>
