<svg width="36" height="30" viewBox="0 0 36 30" fill="none" xmlns="http://www.w3.org/2000/svg">
<path d="M33.1006 0.0021596C32.7109 0.0180047 32.3317 0.11851 31.9896 0.245456C31.6511 0.371549 29.7021 1.14254 26.824 2.28303C23.9459 3.42352 20.2046 4.90868 16.4959 6.38135C9.07849 9.32671 1.78963 12.2247 1.78963 12.2247L1.84276 12.2059C1.84276 12.2059 1.40284 12.3422 0.956824 12.6302C0.733816 12.7742 0.493896 12.9602 0.297448 13.2312C0.101 13.5023 -0.0426077 13.8864 0.0115123 14.2927C0.201608 15.7198 1.79745 16.1247 1.79745 16.1247L1.8037 16.1276L8.92557 18.3867C9.10714 18.9481 11.0857 25.0685 11.5209 26.3647C11.7612 27.0813 11.9862 27.4946 12.2209 27.7766C12.3383 27.9178 12.4614 28.027 12.5974 28.1068C12.6515 28.1386 12.7084 28.1624 12.7646 28.1836C12.7658 28.1841 12.7666 28.1831 12.7678 28.1836C12.7747 28.1864 12.7812 28.1867 12.7881 28.1894L12.7693 28.185C12.7824 28.1899 12.7953 28.1982 12.8084 28.2024C12.8338 28.2107 12.8493 28.2104 12.8818 28.2169C13.6974 28.4808 14.3724 27.991 14.3724 27.991L14.4006 27.9707L18.7756 24.2098L25.8756 29.3407L25.9646 29.3783C27.2074 29.8897 28.3313 29.6044 28.9537 29.135C29.5761 28.6656 29.8209 28.0605 29.8209 28.0605L29.8474 27.9968L35.0646 2.79425C35.1981 2.23041 35.2171 1.74304 35.0912 1.30263C34.9653 0.862227 34.6594 0.479388 34.2756 0.267196C33.8917 0.0549963 33.4902 -0.0136855 33.1006 0.0021596ZM33.1428 1.5097C33.301 1.50291 33.4183 1.51968 33.4553 1.54012C33.4922 1.56055 33.5088 1.55787 33.5443 1.68204C33.5798 1.80621 33.599 2.06776 33.5021 2.47709L33.499 2.48578L28.3115 27.542C28.2992 27.5673 28.1911 27.799 27.9443 27.9852C27.6925 28.1751 27.4125 28.3233 26.6693 28.0344L18.9053 22.4228L18.6865 22.2635L18.6818 22.2678L16.36 20.6531L29.4084 6.42482C29.6132 6.20205 29.6575 5.88845 29.5214 5.62433C29.3854 5.36021 29.0944 5.19498 28.7787 5.20257C28.6277 5.2062 28.4809 5.24938 28.3553 5.32711L9.47402 16.9936L2.3412 14.7301C2.3412 14.7301 1.63291 14.3648 1.59902 14.1103C1.59714 14.0962 1.58878 14.1089 1.62558 14.0581C1.66238 14.0074 1.7549 13.9216 1.87089 13.8467C2.10287 13.6969 2.36776 13.6063 2.36776 13.6063L2.39432 13.5976L2.42088 13.5875C2.42088 13.5875 9.71012 10.6893 17.1271 7.74411C20.8356 6.27151 24.5763 4.78745 27.4537 3.64724C30.3303 2.50733 32.4089 1.68682 32.5849 1.62125C32.7853 1.54688 32.9845 1.51649 33.1428 1.5097ZM24.4896 9.49781L14.5943 20.2881L14.5896 20.2925C14.5742 20.3097 14.5596 20.3276 14.5459 20.3461C14.5302 20.3661 14.5156 20.3869 14.5021 20.4083C14.4465 20.4958 14.4109 20.5929 14.3974 20.6936C14.3974 20.6955 14.3974 20.6975 14.3974 20.6994L13.1084 26.0721C13.0869 26.0141 13.0719 25.9928 13.049 25.9244V25.923C12.6396 24.7037 10.7729 18.9315 10.5146 18.1333L24.4896 9.49781ZM15.7115 22.0563L17.4896 23.2931L14.8771 25.5378L15.7115 22.0563Z" fill="white"/>
</svg>
