<svg width="127" height="139" viewBox="0 0 127 139" fill="none" xmlns="http://www.w3.org/2000/svg">
<path d="M10.3125 123.923C7.69097 123.923 5.46267 123.005 3.6276 121.17C1.79253 119.335 0.875 117.107 0.875 114.485V22.9417C0.875 20.3202 1.68767 18.0919 3.31302 16.2568C4.93837 14.4218 6.32778 13.5042 7.48125 13.5042H39.2542C39.9882 9.83409 41.797 6.81934 44.6807 4.45996C47.5644 2.10059 50.8937 0.920898 54.6687 0.920898C58.4437 0.920898 61.7731 2.10059 64.6567 4.45996C67.5404 6.81934 69.3493 9.83409 70.0833 13.5042H101.856C104.478 13.5042 106.706 14.4218 108.541 16.2568C110.376 18.0919 111.294 20.3202 111.294 22.9417V61.6355H101.856V22.9417H85.1833V43.3897H26.9854V22.9417H10.3125V114.485H49.6354V123.923H10.3125ZM120.102 138.708L101.227 119.833C99.025 121.616 96.5869 122.848 93.913 123.53C91.239 124.211 88.5388 124.552 85.8125 124.552C78.3673 124.552 72.0494 121.957 66.8588 116.766C61.6682 111.576 59.0729 105.258 59.0729 97.8126C59.0729 90.3674 61.6682 84.0496 66.8588 78.8589C72.0494 73.6683 78.3673 71.073 85.8125 71.073C93.2576 71.073 99.5755 73.6683 104.766 78.8589C109.957 84.0496 112.552 90.3674 112.552 97.8126C112.552 100.539 112.211 103.265 111.53 105.992C110.848 108.718 109.616 111.13 107.833 113.227L126.708 132.102L120.102 138.708ZM85.8125 115.115C90.6361 115.115 94.7257 113.437 98.0812 110.081C101.437 106.726 103.115 102.636 103.115 97.8126C103.115 92.989 101.437 88.8994 98.0812 85.5438C94.7257 82.1883 90.6361 80.5105 85.8125 80.5105C80.9889 80.5105 76.8993 82.1883 73.5437 85.5438C70.1882 88.8994 68.5104 92.989 68.5104 97.8126C68.5104 102.636 70.1882 106.726 73.5437 110.081C76.8993 113.437 80.9889 115.115 85.8125 115.115ZM57.5 22.3126C59.2826 22.3126 60.7769 21.7096 61.9828 20.5037C63.1887 19.2978 63.7916 17.8035 63.7916 16.0209C63.7916 14.2383 63.1887 12.744 61.9828 11.5381C60.7769 10.3322 59.2826 9.72923 57.5 9.72923C55.7173 9.72923 54.2231 10.3322 53.0172 11.5381C51.8113 12.744 51.2083 14.2383 51.2083 16.0209C51.2083 17.8035 51.8113 19.2978 53.0172 20.5037C54.2231 21.7096 55.7173 22.3126 57.5 22.3126Z" fill="white"/>
</svg>
