<svg width="40" height="40" viewBox="0 0 40 40" fill="none" xmlns="http://www.w3.org/2000/svg">
<path d="M39.1436 31.4188C37.3373 24.8438 32.3748 21.2063 30.3248 19.9438C37.5186 14.7063 37.6561 8.68135 37.6561 8.41885C37.6561 8.2501 37.5935 8.09385 37.4748 7.9751C37.356 7.85635 37.1998 7.7876 37.0311 7.7876H31.0061C30.7311 7.7876 30.4873 7.96885 30.4061 8.23135C28.4436 14.5813 24.4623 16.3438 22.8436 16.8063V8.4126C22.8436 8.06885 22.5623 7.7876 22.2186 7.7876H16.3498C16.0061 7.7876 15.7248 8.06885 15.7248 8.4126V23.5626C13.8498 22.6438 9.1623 19.2688 8.63105 8.3876C8.6123 8.05635 8.3373 7.79385 8.00605 7.79385H1.45605C1.1123 7.79385 0.831055 8.0751 0.831055 8.41885V10.8126C0.831055 22.6126 10.4311 32.2126 22.2248 32.2126C22.5686 32.2126 22.8498 31.9313 22.8498 31.5876V24.0438C29.4248 25.2438 31.2561 31.4813 31.3373 31.7501C31.4123 32.0188 31.6623 32.2063 31.9373 32.2063H38.5435C38.7373 32.2063 38.9248 32.1126 39.0373 31.9626C39.1623 31.8063 39.1998 31.6063 39.1436 31.4188ZM32.3811 30.9626C31.7623 29.2876 29.1436 23.5251 22.2998 22.7001C22.1248 22.6751 21.9436 22.7313 21.8123 22.8563C21.6811 22.9751 21.5998 23.1438 21.5998 23.3251V30.9563C10.7811 30.6188 2.08105 21.7126 2.08105 10.8063V9.0376H7.4248C8.3123 23.0063 15.8811 25.0001 16.2123 25.0813C16.3998 25.1251 16.5936 25.0813 16.7436 24.9626C16.8936 24.8438 16.9811 24.6626 16.9811 24.4688V9.03135H21.5998V17.5751C21.5998 17.7563 21.6748 17.9251 21.8123 18.0438C21.9436 18.1626 22.1248 18.2188 22.2998 18.2001C22.5623 18.1688 28.6998 17.3501 31.4685 9.0376H36.3436C36.0811 10.7188 34.8248 15.4501 28.8123 19.4751C28.6248 19.6001 28.5248 19.8126 28.5373 20.0376C28.5498 20.2626 28.6811 20.4563 28.8811 20.5563C28.9498 20.5876 35.3623 23.8501 37.7061 30.9563H32.3811V30.9626Z" fill="white"/>
</svg>
